<?xml version="1.0" encoding="UTF-8"?>
<svg xmlns="http://www.w3.org/2000/svg" xmlns:xlink="http://www.w3.org/1999/xlink" version="1.1" viewBox="0 0 533.5 86.7">
  <defs>
    <style>
      .cls-1 {
        fill: none;
      }

      .cls-2 {
        fill: #51ade5;
      }

      .cls-3 {
        fill: #3871c1;
      }

      .cls-4 {
        fill: #80cc28;
      }

      .cls-5 {
        fill: #2678d1;
      }

      .cls-6 {
        clip-path: url(#clippath);
      }
    </style>
    <clipPath id="clippath">
      <rect class="cls-1" x="109.6" y="16.3" width="57.5" height="69.2"/>
    </clipPath>
  </defs>
  <!-- Generator: Adobe Illustrator 28.7.3, SVG Export Plug-In . SVG Version: 1.2.0 Build 164)  -->
  <g>
    <g id="_圖層_1" data-name="圖層_1">
      <g>
        <g>
          <g class="cls-6">
            <path class="cls-4" d="M147.6,83.2c-17.7,0-32.1-14.4-32.1-32.1s14.4-32.1,32.1-32.1,13.7,2.3,19.1,6.3c-6.1-5.3-14-8.5-22.7-8.5-19,0-34.4,15.4-34.4,34.4s15.4,34.4,34.4,34.4,16.6-3.2,22.7-8.5c-5.3,3.9-11.9,6.3-19.1,6.3"/>
          </g>
          <path class="cls-3" d="M177,54c-3.4,15.7-19,25.7-34.7,22.2-15.7-3.4-25.7-19-22.3-34.7,1.4-6.3,4.7-11.7,9.2-15.7-5.9,4.3-10.3,10.7-12,18.4-3.7,16.8,7,33.4,23.8,37.1,16.8,3.7,33.5-7,37.1-23.8,1.7-7.7.4-15.3-3.2-21.7,2.5,5.5,3.2,11.8,1.9,18.1"/>
          <path class="cls-4" d="M171.8,26.8v-.2c0-.3,0-.6,0-.9,0-.3,0-.6,0-.9,0-.2,0-.3,0-.5,0-.2,0-.3,0-.5,0-.3,0-.6-.1-1,0-.3-.1-.6-.2-1v-.2c0,0,0-.2,0-.2v-.5c-.1-.2-.2-.3-.2-.5h0c0-.1,0-.2,0-.2v-.2c-.2-.3-.2-.6-.3-1-.1-.3-.2-.6-.3-.9v-.2c-.1,0-.1-.2-.2-.2,0-.2-.1-.3-.2-.5,0-.2-.1-.3-.2-.5,0-.2-.1-.3-.2-.5,0-.2-.1-.3-.2-.5,0-.2-.1-.3-.2-.5-.2-.3-.3-.6-.5-.9-.6-1.2-1.4-2.4-2.2-3.5-.8-1.1-1.7-2.1-2.7-3.1l-.7-.7-.8-.7-.2-.2-.2-.2-.4-.3-.4-.3-.8-.6h-.2c0-.2-.1-.2-.2-.3-.3-.2-.6-.4-.8-.6-.6-.3-1.2-.7-1.8-1-.3-.2-.6-.3-.9-.4-.3-.1-.6-.3-.9-.4-.3-.1-.6-.2-.9-.4h-.2c0-.1-.2-.1-.2-.2-.2,0-.3-.1-.5-.2-.6-.2-1.2-.4-1.9-.6-.3,0-.6-.1-.9-.2-.2,0-.3,0-.5-.1-.2,0-.3,0-.5,0-.3,0-.6-.1-.9-.2-.2,0-.3,0-.5,0-.2,0-.3,0-.5,0-.6,0-1.2-.1-1.8-.1-1.2,0-2.4,0-3.5,0-2.3.2-4.4.7-6.3,1.4-.9.3-1.8.7-2.6,1.1-.8.4-1.6.8-2.3,1.2-.7.4-1.3.8-1.9,1.3-.6.4-1.1.8-1.5,1.2-.9.8-1.5,1.4-1.9,1.8-.2.2-.4.4-.5.5-.1.1-.2.2-.2.2,0,0,0,0,.2-.2.1-.1.3-.3.5-.5.4-.4,1.1-1,2-1.7.4-.4,1-.7,1.5-1.1.6-.4,1.2-.8,1.9-1.1.7-.4,1.5-.7,2.3-1.1.8-.3,1.7-.7,2.6-.9,1.9-.6,3.9-.9,6.2-1,1.1,0,2.2,0,3.4,0,.6,0,1.2.1,1.7.2.1,0,.3,0,.4,0,.1,0,.3,0,.4,0,.3,0,.6.1.9.2.1,0,.3,0,.4.1.1,0,.3,0,.4.1.3,0,.6.2.9.3.6.2,1.2.4,1.7.6.1,0,.3.1.4.2,0,0,.1,0,.2,0h.2c.3.2.6.4.8.5.3.1.6.3.8.4.3.1.5.3.8.5.5.3,1.1.7,1.6,1,.3.2.5.4.8.6,0,0,.1,0,.2.1h.2c0,.1.4.4.4.4l.4.3.4.3.4.3.2.2.2.2.7.7.6.7c.8.9,1.6,1.9,2.3,3,.7,1,1.3,2.1,1.8,3.2.1.3.2.6.4.8,0,.1.1.3.2.4,0,.1.1.3.2.4,0,.1.1.3.2.4,0,.1,0,.3.1.4,0,.1,0,.3.1.4,0,0,0,.1,0,.2v.2c.1.3.2.6.3.9,0,.3.1.6.2.9v.2s0,.1,0,.1h0c0,.3,0,.4,0,.5,0,.1,0,.3,0,.4,0,0,0,.1,0,.2v.2c0,.3,0,.6.1.9,0,.3,0,.6,0,.9,0,.1,0,.3,0,.4,0,.1,0,.3,0,.4,0,.3,0,.6,0,.8,0,.3,0,.6,0,.8v.2c0,0,0,.1,0,.2,0,.1,0,.3,0,.4,0,.1,0,.3,0,.4v.2c0,0,0,.1,0,.2,0,.3,0,.5-.1.8,0,.1,0,.3,0,.4,0,.1,0,.3,0,.4,0,.3,0,.5-.1.8,0,.2-.1.5-.2.7,0,.1,0,.2,0,.4,0,.1,0,.2-.1.4,0,.2-.1.5-.2.7,0,.2-.2.5-.2.7,0,.2-.2.4-.2.7,0,.2-.2.4-.2.6-.7,1.7-1.5,3.2-2.3,4.4-.8,1.2-1.7,2.2-2.4,3,0,0-.2.2-.3.3,0,0-.2.2-.3.3,0,0-.1.1-.2.2.5.4.9.7.9.7.9.7,1.5,1.6,1.9,2.4.1-.1.3-.3.4-.4,0-.1.2-.2.3-.3.1-.1.2-.2.3-.3.8-.9,1.7-2.1,2.6-3.6s1.8-3.2,2.5-5.2c0-.2.2-.5.2-.8,0-.3.2-.5.2-.8,0-.3.1-.5.2-.8,0-.3.1-.5.2-.8,0-.1,0-.3,0-.4,0-.1,0-.3,0-.4,0-.3.1-.6.2-.9,0-.3,0-.6.1-.9,0-.1,0-.3,0-.4,0-.1,0-.3,0-.4,0-.3,0-.6,0-.9,0,0,0-.2,0-.2v-.2c0-.2,0-.3,0-.5,0-.2,0-.3,0-.5s0-.2,0-.2"/>
          <path class="cls-2" d="M135.6,51.1s7.7,1,14.2-4.2c0,0-4,6-14.2,4.2ZM153.8,42.4c-14.6,13.1-27.2,4.9-27.2,4.9,0,0,1.7,8.5,7.4,8.5,0,0-3.7.9-6.7-2,1.7,7,6,11.5,10.2,14.3,0,0,2.9,0,4.1-1,0,0-1.1,1.4-2.3,2.1,3,1.7,5.6,2.6,6.9,3,1.3-.7,2.5-1.6,2.5-1.6-.5,1.1-1.7,1.9-1.7,1.9,10.9-3,16.7-19.7,16.7-19.7l-9.9-10.3"/>
          <path class="cls-4" d="M163.6,49.9s0-2.1-1.4-5c0,0,1.9,2,1.4,5ZM161.9,43.9s-3.6-3.4-7.6-1.7l9.6,9.9c.4-1.6,1.1-5.6-2-8.2"/>
        </g>
        <g>
          <path class="cls-4" d="M225.7,6.1c1.1,0,2.1.3,3,1,.9.7,1.5,1.6,1.8,2.6l9.2,32.2,7-33.3c.2-.7.5-1.3,1.2-1.8.6-.5,1.3-.8,2.1-.8s1.6.3,2.2,1c.6.6,1,1.4,1,2.3l-7.8,35.7c-.3,1.3-1,2.4-2,3.3-1.1.9-2.3,1.4-3.6,1.4s-2.6-.4-3.6-1.2c-1-.7-1.7-1.7-2.1-3l-8.4-30-8.4,30c-.4,1.2-1,2.2-2.1,3-1,.8-2.3,1.2-3.6,1.2s-2.5-.5-3.5-1.4c-1.1-.9-1.8-2-2.1-3.3l-7.8-35.7c0-.9.3-1.6,1-2.3.6-.6,1.4-1,2.2-1s1.5.3,2.1.8c.6.5,1,1.1,1.1,1.8l7,33.3,9.2-32.2c.3-1,.9-1.9,1.8-2.6.9-.7,1.9-1,3-1Z"/>
          <path class="cls-4" d="M276.2,43.7c.8,0,1.5.3,2.1.9.5.6.8,1.3.8,2.1s-.2,1.4-.7,1.8c-.5.6-1,.9-1.7,1-2.4.6-5.1.8-8.1.8-4.9,0-8.7-1.5-11.2-4.4-2.5-2.9-3.8-6.6-3.8-11.1s1.2-8.2,3.6-11.1c2.4-2.8,5.8-4.3,10.2-4.3s7.8,1.2,10.2,3.7c2.3,2.5,3.5,5.8,3.5,9.8s-.5,2.3-1.4,3.2c-.9.9-2,1.3-3.3,1.3h-16.4c.6,2.5,1.5,4.2,3,5.2,1.4,1,4,1.5,7.8,1.5s2.8-.2,5.4-.5ZM274.7,31.9c-.4-2.4-1.3-4.1-2.4-5-1.2-.9-2.9-1.4-5-1.4s-3.8.5-5,1.5c-1.1,1-1.9,2.7-2.4,4.9h14.7Z"/>
          <path class="cls-5" d="M312.8,50.3c-1.8,0-3.6-.2-5.3-.6-1.8-.3-3.7-1.1-5.8-2.1-2-1-3.8-2.4-5.3-4.1-1.6-1.6-2.9-3.9-3.8-6.7-1-2.8-1.6-6-1.6-9.6s.7-7.1,2-10c1.3-2.9,3.1-5.1,5.3-6.7,2.2-1.6,4.5-2.8,7-3.6,2.4-.7,4.9-1.1,7.5-1.1,4,0,7.8,1,11.3,2.9.9.6,1.4,1.4,1.4,2.5s-.3,1.5-.8,2c-.5.6-1.2.9-2.1.9s-1,0-1.3-.3c-2.8-1.3-5.7-1.9-8.6-1.9-10.2,0-15.2,5.2-15.2,15.6s.3,5.3,1,7.4c.7,2.1,1.6,3.8,2.6,4.9,1,1.2,2.3,2.1,3.8,2.8,1.4.7,2.8,1.2,4,1.4,1.2.2,2.5.3,3.8.3,2.9,0,5.8-.6,8.6-1.9.3-.2.8-.3,1.3-.3.8,0,1.5.3,2.1.8.5.5.8,1.2.8,2.1s-.5,1.9-1.4,2.5c-3.5,1.9-7.3,2.9-11.2,2.9Z"/>
          <path class="cls-5" d="M327.9,9.4c0-.9.3-1.7,1-2.3.6-.6,1.3-1,2.2-1s1.7.3,2.3,1,1,1.4,1,2.3v37.1c0,.9-.3,1.7-1,2.3s-1.4,1-2.3,1-1.6-.3-2.2-1c-.6-.6-1-1.4-1-2.3V9.4Z"/>
          <path class="cls-5" d="M359.6,43.7c.8,0,1.5.3,2.1.9.5.6.8,1.3.8,2.1s-.2,1.4-.7,1.8c-.4.5-1,.9-1.7,1-2.4.6-5.1.8-8.2.8-4.9,0-8.6-1.5-11.2-4.4-2.5-2.9-3.8-6.6-3.8-11.1s1.2-8.2,3.6-11.1c2.4-2.9,5.8-4.3,10.2-4.3s7.8,1.2,10.2,3.7c2.3,2.5,3.5,5.8,3.5,9.8s-.5,2.3-1.4,3.2c-.9.9-2.1,1.3-3.3,1.3h-16.3c.5,2.5,1.5,4.2,3,5.2,1.4,1,4,1.5,7.8,1.5s2.8-.2,5.4-.5ZM358.2,31.9c-.4-2.4-1.3-4.1-2.4-5-1.2-.9-2.8-1.4-5-1.4s-3.8.5-5,1.6c-1.1,1-1.9,2.7-2.4,4.9h14.7Z"/>
          <path class="cls-5" d="M386.8,46.6c-2.5,2.4-6,3.6-10.5,3.6h-.9c-.4,0-1,0-1.6-.2-.6-.1-1.5-.3-2.4-.8-1-.4-1.9-.9-2.7-1.6-.8-.6-1.5-1.6-2.1-2.9-.6-1.3-.9-2.8-.9-4.5,0-2.6.8-4.8,2.5-6.5,1.7-1.7,4.1-2.5,7.3-2.5s8,1,11.2,3v-2.4c0-2.1-.8-3.7-2.3-4.8-1.6-1.1-4.4-1.6-8.6-1.6s-2.7.2-4.4.5c-.8,0-1.5-.3-2-.8-.6-.5-.8-1.2-.8-2,0-1.5.7-2.5,2.1-2.8,2-.6,4.7-.9,7.9-.9s8.2,1.1,10.7,3.2c2.5,2.1,3.8,5.2,3.8,9.1v15c0,.9-.3,1.6-1,2.2-.6.6-1.4,1-2.3,1s-1.6-.3-2.2-1c-.6-.6-1-1.3-1-2.2ZM386.8,39.6c-1.8-1.7-4.5-2.6-8-2.6s-4.4.3-5.3.9c-.9.6-1.3,1.5-1.3,2.7,0,2.4,2.2,3.6,6.6,3.6s3.4-.2,4.7-.7c1.3-.4,2.2-.9,2.7-1.3l.6-.7v-1.8Z"/>
          <path class="cls-5" d="M396.6,23.1c0-.9.3-1.7,1-2.3.6-.6,1.3-1,2.2-1,1.7,0,2.8,1.1,3.3,3.4,2.5-2.6,6-3.8,10.4-3.8s5,1.1,7.2,3.3c2.2,2.2,3.3,4.8,3.3,7.8v16.1c0,.9-.3,1.7-1,2.3-.6.6-1.4,1-2.3,1s-1.6-.3-2.2-1c-.6-.6-1-1.4-1-2.3v-15.3c0-2-.6-3.5-1.9-4.4-1.2-.9-2.6-1.3-4.2-1.3s-2.1.2-3.1.5c-1,.4-1.8.9-2.4,1.4-.6.5-1.2,1.1-1.6,1.6-.5.5-.8,1-1,1.4l-.3.5v15.6c0,.9-.3,1.7-1,2.3-.6.6-1.4,1-2.3,1s-1.6-.3-2.2-1c-.6-.6-1-1.4-1-2.3v-23.4Z"/>
          <path class="cls-5" d="M189.9,67.8h-3.1c-.3,0-.5,0-.6-.3-.2-.2-.3-.4-.3-.6s0-.5.3-.6c.2-.2.4-.3.6-.3h8c.2,0,.5,0,.6.3.2.2.3.4.3.6s0,.5-.3.6c-.2.2-.4.3-.6.3h-3.1v10.2c0,.3,0,.5-.3.7-.2.2-.4.3-.7.3s-.5,0-.7-.3c-.2-.2-.3-.4-.3-.7v-10.2Z"/>
          <path class="cls-5" d="M206.1,78.1c0,.3,0,.5-.3.7s-.4.3-.7.3-.5,0-.7-.3c-.2-.2-.3-.4-.3-.7v-4.6c0-.6-.2-1.1-.5-1.3-.4-.3-.8-.4-1.3-.4s-.6,0-.9.2c-.3.1-.5.3-.7.4-.2.2-.3.3-.5.5-.2.2-.3.3-.3.4v.2c0,0,0,4.7,0,4.7,0,.3,0,.5-.3.7s-.4.3-.7.3-.5,0-.7-.3c-.2-.2-.3-.4-.3-.7v-11.1c0-.3,0-.5.3-.7.2-.2.4-.3.7-.3s.5,0,.7.3.3.4.3.7v4.1c.8-.8,1.8-1.1,3.1-1.1s1.5.3,2.1,1c.6.6,1,1.4,1,2.3v4.8Z"/>
          <path class="cls-5" d="M215.1,77.2c.2,0,.4,0,.6.3.2.2.2.4.2.6s0,.4-.2.5c-.1.2-.3.3-.5.3-.7.2-1.5.2-2.4.2-1.5,0-2.6-.4-3.3-1.3-.8-.9-1.1-2-1.1-3.3s.4-2.4,1.1-3.3c.7-.9,1.7-1.3,3.1-1.3s2.3.4,3.1,1.1c.7.7,1,1.7,1,2.9s-.1.7-.4.9c-.3.3-.6.4-1,.4h-4.9c.2.7.5,1.3.9,1.5.4.3,1.2.5,2.3.5s.9,0,1.6-.2ZM214.7,73.7c-.1-.7-.4-1.2-.7-1.5-.4-.3-.9-.4-1.5-.4s-1.1.2-1.5.5c-.3.3-.6.8-.7,1.5h4.4Z"/>
          <path class="cls-5" d="M227.6,71.8c-.7,0-1.3.2-1.9.6-.6.4-.9,1.1-.9,2.1s.3,1.8.9,2.3c.6.4,1.2.7,1.9.7s1.2-.1,1.8-.3c.2,0,.3,0,.4,0,.2,0,.4,0,.6.2.2.2.2.4.2.6,0,.3-.1.6-.4.8-.7.4-1.7.6-2.9.6-.4,0-.7,0-1.1-.2-.4,0-.8-.2-1.1-.5-.4-.2-.8-.5-1.1-.8-.3-.3-.6-.8-.8-1.3-.2-.6-.3-1.2-.3-1.9s.1-1.4.4-2c.3-.6.7-1.1,1.1-1.4.4-.3.9-.6,1.4-.8.5-.2,1-.3,1.4-.3,1.2,0,2.2.2,2.9.6.3.2.4.4.4.8s0,.4-.2.6-.4.3-.6.3-.2,0-.4,0c-.5-.2-1.1-.3-1.8-.3Z"/>
          <path class="cls-5" d="M232.8,67c0-.3,0-.5.3-.7s.4-.3.7-.3.5,0,.7.3.3.4.3.7v11.1c0,.3,0,.5-.3.7s-.4.3-.7.3-.5,0-.7-.3-.3-.4-.3-.7v-11.1Z"/>
          <path class="cls-5" d="M243.9,77.2c.2,0,.4,0,.6.3.2.2.2.4.2.6s0,.4-.2.5c-.1.2-.3.3-.5.3-.7.2-1.5.2-2.4.2-1.5,0-2.6-.4-3.3-1.3-.8-.9-1.1-2-1.1-3.3s.4-2.4,1.1-3.3c.7-.9,1.7-1.3,3.1-1.3s2.3.4,3.1,1.1c.7.7,1,1.7,1,2.9s-.1.7-.4.9c-.3.3-.6.4-1,.4h-4.9c.2.7.5,1.3.9,1.5.4.3,1.2.5,2.3.5s.9,0,1.6-.2ZM243.5,73.7c-.1-.7-.4-1.2-.7-1.5-.4-.3-.9-.4-1.5-.4s-1.1.2-1.5.5c-.3.3-.6.8-.7,1.5h4.4Z"/>
          <path class="cls-5" d="M253.6,78.1c-.7.7-1.8,1.1-3.1,1.1h-.3c-.1,0-.3,0-.5,0-.2,0-.4-.1-.7-.2-.3-.1-.6-.3-.8-.5-.2-.2-.4-.5-.6-.9-.2-.4-.3-.8-.3-1.3,0-.8.2-1.4.8-1.9.5-.5,1.2-.8,2.2-.8s2.4.3,3.3.9v-.7c0-.6-.2-1.1-.7-1.4-.5-.3-1.3-.5-2.6-.5s-.8,0-1.3.1c-.2,0-.4,0-.6-.2-.2-.2-.2-.3-.2-.6,0-.5.2-.7.6-.8.6-.2,1.4-.3,2.4-.3s2.4.3,3.2.9c.8.6,1.1,1.6,1.1,2.7v4.5c0,.3,0,.5-.3.7-.2.2-.4.3-.7.3s-.5,0-.7-.3c-.2-.2-.3-.4-.3-.7ZM253.6,76c-.5-.5-1.3-.8-2.4-.8s-1.3,0-1.6.3c-.3.2-.4.4-.4.8,0,.7.6,1.1,2,1.1s1,0,1.4-.2c.4-.1.7-.3.8-.4l.2-.2v-.5Z"/>
          <path class="cls-5" d="M258.2,71.1c0-.3,0-.5.3-.7.2-.2.4-.3.7-.3.5,0,.8.3,1,1,.8-.8,1.8-1.1,3.1-1.1s1.5.3,2.1,1c.6.6,1,1.4,1,2.3v4.8c0,.3,0,.5-.3.7s-.4.3-.7.3-.5,0-.7-.3c-.2-.2-.3-.4-.3-.7v-4.6c0-.6-.2-1.1-.5-1.3-.4-.3-.8-.4-1.3-.4s-.6,0-.9.2c-.3.1-.5.3-.7.4-.2.2-.3.3-.5.5-.2.2-.3.3-.3.4v.2c0,0,0,4.7,0,4.7,0,.3,0,.5-.3.7s-.4.3-.7.3-.5,0-.7-.3c-.2-.2-.3-.4-.3-.7v-7Z"/>
          <path class="cls-5" d="M269,67c0-.3,0-.5.3-.7s.4-.3.7-.3.5,0,.7.3.3.4.3.7v11.1c0,.3,0,.5-.3.7s-.4.3-.7.3-.5,0-.7-.3-.3-.4-.3-.7v-11.1Z"/>
          <path class="cls-5" d="M273.8,67.8c0-.2,0-.5.3-.7.2-.2.4-.3.6-.3s.5,0,.7.3c.2.2.3.4.3.7s0,.5-.3.6c-.2.2-.4.3-.7.3s-.5,0-.6-.3c-.2-.2-.3-.4-.3-.6ZM273.8,71.1c0-.3,0-.5.3-.7s.4-.3.7-.3.5,0,.7.3.3.4.3.7v7c0,.3,0,.5-.3.7s-.4.3-.7.3-.5,0-.7-.3-.3-.4-.3-.7v-7Z"/>
          <path class="cls-5" d="M278.5,71.1c0-.3,0-.5.3-.7.2-.2.4-.3.7-.3.5,0,.8.3,1,1,.8-.8,1.8-1.1,3.1-1.1s1.5.3,2.1,1c.6.6,1,1.4,1,2.3v4.8c0,.3,0,.5-.3.7s-.4.3-.7.3-.5,0-.7-.3c-.2-.2-.3-.4-.3-.7v-4.6c0-.6-.2-1.1-.5-1.3-.4-.3-.8-.4-1.3-.4s-.6,0-.9.2c-.3.1-.5.3-.7.4-.2.2-.3.3-.5.5-.2.2-.3.3-.3.4v.2c0,0,0,4.7,0,4.7,0,.3,0,.5-.3.7s-.4.3-.7.3-.5,0-.7-.3c-.2-.2-.3-.4-.3-.7v-7Z"/>
          <path class="cls-5" d="M295.6,77.2c.2,0,.4,0,.6.3.2.2.2.4.2.6s0,.4-.2.5c-.1.2-.3.3-.5.3-.7.2-1.5.2-2.4.2-1.5,0-2.6-.4-3.3-1.3-.8-.9-1.1-2-1.1-3.3s.4-2.4,1.1-3.3c.7-.9,1.7-1.3,3.1-1.3s2.3.4,3.1,1.1c.7.7,1,1.7,1,2.9s-.1.7-.4.9c-.3.3-.6.4-1,.4h-4.9c.2.7.5,1.3.9,1.5.4.3,1.2.5,2.3.5s.9,0,1.6-.2ZM295.1,73.7c-.1-.7-.4-1.2-.7-1.5-.4-.3-.9-.4-1.5-.4s-1.1.2-1.5.5c-.3.3-.6.8-.7,1.5h4.4Z"/>
          <path class="cls-5" d="M305,70.2c.4.1.6.4.6.8s0,.4-.2.6c-.2.2-.4.3-.6.3-.8,0-1.3-.2-1.5-.2-.8,0-1.4,0-1.7.2-.4.2-.5.4-.5.7s.3.5.9.7c.6.2,1.2.4,1.9.6.7.2,1.3.5,1.9.9.6.4.9,1,.9,1.5,0,.9-.3,1.5-1,2-.7.5-1.6.7-2.8.7s-1.9-.2-2.7-.5c-.4-.2-.7-.5-.7-.9s0-.4.3-.6.4-.3.6-.3c.9.3,1.7.5,2.3.5,1.4,0,2-.3,2-.8s-.3-.5-.9-.7c-.6-.2-1.2-.4-1.9-.6-.7-.2-1.4-.5-1.9-.9-.6-.4-.9-1-.9-1.6s.4-1.5,1.1-2c.8-.5,1.6-.7,2.6-.7s1.5,0,2.2.3Z"/>
          <path class="cls-5" d="M314.2,70.2c.4.1.6.4.6.8s0,.4-.2.6c-.2.2-.4.3-.6.3-.8,0-1.3-.2-1.5-.2-.8,0-1.4,0-1.7.2-.4.2-.5.4-.5.7s.3.5.9.7c.6.2,1.2.4,1.9.6.7.2,1.3.5,1.9.9.6.4.9,1,.9,1.5,0,.9-.3,1.5-1,2-.7.5-1.6.7-2.8.7s-1.9-.2-2.7-.5c-.4-.2-.7-.5-.7-.9s0-.4.3-.6.4-.3.6-.3c.9.3,1.7.5,2.3.5,1.4,0,2-.3,2-.8s-.3-.5-.9-.7c-.6-.2-1.2-.4-1.9-.6-.7-.2-1.4-.5-1.9-.9-.6-.4-.9-1-.9-1.6s.4-1.5,1.1-2c.8-.5,1.6-.7,2.6-.7s1.5,0,2.2.3Z"/>
          <path class="cls-5" d="M322.1,81.6c.8,0,1.3-.4,1.6-1.1l.5-1.4c-.3-.8-.8-2.1-1.5-3.9-.7-1.7-1.1-3-1.4-3.7,0-.2,0-.4,0-.4,0-.3,0-.5.3-.7.2-.2.4-.3.7-.3.5,0,.8.2,1,.7l2,5.7,2.4-5.7c.2-.5.5-.7,1-.7s.5,0,.7.3c.2.2.3.5.3.7s0,.2,0,.4l-4.2,9.9c-.3.8-.7,1.3-1.1,1.6-.5.3-1,.4-1.6.4h-.4c-.2,0-.4,0-.6-.3-.2-.2-.3-.4-.3-.6s0-.5.3-.6c.2-.2.4-.3.6-.3Z"/>
          <path class="cls-5" d="M335.4,79.2c-.4,0-.7,0-1.1-.1-.4,0-.8-.2-1.2-.4-.4-.2-.8-.5-1.1-.8-.3-.3-.6-.8-.8-1.4-.2-.6-.3-1.2-.3-1.9,0-1.5.5-2.6,1.4-3.4.9-.8,1.9-1.1,3.1-1.1s2.1.4,3.1,1.1c.9.8,1.4,1.9,1.4,3.4s-.1,1.4-.3,1.9c-.2.6-.5,1-.8,1.4-.3.3-.7.6-1.1.8-.4.2-.8.4-1.2.4-.4,0-.7.1-1.1.1ZM335.4,77.4c1.7,0,2.5-.9,2.5-2.8s-.3-1.7-.8-2.1c-.5-.4-1.1-.6-1.8-.6s-1.3.2-1.8.6c-.5.4-.8,1.1-.8,2.1,0,1.9.8,2.8,2.5,2.8Z"/>
          <path class="cls-5" d="M350.2,78.1c0,.3,0,.5-.3.7-.2.2-.4.3-.7.3-.5,0-.8-.3-1-1-.8.8-1.8,1.1-3.1,1.1s-1.8-.3-2.3-.9c-.5-.6-.8-1.4-.8-2.4v-4.8c0-.3,0-.5.3-.7s.4-.3.7-.3.5,0,.7.3.3.4.3.7v4.6c0,.6.2,1,.5,1.3.4.3.8.4,1.3.4s.6,0,.9-.2c.3,0,.5-.2.7-.4.2-.2.3-.3.5-.5.1-.2.2-.3.3-.4v-.2c0,0,0-4.7,0-4.7,0-.3,0-.5.3-.7.2-.2.4-.3.7-.3s.5,0,.7.3c.2.2.3.4.3.7v7Z"/>
          <path class="cls-5" d="M363.7,78.1c-.7.8-1.6,1.1-2.9,1.1s-1.9-.4-2.7-1.1c-.8-.8-1.2-2-1.2-3.6s.4-2.6,1.2-3.3c.8-.8,1.8-1.1,2.9-1.1s2.1.4,2.7,1.1v-4.1c0-.3,0-.5.3-.7.2-.2.4-.3.7-.3s.5,0,.7.3c.2.2.3.4.3.7v11.1c0,.3,0,.5-.3.7-.2.2-.4.3-.7.3s-.5,0-.6-.3c-.2-.2-.3-.4-.3-.7ZM363.7,73.6s0-.1,0-.2c0,0-.1-.2-.2-.4-.1-.2-.3-.4-.4-.5-.2-.2-.4-.3-.7-.4-.3-.1-.6-.2-.9-.2s-.5,0-.7,0c-.2,0-.5.2-.8.3-.3.2-.5.4-.7.8-.2.4-.3.9-.3,1.4s0,1,.2,1.4c.1.4.3.7.4.9.2.2.4.3.7.4.3.1.5.2.6.2.1,0,.3,0,.5,0,.5,0,1-.2,1.4-.5.4-.3.6-.6.8-.9l.2-.4v-2.1Z"/>
          <path class="cls-5" d="M374.7,77.2c.2,0,.4,0,.6.3.2.2.2.4.2.6s0,.4-.2.5c-.1.2-.3.3-.5.3-.7.2-1.5.2-2.4.2-1.5,0-2.6-.4-3.3-1.3-.8-.9-1.1-2-1.1-3.3s.4-2.4,1.1-3.3c.7-.9,1.7-1.3,3.1-1.3s2.3.4,3.1,1.1c.7.7,1,1.7,1,2.9s-.1.7-.4.9c-.3.3-.6.4-1,.4h-4.9c.2.7.5,1.3.9,1.5.4.3,1.2.5,2.3.5s.9,0,1.6-.2ZM374.2,73.7c-.1-.7-.4-1.2-.7-1.5-.4-.3-.9-.4-1.5-.4s-1.1.2-1.5.5c-.3.3-.6.8-.7,1.5h4.4Z"/>
          <path class="cls-5" d="M384.1,70.2c.4.1.6.4.6.8s0,.4-.2.6c-.2.2-.4.3-.6.3-.8,0-1.3-.2-1.5-.2-.8,0-1.4,0-1.7.2-.4.2-.5.4-.5.7s.3.5.9.7c.6.2,1.2.4,1.9.6.7.2,1.3.5,1.9.9.6.4.9,1,.9,1.5,0,.9-.3,1.5-1,2-.7.5-1.6.7-2.8.7s-1.9-.2-2.7-.5c-.4-.2-.7-.5-.7-.9s0-.4.3-.6.4-.3.6-.3c.9.3,1.7.5,2.3.5,1.4,0,2-.3,2-.8s-.3-.5-.9-.7c-.6-.2-1.2-.4-1.9-.6-.7-.2-1.4-.5-1.9-.9-.6-.4-.9-1-.9-1.6s.4-1.5,1.1-2c.8-.5,1.6-.7,2.6-.7s1.5,0,2.2.3Z"/>
          <path class="cls-5" d="M394.1,77.2c.2,0,.4,0,.6.3.2.2.2.4.2.6s0,.4-.2.5c-.1.2-.3.3-.5.3-.7.2-1.5.2-2.4.2-1.5,0-2.6-.4-3.3-1.3-.8-.9-1.1-2-1.1-3.3s.4-2.4,1.1-3.3c.7-.9,1.7-1.3,3.1-1.3s2.3.4,3.1,1.1c.7.7,1,1.7,1,2.9s-.1.7-.4.9c-.3.3-.6.4-1,.4h-4.9c.2.7.5,1.3.9,1.5.4.3,1.2.5,2.3.5s.9,0,1.6-.2ZM393.7,73.7c-.1-.7-.4-1.2-.7-1.5-.4-.3-.9-.4-1.5-.4s-1.1.2-1.5.5c-.3.3-.6.8-.7,1.5h4.4Z"/>
          <path class="cls-5" d="M402.8,71.8c-.5,0-.9,0-1.3.2s-.7.3-.8.5c-.2.2-.4.4-.5.7-.1.2-.2.4-.2.5v.2s0,4.1,0,4.1c0,.3,0,.5-.3.7s-.4.3-.7.3-.5,0-.7-.3c-.2-.2-.3-.4-.3-.7v-7c0-.3,0-.5.3-.7.2-.2.4-.3.7-.3s.5.1.7.3c.2.2.3.5.4.8.5-.8,1.5-1.2,2.9-1.2h.2c.5,0,.7.3.7.9s0,.5-.2.6c-.1.2-.3.3-.5.3h-.4Z"/>
          <path class="cls-5" d="M408.7,79.1c-.8,0-1.3-.3-1.6-1.1l-2.7-6.6c0,0,0-.2,0-.4,0-.3,0-.5.3-.7.2-.2.4-.3.7-.3.5,0,.8.2.9.6l2.5,6.5,2.5-6.5c.2-.4.5-.6.9-.6s.5,0,.7.3c.2.2.3.4.3.7s0,.3,0,.4l-2.7,6.6c-.3.7-.8,1.1-1.6,1.1Z"/>
          <path class="cls-5" d="M421.2,77.2c.2,0,.4,0,.6.3.2.2.2.4.2.6s0,.4-.2.5c-.1.2-.3.3-.5.3-.7.2-1.5.2-2.4.2-1.5,0-2.6-.4-3.3-1.3-.8-.9-1.1-2-1.1-3.3s.4-2.4,1.1-3.3c.7-.9,1.7-1.3,3.1-1.3s2.3.4,3.1,1.1c.7.7,1,1.7,1,2.9s-.1.7-.4.9c-.3.3-.6.4-1,.4h-4.9c.2.7.5,1.3.9,1.5.4.3,1.2.5,2.3.5s.9,0,1.6-.2ZM420.8,73.7c-.1-.7-.4-1.2-.7-1.5-.4-.3-.9-.4-1.5-.4s-1.1.2-1.5.5c-.3.3-.6.8-.7,1.5h4.4Z"/>
        </g>
      </g>
    </g>
  </g>
</svg>