<?xml version="1.0" encoding="UTF-8"?>
<svg xmlns="http://www.w3.org/2000/svg" xmlns:xlink="http://www.w3.org/1999/xlink" version="1.1" viewBox="0 0 398.4 64.7">
  <defs>
    <style>
      .cls-1 {
        fill: none;
      }

      .cls-2 {
        fill: #51ade5;
      }

      .cls-3 {
        fill: #3871c1;
      }

      .cls-4 {
        fill: #80cc28;
      }

      .cls-5 {
        fill: #2678d1;
      }

      .cls-6 {
        clip-path: url(#clippath);
      }
    </style>
    <clipPath id="clippath">
      <rect class="cls-1" x="1" y="12.3" width="43.2" height="51.9"/>
    </clipPath>
  </defs>
  <!-- Generator: Adobe Illustrator 28.7.3, SVG Export Plug-In . SVG Version: 1.2.0 Build 164)  -->
  <g>
    <g id="_圖層_1" data-name="圖層_1">
      <g>
        <g>
          <g class="cls-6">
            <path class="cls-4" d="M29.5,62.5c-13.3,0-24.1-10.8-24.1-24.1S16.2,14.3,29.5,14.3s10.3,1.7,14.3,4.7c-4.5-4-10.5-6.4-17-6.4C12.6,12.7,1,24.2,1,38.4s11.6,25.8,25.8,25.8,12.5-2.4,17-6.4c-4,3-8.9,4.7-14.3,4.7"/>
          </g>
          <path class="cls-3" d="M51.6,40.6c-2.6,11.8-14.2,19.3-26,16.7-11.8-2.6-19.3-14.2-16.7-26,1-4.7,3.5-8.8,6.9-11.8-4.4,3.3-7.7,8.1-9,13.8-2.8,12.6,5.2,25.1,17.9,27.9,12.6,2.8,25.1-5.2,27.9-17.9,1.3-5.8.3-11.5-2.4-16.3,1.8,4.1,2.4,8.8,1.4,13.6"/>
          <path class="cls-4" d="M47.7,20.2v-.2c0-.2,0-.5,0-.7,0-.2,0-.5,0-.7,0-.1,0-.2,0-.4,0-.1,0-.2,0-.4,0-.2,0-.5,0-.7,0-.2,0-.5-.1-.7v-.2c0,0,0-.1,0-.2v-.4c-.1-.1-.1-.2-.2-.4h0c0,0,0-.2,0-.2v-.2c-.1-.2-.2-.5-.3-.7,0-.2-.2-.5-.2-.7v-.2c0,0-.1-.1-.1-.2,0-.1,0-.2-.1-.4,0-.1,0-.2-.1-.4,0-.1-.1-.2-.2-.3,0-.1-.1-.2-.2-.3,0-.1,0-.2-.2-.3-.1-.2-.2-.5-.3-.7-.5-.9-1-1.8-1.6-2.6-.6-.8-1.3-1.6-2-2.3l-.6-.5-.6-.5h-.1c0-.1-.2-.2-.2-.2l-.3-.2-.3-.2-.6-.4h-.2c0-.1-.1-.2-.2-.2-.2-.1-.4-.3-.6-.4-.4-.3-.9-.5-1.3-.7-.2-.1-.4-.2-.7-.3-.2-.1-.5-.2-.7-.3-.2,0-.5-.2-.7-.3h-.2c0,0-.1-.1-.2-.1-.1,0-.2,0-.3-.1-.5-.2-.9-.3-1.4-.4-.2,0-.5-.1-.7-.2-.1,0-.2,0-.3,0-.1,0-.2,0-.4,0-.2,0-.5,0-.7-.1-.1,0-.2,0-.3,0-.1,0-.2,0-.3,0-.5,0-.9,0-1.4-.1-.9,0-1.8,0-2.7,0-1.7.2-3.3.5-4.7,1-.7.3-1.4.5-2,.8-.6.3-1.2.6-1.7.9-.5.3-1,.6-1.4.9-.4.3-.8.6-1.1.9-.7.6-1.1,1-1.5,1.4-.2.2-.3.3-.4.4,0,0-.1.1-.1.1,0,0,0,0,.1-.1,0,0,.2-.2.4-.4.3-.3.8-.8,1.5-1.3.3-.3.7-.5,1.2-.8.4-.3.9-.6,1.4-.9.5-.3,1.1-.6,1.7-.8.6-.3,1.3-.5,2-.7,1.4-.4,3-.7,4.6-.8.8,0,1.7,0,2.5,0,.4,0,.9,0,1.3.2.1,0,.2,0,.3,0,.1,0,.2,0,.3,0,.2,0,.4,0,.7.1.1,0,.2,0,.3,0,.1,0,.2,0,.3,0,.2,0,.4.1.7.2.4.2.9.3,1.3.5.1,0,.2,0,.3.1,0,0,.1,0,.2,0h.2c.2.2.4.3.6.4.2.1.4.2.6.3.2.1.4.2.6.3.4.2.8.5,1.2.8.2.1.4.3.6.4,0,0,0,0,.1.1h.1c0,.1.3.3.3.3l.3.2.3.2.3.2h.1c0,.1.1.2.1.2l.5.5.5.5c.6.7,1.2,1.4,1.7,2.2.5.8,1,1.6,1.4,2.4,0,.2.2.4.3.6,0,.1,0,.2.1.3,0,.1,0,.2.1.3,0,.1,0,.2.1.3,0,.1,0,.2.1.3,0,.1,0,.2.1.3,0,0,0,.1,0,.2v.2c.1.2.2.4.2.6,0,.2,0,.4.1.6v.2s0,0,0,0h0c0,.2,0,.3,0,.4,0,.1,0,.2,0,.3,0,0,0,.1,0,.2v.2c0,.2,0,.4,0,.6,0,.2,0,.4,0,.6,0,.1,0,.2,0,.3,0,.1,0,.2,0,.3,0,.2,0,.4,0,.6,0,.2,0,.4,0,.6v.2c0,0,0,.1,0,.2,0,.1,0,.2,0,.3,0,.1,0,.2,0,.3v.2s0,.1,0,.2c0,.2,0,.4,0,.6,0,0,0,.2,0,.3,0,0,0,.2,0,.3,0,.2,0,.4-.1.6,0,.2,0,.4-.1.6,0,0,0,.2,0,.3,0,0,0,.2,0,.3,0,.2,0,.4-.2.5,0,.2-.1.3-.2.5,0,.2-.1.3-.2.5,0,.2-.1.3-.2.5-.5,1.3-1.1,2.4-1.8,3.3-.6.9-1.2,1.7-1.8,2.2,0,0-.1.1-.2.2,0,0-.1.1-.2.2,0,0,0,0-.1.1.4.3.6.5.7.6.7.6,1.1,1.2,1.4,1.8,0-.1.2-.2.3-.3,0,0,.1-.2.2-.2,0,0,.1-.2.2-.3.6-.7,1.3-1.6,2-2.7s1.3-2.4,1.8-3.9c0-.2.1-.4.2-.6,0-.2.1-.4.2-.6,0-.2.1-.4.2-.6,0-.2,0-.4.1-.6,0-.1,0-.2,0-.3,0-.1,0-.2,0-.3,0-.2,0-.4.1-.6,0-.2,0-.4,0-.7,0-.1,0-.2,0-.3,0-.1,0-.2,0-.3,0-.2,0-.5,0-.7,0,0,0-.1,0-.2v-.2c0-.1,0-.2,0-.3,0-.1,0-.2,0-.3s0-.1,0-.2"/>
          <path class="cls-2" d="M20.6,38.4s5.8.7,10.7-3.2c0,0-3,4.5-10.7,3.2ZM34.2,31.9c-11,9.8-20.4,3.7-20.4,3.7,0,0,1.2,6.4,5.6,6.4,0,0-2.8.7-5-1.5,1.3,5.2,4.5,8.6,7.6,10.7,0,0,2.2,0,3.1-.7,0,0-.8,1-1.7,1.6,2.2,1.3,4.2,2,5.2,2.3,1-.5,1.8-1.2,1.8-1.2-.4.8-1.2,1.4-1.2,1.4,8.2-2.3,12.6-14.8,12.6-14.8l-7.5-7.7"/>
          <path class="cls-4" d="M41.6,37.5s0-1.5-1.1-3.8c0,0,1.4,1.5,1.1,3.8ZM40.3,33s-2.7-2.6-5.7-1.3l7.2,7.5c.3-1.2.8-4.2-1.5-6.2"/>
        </g>
        <g>
          <path class="cls-4" d="M88.2,4.7c.8,0,1.6.3,2.3.8.7.5,1.1,1.2,1.3,2l6.9,24.2,5.3-25c.1-.5.4-1,.9-1.3.4-.4,1-.6,1.6-.6s1.2.2,1.7.7c.5.5.7,1.1.7,1.7l-5.8,26.8c-.2,1-.7,1.8-1.5,2.5-.8.7-1.7,1.1-2.7,1.1s-1.9-.3-2.7-.9c-.8-.6-1.3-1.3-1.6-2.2l-6.3-22.5-6.3,22.5c-.3.9-.8,1.7-1.6,2.2-.8.6-1.7.9-2.7.9s-1.9-.4-2.7-1.1c-.8-.7-1.3-1.5-1.6-2.5l-5.8-26.8c0-.7.2-1.2.7-1.7.5-.5,1-.7,1.7-.7s1.1.2,1.6.6c.4.4.7.8.8,1.3l5.3,25,6.9-24.2c.2-.8.7-1.4,1.3-2,.7-.5,1.4-.8,2.3-.8Z"/>
          <path class="cls-4" d="M126.1,32.8c.6,0,1.1.2,1.6.7.4.4.6,1,.6,1.6s-.2,1-.5,1.4c-.3.4-.8.7-1.3.7-1.8.4-3.8.6-6.1.6-3.7,0-6.5-1.1-8.4-3.3-1.9-2.1-2.8-4.9-2.8-8.3s.9-6.2,2.7-8.3c1.8-2.1,4.3-3.2,7.7-3.2s5.9.9,7.7,2.8c1.7,1.9,2.6,4.3,2.6,7.4s-.4,1.7-1.1,2.4c-.7.7-1.5,1-2.5,1h-12.3c.4,1.8,1.2,3.1,2.2,3.9,1.1.8,3,1.2,5.8,1.2s2.1-.1,4.1-.4ZM125,24c-.3-1.8-.9-3.1-1.8-3.8-.9-.7-2.1-1-3.7-1s-2.9.4-3.7,1.2c-.8.8-1.4,2-1.8,3.7h11.1Z"/>
          <path class="cls-5" d="M153.6,37.8c-1.3,0-2.7-.2-4-.5-1.4-.3-2.8-.8-4.3-1.6-1.5-.8-2.9-1.8-4-3.1-1.2-1.2-2.1-2.9-2.9-5-.8-2.1-1.2-4.5-1.2-7.2s.5-5.4,1.5-7.5c1-2.1,2.3-3.8,3.9-5,1.6-1.2,3.4-2.1,5.2-2.7,1.8-.6,3.7-.8,5.7-.8,3,0,5.9.7,8.5,2.2.7.5,1.1,1.1,1.1,1.9s-.2,1.1-.6,1.5c-.4.4-.9.7-1.6.7s-.7,0-1-.2c-2.1-1-4.3-1.5-6.4-1.5-7.6,0-11.4,3.9-11.4,11.7s.3,4,.8,5.5c.5,1.6,1.2,2.8,2,3.7.8.9,1.7,1.6,2.8,2.1,1.1.6,2.1.9,3,1.1.9.1,1.8.2,2.9.2,2.2,0,4.3-.5,6.4-1.4.3-.1.6-.2,1-.2.6,0,1.1.2,1.6.6.4.4.6.9.6,1.6s-.4,1.4-1.1,1.9c-2.6,1.5-5.4,2.2-8.4,2.2Z"/>
          <path class="cls-5" d="M164.9,7.1c0-.7.2-1.2.7-1.7.5-.5,1-.7,1.7-.7s1.2.2,1.7.7.7,1.1.7,1.7v27.9c0,.7-.2,1.2-.7,1.7s-1.1.7-1.7.7-1.2-.2-1.7-.7c-.5-.5-.7-1.1-.7-1.7V7.1Z"/>
          <path class="cls-5" d="M188.7,32.8c.6,0,1.1.2,1.6.7.4.4.6,1,.6,1.6s-.2,1-.5,1.4c-.3.4-.8.6-1.3.7-1.8.4-3.9.6-6.1.6-3.7,0-6.5-1.1-8.4-3.3-1.9-2.1-2.8-4.9-2.8-8.3s.9-6.1,2.7-8.3c1.8-2.1,4.3-3.2,7.7-3.2s5.9.9,7.7,2.8c1.7,1.9,2.6,4.3,2.6,7.4s-.3,1.7-1,2.4c-.7.7-1.5,1-2.5,1h-12.3c.4,1.8,1.1,3.1,2.2,3.9,1.1.8,3,1.2,5.8,1.2s2.1-.1,4.1-.4ZM187.6,24c-.3-1.8-.9-3.1-1.8-3.8-.9-.7-2.1-1.1-3.7-1.1s-2.9.4-3.7,1.2c-.8.8-1.4,2-1.8,3.7h11Z"/>
          <path class="cls-5" d="M209.1,35.1c-1.8,1.8-4.5,2.7-7.9,2.7h-.7c-.3,0-.7,0-1.2-.1-.5,0-1.1-.3-1.8-.6-.7-.3-1.4-.7-2-1.2-.6-.5-1.1-1.2-1.6-2.2-.4-1-.7-2.1-.7-3.4,0-2,.6-3.6,1.9-4.9,1.3-1.3,3.1-1.9,5.5-1.9s6,.8,8.4,2.3v-1.8c0-1.6-.6-2.8-1.7-3.6-1.2-.8-3.3-1.2-6.4-1.2s-2,.1-3.3.3c-.6,0-1.1-.2-1.5-.6-.4-.4-.6-.9-.6-1.5,0-1.1.5-1.9,1.6-2.1,1.5-.4,3.5-.7,6-.7s6.1.8,8,2.4c1.9,1.6,2.8,3.9,2.8,6.8v11.2c0,.7-.2,1.2-.7,1.7-.5.5-1.1.7-1.7.7s-1.2-.2-1.7-.7c-.5-.4-.7-1-.7-1.7ZM209.1,29.8c-1.4-1.3-3.4-2-6-2s-3.3.2-3.9.7c-.7.5-1,1.1-1,2,0,1.8,1.6,2.7,4.9,2.7s2.5-.2,3.5-.6c1-.3,1.7-.7,2-1l.4-.6v-1.3Z"/>
          <path class="cls-5" d="M216.5,17.4c0-.7.2-1.2.7-1.7.4-.5,1-.7,1.7-.7,1.3,0,2.1.8,2.4,2.5,1.9-1.9,4.5-2.9,7.8-2.9s3.8.8,5.4,2.4c1.6,1.6,2.4,3.6,2.4,5.8v12.1c0,.7-.2,1.2-.7,1.7-.5.5-1.1.7-1.7.7s-1.2-.2-1.7-.7c-.5-.5-.7-1.1-.7-1.7v-11.5c0-1.5-.5-2.6-1.4-3.3-.9-.7-2-1-3.2-1s-1.6.1-2.3.4c-.7.3-1.3.6-1.8,1.1-.5.4-.9.8-1.2,1.2-.4.4-.6.8-.8,1.1l-.2.4v11.7c0,.7-.2,1.2-.7,1.7-.5.5-1.1.7-1.7.7s-1.2-.2-1.7-.7c-.5-.5-.7-1.1-.7-1.7v-17.6Z"/>
          <path class="cls-5" d="M61.3,51h-2.3c-.2,0-.3,0-.5-.2-.1-.1-.2-.3-.2-.5s0-.3.2-.5c.1-.1.3-.2.5-.2h6c.2,0,.3,0,.5.2.1.1.2.3.2.5s0,.3-.2.5c-.1.1-.3.2-.5.2h-2.3v7.7c0,.2,0,.4-.2.5-.2.1-.3.2-.5.2s-.4,0-.5-.2c-.1-.1-.2-.3-.2-.5v-7.7Z"/>
          <path class="cls-5" d="M73.5,58.7c0,.2,0,.4-.2.5s-.3.2-.5.2-.4,0-.5-.2c-.1-.1-.2-.3-.2-.5v-3.4c0-.5-.1-.8-.4-1-.3-.2-.6-.3-.9-.3s-.5,0-.7.1c-.2,0-.4.2-.5.3-.1.1-.3.2-.4.4-.1.1-.2.2-.2.3h0v3.6c0,.2,0,.4-.2.5s-.3.2-.5.2-.4,0-.5-.2c-.2-.1-.2-.3-.2-.5v-8.3c0-.2,0-.4.2-.5.1-.1.3-.2.5-.2s.4,0,.5.2.2.3.2.5v3.1c.6-.6,1.3-.9,2.3-.9s1.1.2,1.6.7c.5.5.7,1.1.7,1.7v3.6Z"/>
          <path class="cls-5" d="M80.2,58c.2,0,.3,0,.5.2.1.1.2.3.2.5s0,.3-.1.4c-.1.1-.2.2-.4.2-.5.1-1.2.2-1.8.2-1.1,0-1.9-.3-2.5-1-.6-.6-.8-1.5-.8-2.5s.3-1.8.8-2.5c.5-.6,1.3-1,2.3-1s1.8.3,2.3.8c.5.6.8,1.3.8,2.2s-.1.5-.3.7c-.2.2-.5.3-.7.3h-3.7c.1.6.3.9.7,1.2.3.2.9.4,1.7.4s.6,0,1.2-.1ZM79.9,55.4c0-.5-.3-.9-.5-1.1-.3-.2-.6-.3-1.1-.3s-.9.1-1.1.4c-.3.2-.4.6-.5,1.1h3.3Z"/>
          <path class="cls-5" d="M89.6,54c-.5,0-1,.2-1.4.5-.4.3-.7.8-.7,1.5s.2,1.4.7,1.7c.4.3.9.5,1.4.5s.9,0,1.3-.2c.1,0,.2,0,.3,0,.2,0,.3,0,.5.2.1.1.2.3.2.5,0,.3-.1.5-.3.6-.5.3-1.2.4-2.2.4-.3,0-.5,0-.8-.1-.3,0-.6-.2-.9-.4-.3-.2-.6-.4-.8-.6-.2-.2-.4-.6-.6-1-.2-.4-.2-.9-.2-1.4s.1-1.1.3-1.5c.2-.5.5-.8.8-1.1.3-.3.7-.4,1-.6.4-.1.7-.2,1.1-.2.9,0,1.6.1,2.2.4.2.1.3.3.3.6s0,.3-.2.5-.3.2-.5.2-.2,0-.3,0c-.4-.2-.8-.2-1.3-.2Z"/>
          <path class="cls-5" d="M93.5,50.4c0-.2,0-.4.2-.5s.3-.2.5-.2.4,0,.5.2.2.3.2.5v8.3c0,.2,0,.4-.2.5s-.3.2-.5.2-.4,0-.5-.2-.2-.3-.2-.5v-8.3Z"/>
          <path class="cls-5" d="M101.9,58c.2,0,.3,0,.5.2.1.1.2.3.2.5s0,.3-.1.4c-.1.1-.2.2-.4.2-.5.1-1.2.2-1.8.2-1.1,0-1.9-.3-2.5-1-.6-.6-.8-1.5-.8-2.5s.3-1.8.8-2.5c.5-.6,1.3-1,2.3-1s1.8.3,2.3.8c.5.6.8,1.3.8,2.2s-.1.5-.3.7c-.2.2-.5.3-.7.3h-3.7c.1.6.3.9.7,1.2.3.2.9.4,1.7.4s.6,0,1.2-.1ZM101.5,55.4c0-.5-.3-.9-.5-1.1-.3-.2-.6-.3-1.1-.3s-.9.1-1.1.4c-.3.2-.4.6-.5,1.1h3.3Z"/>
          <path class="cls-5" d="M109.2,58.7c-.6.5-1.3.8-2.4.8h-.2c0,0-.2,0-.3,0-.1,0-.3,0-.6-.2-.2,0-.4-.2-.6-.4-.2-.1-.3-.4-.5-.7-.1-.3-.2-.6-.2-1,0-.6.2-1.1.6-1.5.4-.4.9-.6,1.6-.6s1.8.2,2.5.7v-.6c0-.5-.2-.8-.5-1.1-.4-.2-1-.4-1.9-.4s-.6,0-1,0c-.2,0-.3,0-.4-.2-.1-.1-.2-.3-.2-.4,0-.3.2-.6.5-.6.5-.1,1-.2,1.8-.2s1.8.2,2.4.7c.6.5.8,1.2.8,2v3.4c0,.2,0,.4-.2.5-.1.1-.3.2-.5.2s-.4,0-.5-.2c-.1-.1-.2-.3-.2-.5ZM109.2,57.1c-.4-.4-1-.6-1.8-.6s-1,0-1.2.2c-.2.1-.3.3-.3.6,0,.5.5.8,1.5.8s.8,0,1.1-.2c.3,0,.5-.2.6-.3v-.2c.1,0,.1-.4.1-.4Z"/>
          <path class="cls-5" d="M112.6,53.4c0-.2,0-.4.2-.5.1-.1.3-.2.5-.2.4,0,.6.3.7.8.6-.6,1.3-.9,2.3-.9s1.1.2,1.6.7c.5.5.7,1.1.7,1.7v3.6c0,.2,0,.4-.2.5s-.3.2-.5.2-.4,0-.5-.2c-.1-.1-.2-.3-.2-.5v-3.4c0-.5-.1-.8-.4-1-.3-.2-.6-.3-.9-.3s-.5,0-.7.1c-.2,0-.4.2-.5.3-.1.1-.3.2-.4.4-.1.1-.2.2-.2.3h0v3.6c0,.2,0,.4-.2.5s-.3.2-.5.2-.4,0-.5-.2c-.2-.1-.2-.3-.2-.5v-5.2Z"/>
          <path class="cls-5" d="M120.7,50.4c0-.2,0-.4.2-.5s.3-.2.5-.2.4,0,.5.2.2.3.2.5v8.3c0,.2,0,.4-.2.5s-.3.2-.5.2-.4,0-.5-.2-.2-.3-.2-.5v-8.3Z"/>
          <path class="cls-5" d="M124.3,50.9c0-.2,0-.4.2-.5.1-.1.3-.2.5-.2s.4,0,.5.2c.1.2.2.3.2.5s0,.3-.2.5c-.1.1-.3.2-.5.2s-.3,0-.5-.2c-.1-.1-.2-.3-.2-.5ZM124.3,53.4c0-.2,0-.4.2-.5s.3-.2.5-.2.4,0,.5.2.2.3.2.5v5.2c0,.2,0,.4-.2.5s-.3.2-.5.2-.4,0-.5-.2-.2-.3-.2-.5v-5.2Z"/>
          <path class="cls-5" d="M127.8,53.4c0-.2,0-.4.2-.5.1-.1.3-.2.5-.2.4,0,.6.3.7.8.6-.6,1.3-.9,2.3-.9s1.1.2,1.6.7c.5.5.7,1.1.7,1.7v3.6c0,.2,0,.4-.2.5s-.3.2-.5.2-.4,0-.5-.2c-.1-.1-.2-.3-.2-.5v-3.4c0-.5-.1-.8-.4-1-.3-.2-.6-.3-.9-.3s-.5,0-.7.1c-.2,0-.4.2-.5.3-.1.1-.3.2-.4.4-.1.1-.2.2-.2.3h0v3.6c0,.2,0,.4-.2.5s-.3.2-.5.2-.4,0-.5-.2c-.2-.1-.2-.3-.2-.5v-5.2Z"/>
          <path class="cls-5" d="M140.6,58c.2,0,.3,0,.5.2.1.1.2.3.2.5s0,.3-.1.4c-.1.1-.2.2-.4.2-.5.1-1.2.2-1.8.2-1.1,0-1.9-.3-2.5-1-.6-.6-.8-1.5-.8-2.5s.3-1.8.8-2.5c.5-.6,1.3-1,2.3-1s1.8.3,2.3.8c.5.6.8,1.3.8,2.2s-.1.5-.3.7c-.2.2-.5.3-.7.3h-3.7c.1.6.3.9.7,1.2.3.2.9.4,1.7.4s.6,0,1.2-.1ZM140.3,55.4c0-.5-.3-.9-.5-1.1-.3-.2-.6-.3-1.1-.3s-.9.1-1.1.4c-.3.2-.4.6-.5,1.1h3.3Z"/>
          <path class="cls-5" d="M147.7,52.8c.3,0,.5.3.5.6s0,.3-.2.5c-.1.1-.3.2-.5.2-.6,0-1-.1-1.1-.1-.6,0-1,0-1.3.2-.3.1-.4.3-.4.5s.2.3.7.5c.4.2.9.3,1.5.5.5.2,1,.4,1.5.7.4.3.7.7.7,1.1,0,.7-.3,1.2-.7,1.5-.5.3-1.2.5-2.1.5s-1.4-.1-2-.4c-.3-.2-.5-.4-.5-.7s0-.3.2-.5.3-.2.5-.2c.7.2,1.2.4,1.8.4,1,0,1.5-.2,1.5-.6s-.2-.4-.7-.6c-.4-.2-.9-.3-1.5-.5-.5-.1-1-.4-1.5-.7-.4-.3-.7-.7-.7-1.2s.3-1.2.9-1.5c.6-.3,1.2-.5,2-.5s1.1,0,1.7.2Z"/>
          <path class="cls-5" d="M154.6,52.8c.3,0,.5.3.5.6s0,.3-.2.5c-.1.1-.3.2-.5.2-.6,0-1-.1-1.1-.1-.6,0-1,0-1.3.2-.3.1-.4.3-.4.5s.2.3.7.5c.4.2.9.3,1.5.5.5.2,1,.4,1.5.7.4.3.7.7.7,1.1,0,.7-.3,1.2-.7,1.5-.5.3-1.2.5-2.1.5s-1.4-.1-2-.4c-.3-.2-.5-.4-.5-.7s0-.3.2-.5.3-.2.5-.2c.7.2,1.2.4,1.8.4,1,0,1.5-.2,1.5-.6s-.2-.4-.7-.6c-.4-.2-.9-.3-1.5-.5-.5-.1-1-.4-1.5-.7-.4-.3-.7-.7-.7-1.2s.3-1.2.9-1.5c.6-.3,1.2-.5,2-.5s1.1,0,1.7.2Z"/>
          <path class="cls-5" d="M160.6,61.3c.6,0,1-.3,1.2-.8l.4-1.1c-.2-.6-.6-1.6-1.1-2.9-.5-1.3-.9-2.2-1.1-2.8,0-.2,0-.3,0-.3,0-.2,0-.4.2-.5.1-.1.3-.2.5-.2.4,0,.6.2.7.5l1.5,4.3,1.8-4.3c.1-.3.4-.5.7-.5s.4,0,.5.2c.1.2.2.3.2.5s0,.1,0,.3l-3.1,7.4c-.3.6-.5,1-.9,1.2-.3.2-.7.3-1.2.3h-.3c-.2,0-.3,0-.5-.2-.1-.1-.2-.3-.2-.5s0-.3.2-.5c.1-.1.3-.2.5-.2Z"/>
          <path class="cls-5" d="M170.5,59.5c-.3,0-.6,0-.8,0-.3,0-.6-.2-.9-.3-.3-.2-.6-.4-.8-.6-.2-.3-.4-.6-.6-1-.2-.4-.2-.9-.2-1.4,0-1.1.3-1.9,1-2.5.7-.6,1.4-.9,2.3-.9s1.6.3,2.3.9c.7.6,1,1.4,1,2.5s0,1-.2,1.4c-.2.4-.4.8-.6,1-.2.3-.5.5-.8.6-.3.2-.6.3-.9.3-.3,0-.6,0-.8,0ZM170.5,58.2c1.3,0,1.9-.7,1.9-2.1s-.2-1.3-.6-1.6c-.4-.3-.8-.5-1.3-.5s-.9.2-1.3.5c-.4.3-.6.9-.6,1.6,0,1.4.6,2.1,1.9,2.1Z"/>
          <path class="cls-5" d="M181.6,58.7c0,.2,0,.4-.2.5-.1.1-.3.2-.5.2-.4,0-.6-.3-.7-.8-.6.6-1.3.9-2.3.9s-1.3-.2-1.7-.7c-.4-.5-.6-1.1-.6-1.8v-3.6c0-.2,0-.4.2-.5s.3-.2.5-.2.4,0,.5.2.2.3.2.5v3.4c0,.5.1.8.4,1,.3.2.6.3.9.3s.5,0,.7-.1c.2,0,.4-.2.5-.3.1-.1.2-.2.4-.4.1-.1.2-.2.2-.3h0v-3.6c0-.2,0-.4.2-.5.1-.1.3-.2.5-.2s.4,0,.5.2c.1.1.2.3.2.5v5.2Z"/>
          <path class="cls-5" d="M191.8,58.7c-.5.6-1.2.8-2.2.8s-1.5-.3-2-.8c-.6-.6-.9-1.5-.9-2.7s.3-1.9.9-2.5c.6-.6,1.3-.8,2.2-.8s1.6.3,2,.8v-3.1c0-.2,0-.4.2-.5.1-.1.3-.2.5-.2s.4,0,.5.2c.1.1.2.3.2.5v8.3c0,.2,0,.4-.2.5-.2.1-.3.2-.5.2s-.4,0-.5-.2c-.1-.1-.2-.3-.2-.6ZM191.7,55.3s0,0,0-.2c0,0,0-.2-.2-.3,0-.1-.2-.3-.3-.4-.1-.1-.3-.2-.5-.3-.2,0-.4-.1-.7-.1s-.3,0-.5,0c-.2,0-.4.1-.6.2-.2.1-.4.3-.5.6-.1.3-.2.7-.2,1.1s0,.8.2,1.1c0,.3.2.5.3.7.1.1.3.3.5.3.2,0,.4.1.5.1.1,0,.2,0,.4,0,.4,0,.7-.1,1-.3.3-.2.5-.4.6-.7l.2-.3v-1.5Z"/>
          <path class="cls-5" d="M200,58c.2,0,.3,0,.5.2.1.1.2.3.2.5s0,.3-.1.4c-.1.1-.2.2-.4.2-.5.1-1.2.2-1.8.2-1.1,0-1.9-.3-2.5-1-.6-.6-.8-1.5-.8-2.5s.3-1.8.8-2.5c.5-.6,1.3-1,2.3-1s1.8.3,2.3.8c.5.6.8,1.3.8,2.2s-.1.5-.3.7c-.2.2-.5.3-.7.3h-3.7c.1.6.3.9.7,1.2.3.2.9.4,1.7.4s.6,0,1.2-.1ZM199.7,55.4c0-.5-.3-.9-.5-1.1-.3-.2-.6-.3-1.1-.3s-.9.1-1.1.4c-.3.2-.4.6-.5,1.1h3.3Z"/>
          <path class="cls-5" d="M207.1,52.8c.3,0,.5.3.5.6s0,.3-.2.5c-.1.1-.3.2-.5.2-.6,0-1-.1-1.1-.1-.6,0-1,0-1.3.2-.3.1-.4.3-.4.5s.2.3.7.5c.4.2.9.3,1.5.5.5.2,1,.4,1.5.7.4.3.7.7.7,1.1,0,.7-.3,1.2-.7,1.5-.5.3-1.2.5-2.1.5s-1.4-.1-2-.4c-.3-.2-.5-.4-.5-.7s0-.3.2-.5.3-.2.5-.2c.7.2,1.2.4,1.8.4,1,0,1.5-.2,1.5-.6s-.2-.4-.7-.6c-.4-.2-.9-.3-1.5-.5-.5-.1-1-.4-1.5-.7-.4-.3-.7-.7-.7-1.2s.3-1.2.9-1.5c.6-.3,1.2-.5,2-.5s1.1,0,1.7.2Z"/>
          <path class="cls-5" d="M214.6,58c.2,0,.3,0,.5.2.1.1.2.3.2.5s0,.3-.1.4c-.1.1-.2.2-.4.2-.5.1-1.2.2-1.8.2-1.1,0-1.9-.3-2.5-1-.6-.6-.8-1.5-.8-2.5s.3-1.8.8-2.5c.5-.6,1.3-1,2.3-1s1.8.3,2.3.8c.5.6.8,1.3.8,2.2s-.1.5-.3.7c-.2.2-.5.3-.7.3h-3.7c.1.6.3.9.7,1.2.3.2.9.4,1.7.4s.6,0,1.2-.1ZM214.3,55.4c0-.5-.3-.9-.5-1.1-.3-.2-.6-.3-1.1-.3s-.9.1-1.1.4c-.3.2-.4.6-.5,1.1h3.3Z"/>
          <path class="cls-5" d="M221.1,54c-.4,0-.7,0-1,.2s-.5.2-.6.4c-.2.2-.3.3-.3.5,0,.2-.1.3-.1.4v.2s0,3.1,0,3.1c0,.2,0,.4-.2.5s-.3.2-.5.2-.4,0-.5-.2c-.2-.1-.2-.3-.2-.5v-5.2c0-.2,0-.4.2-.5.1-.1.3-.2.5-.2s.4,0,.5.2c.1.2.2.4.3.6.4-.6,1.1-.9,2.1-.9h.2c.4,0,.6.2.6.7s0,.3-.1.5c0,.1-.2.2-.4.2h-.3Z"/>
          <path class="cls-5" d="M225.5,59.4c-.6,0-1-.3-1.2-.8l-2-4.9c0,0,0-.2,0-.3,0-.2,0-.4.2-.5.1-.1.3-.2.5-.2.3,0,.6.2.7.5l1.9,4.9,1.9-4.9c.1-.3.3-.5.7-.5s.4,0,.5.2c.1.1.2.3.2.5s0,.2,0,.3l-2,4.9c-.2.5-.6.8-1.2.8Z"/>
          <path class="cls-5" d="M234.9,58c.2,0,.3,0,.5.2.1.1.2.3.2.5s0,.3-.1.4c-.1.1-.2.2-.4.2-.5.1-1.2.2-1.8.2-1.1,0-1.9-.3-2.5-1-.6-.6-.8-1.5-.8-2.5s.3-1.8.8-2.5c.5-.6,1.3-1,2.3-1s1.8.3,2.3.8c.5.6.8,1.3.8,2.2s-.1.5-.3.7c-.2.2-.5.3-.7.3h-3.7c.1.6.3.9.7,1.2.3.2.9.4,1.7.4s.6,0,1.2-.1ZM234.6,55.4c0-.5-.3-.9-.5-1.1-.3-.2-.6-.3-1.1-.3s-.9.1-1.1.4c-.3.2-.4.6-.5,1.1h3.3Z"/>
        </g>
      </g>
    </g>
  </g>
</svg>