<?xml version="1.0" encoding="UTF-8"?>
<svg xmlns="http://www.w3.org/2000/svg" version="1.1" viewBox="0 0 937.3 426.2">
  <defs>
    <style>
      .cls-1 {
        fill: #73c3ff;
      }

      .cls-2 {
        fill: #fff;
      }
    </style>
  </defs>
  <!-- Generator: Adobe Illustrator 28.7.3, SVG Export Plug-In . SVG Version: 1.2.0 Build 164)  -->
  <g>
    <g id="_圖層_1" data-name="圖層_1">
      <g>
        <g>
          <path class="cls-2" d="M423.2,213.3c3.3-.6,6.4,1.6,8.9,3.8,1.3,1.2,2.6,2.5,3.5,4.1s1.4,3.4,1.1,5.2c-.2,1-.6,1.9-1.1,2.7-.6,1.1-1.4,2.2-2.6,2.6-1.2.4-2.5,0-3.5-.7-1-.7-1.8-1.8-2.4-2.8-2.5-4.1-3.7-8.9-3.8-14.9Z"/>
          <path d="M431.9,232.8c-1,0-2.1-.3-3-1-1.2-.9-2.1-2.1-2.7-3.1-2.6-4.3-3.9-9.3-4-15.4,0-.5.3-.9.8-.9,3-.5,6.1.8,9.7,4.1,1.3,1.2,2.7,2.6,3.7,4.3,1.1,1.9,1.5,4,1.2,5.8-.2.9-.5,1.9-1.2,3-.6,1-1.6,2.5-3.2,3.1-.4.1-.9.2-1.4.2ZM424.1,214.1c.2,5.3,1.4,9.8,3.7,13.6.5.9,1.2,1.9,2.1,2.6.9.6,1.9.8,2.7.6.8-.3,1.4-1,2.1-2.2.5-.9.8-1.7,1-2.4.3-1.4,0-3-1-4.6-.9-1.5-2.2-2.8-3.3-3.9-2.7-2.5-5.1-3.7-7.2-3.7s0,0-.1,0Z"/>
        </g>
        <g>
          <path class="cls-2" d="M419.4,289.7c14.6,34,43.1,100.5,70,99.1,35-1.9,29.4-27,63.7-110-12.8-1.6-36.1-6.8-45.7-15.3-6.2,22.1-10.1,46.5-21.5,66.4-17.5-20.9-30.3-36.7-41-55.9-3.7-6.5-21,10.9-25.5,15.7Z"/>
          <path d="M488.6,389.7c-27.1,0-54.8-64.4-69.8-99.2l-.2-.4c-.1-.3,0-.7.2-1,2.8-3,17.4-18.2,24.1-17.4,1.2.1,2.2.8,2.8,1.9,10.5,18.7,23.3,34.6,40.1,54.7,8-14.5,12.2-31.5,16.3-47.9,1.4-5.7,2.9-11.6,4.4-17.2,0-.3.3-.6.6-.6.3,0,.6,0,.9.2,9.8,8.7,33.8,13.7,45.2,15.1.3,0,.5.2.7.5.1.3.2.6,0,.8-10.1,24.3-16.6,43.5-21.9,58.9-12.5,36.6-17.2,50.3-42.6,51.7-.3,0-.6,0-.9,0ZM420.5,289.9c13.8,32,42.2,98,68,98s.5,0,.8,0c24.1-1.3,28.4-13.7,40.9-50.4,5.2-15.2,11.7-34.1,21.5-57.9-11.5-1.6-33.5-6.4-43.9-14.5-1.4,5.2-2.8,10.5-4,15.8-4.2,17-8.6,34.5-17.1,49.5-.2.3-.4.4-.7.5-.3,0-.6,0-.8-.3-17.3-20.7-30.4-36.8-41.1-56-.3-.6-.8-.9-1.4-.9-4.8-.6-16.3,10.2-22.1,16.4Z"/>
        </g>
        <g>
          <path class="cls-2" d="M394.9,242.2c1.6,9.1,3.4,18.5,8.1,26.5,1.1,1.9,2.4,3.8,3.3,5.8,1.4,3.1,1.8,6.6,2.7,9.9,1,3.6,2.6,7,5.5,10.6,10.9-6.8,22.3-12.7,34.1-17.7.9-3-.6-6.2-2.5-8.7-1.9-2.5-4.2-4.8-5.3-7.7-2.7-7.1,2.5-16.4,2-24-.1-2,.6-2.4-.6-4-1.3-1.8-3.5-2.7-5.7-3.2-6.6-1.5-13.4.4-19.8,2.7-6,2.1-11.9,4.5-21.8,9.7Z"/>
          <path d="M414.5,296c-.3,0-.5-.1-.7-.3-2.8-3.4-4.6-6.9-5.7-11-.3-1.1-.6-2.3-.8-3.4-.5-2.2-.9-4.4-1.8-6.4-.6-1.4-1.4-2.6-2.2-4-.4-.6-.7-1.1-1.1-1.7-4.9-8.2-6.6-18.1-8.2-26.8,0-.4.1-.8.5-1,9.8-5.2,15.7-7.6,22-9.8,6.6-2.3,13.6-4.2,20.3-2.7,2.9.7,5,1.9,6.2,3.6,1,1.4.9,2.2.8,3.1,0,.4,0,.8,0,1.4.2,3.3-.6,6.8-1.4,10.3-1.1,4.7-2.2,9.5-.7,13.4.8,2,2.1,3.7,3.6,5.4.5.7,1.1,1.3,1.6,2,1.8,2.4,3.7,6,2.6,9.5,0,.3-.3.5-.5.6-11.7,5-23.1,10.9-34,17.6-.2,0-.3.1-.5.1ZM396,242.7c1.6,8.8,3.3,17.8,7.8,25.5.3.6.7,1.1,1,1.7.8,1.3,1.7,2.7,2.4,4.2,1,2.2,1.5,4.5,1.9,6.7.2,1.1.5,2.2.8,3.3,1,3.6,2.5,6.7,4.8,9.7,10.6-6.5,21.7-12.3,33.1-17.2.6-2.7-1-5.5-2.4-7.4-.5-.7-1-1.3-1.6-2-1.5-1.8-3-3.7-3.9-5.9-1.7-4.4-.5-9.5.6-14.5.8-3.5,1.5-6.8,1.4-9.7,0-.7,0-1.3,0-1.7,0-.7.1-1-.5-1.8-1-1.4-2.7-2.3-5.1-2.9-6.3-1.4-13,.4-19.3,2.6-6.1,2.1-11.7,4.4-21.1,9.3Z"/>
        </g>
        <g>
          <g>
            <path class="cls-2" d="M837.7,108.7c-6.1-5.3-1.9-7.4-25.7-.4-49,14.4-372,113-421,127.5-3.4,1-6.9,2.1-9.4,4.3-2.5,2.2-1.9,5.4.3,7.5,2.4,2.4,5.3,2.1,9.1,1,54.2-15.1,382.4-114.5,436.4-130.2,4.8-1.4,10.7-4.2,10.3-9.7Z"/>
            <path d="M386.3,250.4c-1.8,0-3.6-.5-5.2-2.1-1.4-1.4-2.2-3.2-2.2-5,0-1.5.7-2.9,2-3.9,2.8-2.4,6.5-3.5,9.7-4.5,23.5-7,108.9-32.9,199.4-60.4,96.4-29.3,196.1-59.6,221.6-67.1,19.7-5.8,20.8-5.6,24.3-1.7.6.7,1.3,1.4,2.3,2.3.2.2.3.4.3.6.3,4.8-3.5,8.5-11,10.7-21.5,6.2-85.7,25.5-160,47.9-114.3,34.3-243.8,73.3-276.4,82.4-1.6.4-3.2.8-4.8.8ZM830.4,104.8c-2.7,0-7.6,1.3-18.3,4.4-25.5,7.5-125.2,37.8-221.6,67.1-90.4,27.5-175.9,53.4-199.4,60.4-3.1.9-6.6,2-9.1,4.1-.8.7-1.3,1.6-1.3,2.6,0,1.2.6,2.5,1.6,3.6,2,2,4.4,1.8,8.2.8,32.6-9.1,162.1-48,276.4-82.4,74.3-22.3,138.5-41.6,160-47.9,4.5-1.3,9.7-3.8,9.7-8.4-.9-.8-1.6-1.6-2.1-2.2-1.2-1.4-2-2.2-4.2-2.2Z"/>
          </g>
          <g>
            <path class="cls-1" d="M853.7,161.6c11.2-.1,17.4,1.2,28.5,1,1.3,0,2.6,0,3.8-.6,1.1-.6,2-2,1.3-4.7-8.5-29.3-23.9-82-32.4-111.2-1.2-4.2-2.3-9.1-4-9.7-7.2,2.1-16.5,11.3-28,18.8l30.7,106.4Z"/>
            <path d="M880.6,163.6c-4.9,0-8.8-.3-12.7-.5-4.2-.3-8.6-.6-14.2-.5h0c-.4,0-.8-.3-.9-.7l-30.7-106.4c-.1-.4,0-.8.4-1,4.4-2.9,8.3-5.9,12.2-8.8,6.2-4.7,11.5-8.8,16.1-10.1.2,0,.4,0,.6,0,1.8.7,2.7,3.6,4,8.4.2.7.4,1.3.6,2,4.3,14.6,10.2,35.1,16.2,55.6,6,20.5,11.9,41,16.2,55.6.9,3.7-.7,5.2-1.8,5.8-1.4.7-2.9.7-4.2.8-.6,0-1.1,0-1.7,0ZM855.3,160.6c4.9,0,8.8.3,12.7.5,4.2.3,8.6.6,14.2.5,1.2,0,2.4,0,3.3-.5,1-.6,1.3-1.8.9-3.6-4.2-14.6-10.2-35.1-16.2-55.6-6-20.5-11.9-41-16.2-55.6-.2-.7-.4-1.3-.6-2-.7-2.5-1.7-6.1-2.6-7-4.2,1.4-9.3,5.3-15.1,9.7-3.5,2.7-7.5,5.7-11.7,8.5l30.4,105.1c.3,0,.6,0,.9,0Z"/>
          </g>
          <g>
            <path class="cls-2" d="M857.9,166.7c-11.1-39.8-22.8-79.4-35.1-118.9-3.6.2-9.2,3.3-7.6,13.5,2.3,15,13.9,57,23.9,86,1.8,5.2,3.7,10.6,6.6,14.9,2.9,4.3,6.9,7.3,12.3,4.5Z"/>
            <path d="M853.8,168.7c-3.3,0-6.3-2-9-6-3-4.6-5-10.4-6.7-15.1-9.7-28-21.5-70.7-23.9-86.1-.8-4.9,0-8.7,2.1-11.3,2.2-2.8,5.2-3.2,6.4-3.3.4,0,.8.2.9.7,12.2,39.3,24.1,79.3,35.1,118.9.1.4,0,.9-.5,1.1-1.6.8-3.1,1.2-4.6,1.2ZM822.1,48.8c-1.1.2-2.9.8-4.3,2.5-1.8,2.2-2.4,5.6-1.7,9.9,2.4,15.4,14.2,57.9,23.8,85.8,1.6,4.6,3.6,10.3,6.5,14.7,3.1,4.7,6.6,6.2,10.4,4.5-10.9-39.1-22.6-78.6-34.7-117.4Z"/>
          </g>
          <path d="M867,151.4c-.1,0-.3-.1-.3-.3,0-.2,0-.3.3-.4,4.2-.7,8.1-1.2,11.5-1.6,2.5-.3,4.7-.6,6.3-.9.2,0,.3,0,.4.3,0,.2,0,.3-.3.4-1.7.3-3.9.6-6.4.9-3.4.4-7.3.9-11.5,1.6,0,0,0,0,0,0Z"/>
          <path d="M869.9,139c-.1,0-.3-.1-.3-.3,0-.2,0-.3.2-.4l11.2-2.1c.2,0,.3,0,.4.2,0,.2,0,.3-.2.4l-11.2,2.1s0,0,0,0Z"/>
          <path d="M857.1,119.6c-.1,0-.3,0-.3-.2,0-.2,0-.3.2-.4l16.8-5.2c.2,0,.3,0,.4.2,0,.2,0,.3-.2.4l-16.8,5.2s0,0,0,0Z"/>
          <path d="M857,95.4c-.1,0-.3,0-.3-.2,0-.2,0-.3.2-.4l9.9-3.3c.2,0,.3,0,.4.2,0,.2,0,.3-.2.4l-9.9,3.3s0,0,0,0Z"/>
          <path d="M848.8,87.8c-.1,0-.3,0-.3-.2,0-.2,0-.3.2-.4,5.2-1.8,10.4-3.7,15.5-5.7.2,0,.3,0,.4.2,0,.2,0,.3-.2.4-5.1,2-10.4,4-15.6,5.8,0,0,0,0-.1,0Z"/>
          <path d="M850.9,76.7c-.1,0-.2,0-.3-.2,0-.2,0-.3.2-.4,3.7-1.4,7.4-3,11-4.7.2,0,.3,0,.4.1,0,.2,0,.3-.1.4-3.6,1.7-7.3,3.3-11.1,4.7,0,0,0,0-.1,0Z"/>
          <path d="M839.3,59.4c-.1,0-.2,0-.3-.2,0-.1,0-.3.1-.4,5.3-3.1,10.5-6.5,15.5-10.1.1,0,.3,0,.4,0,0,.1,0,.3,0,.4-5,3.6-10.3,7-15.6,10.1,0,0-.1,0-.2,0Z"/>
          <path d="M851.9,61.3c-.1,0-.2,0-.3-.2,0-.2,0-.3.2-.4,2.2-.8,4.3-1.9,6.3-3.1.1,0,.3,0,.4.1,0,.1,0,.3-.1.4-2,1.2-4.2,2.3-6.4,3.1,0,0,0,0-.1,0Z"/>
          <path d="M871.8,126.7c-.1,0-.3,0-.3-.2,0-.2,0-.3.2-.4l5.5-1.5c.2,0,.3,0,.4.2,0,.2,0,.3-.2.4l-5.5,1.5s0,0,0,0Z"/>
          <path d="M866.1,105c-.1,0-.3,0-.3-.2,0-.2,0-.3.2-.4l4.7-1.5c.2,0,.3,0,.4.2,0,.2,0,.3-.2.4l-4.7,1.5s0,0,0,0Z"/>
        </g>
        <g>
          <path class="cls-2" d="M591.2,143.4c1.2,18.2,0,30.3-1.6,48.3-.1,1.5-22.7,4.1-21.5,5.1,8,6.7,35.8,36.8,45.4,35.3,9.7-1.5,35.3-23.1,37-34.4-12.9-4.9-13.9-38.1-12.3-70.3-12,4.1-32.8,13.2-47.1,15.9Z"/>
          <path d="M612.9,233.1c-7.5,0-21.6-13-36.7-27.6-3.6-3.5-6.7-6.4-8.6-8-.3-.3-.5-.7-.3-1.1.2-.9.9-1.2,10.1-2.8,4.1-.7,10.1-1.8,11.5-2.4v-1.4c1.6-16.8,2.7-28.9,1.5-46.5,0-.5.3-.9.8-1,9.8-1.9,22.5-6.7,33.8-11,4.9-1.9,9.4-3.6,13.1-4.9.3,0,.6,0,.9.1.2.2.4.5.4.8-2.1,42.9,1.7,65.6,11.7,69.4.4.2.7.6.6,1-1.8,12-28.1,33.7-37.7,35.2-.3,0-.6,0-.8,0ZM569.8,197c1.9,1.7,4.6,4.3,7.6,7.2,10.9,10.5,29.1,28,36,27,8.8-1.3,33.5-21.6,36-32.9-10.3-4.8-14.2-27-12.2-69.5-3.4,1.2-7.5,2.8-11.8,4.4-11,4.2-23.5,9-33.3,11,1.1,17.3,0,29.3-1.5,45.9l-.2,1.7c-.1,1.3-1.8,1.8-13,3.8-2.8.5-6,1.1-7.8,1.5Z"/>
        </g>
        <g>
          <g>
            <path class="cls-1" d="M683.6,69.4c-3.4,13.8-6.8,26.2-13.2,44-3,8.5-7.8,17.8-13.1,25.3-2.5,3.5-4.3,5.2-8.9,6.8,0-3.8-3.7-6-3.9-9.8-.3-4.7,3-8.5.6-12.8-4.6-8.3-7.4-17.1-8.4-26-.7-7.3-.1-14.9,3.9-21.2,4-6.3,11.8-11.2,20.6-11,6.7.1,17.5,0,22.4,4.8Z"/>
            <path d="M648.5,146.5c-.2,0-.4,0-.5-.2-.3-.2-.4-.5-.4-.8,0-1.7-.9-3.1-1.8-4.6-1-1.5-2-3.1-2.1-5.2-.1-2,.3-3.8.8-5.6.6-2.5,1.2-4.6,0-6.9-4.7-8.4-7.5-17.3-8.5-26.4-.9-8.9.4-16.1,4-21.8,4.5-7.1,12.9-11.6,21.5-11.5h1.1c6.8.1,17.1.3,22,5,.2.2.3.6.3.9-3.4,13.9-6.8,26.1-13.2,44.1-3.1,8.7-7.9,18-13.2,25.5-2.5,3.5-4.4,5.4-9.3,7.2-.1,0-.2,0-.3,0ZM660.8,65.6c-7.8,0-15.3,4.1-19.4,10.6-3.4,5.4-4.6,12.1-3.7,20.6.9,8.8,3.7,17.5,8.2,25.7,1.6,2.9.9,5.6.3,8.2-.4,1.6-.8,3.3-.7,5,.1,1.6,1,2.9,1.9,4.3.8,1.3,1.7,2.6,2,4.3,3.6-1.5,5.2-3.1,7.3-6.1,5.2-7.4,9.9-16.5,13-25.1,6.3-17.7,9.7-29.7,13-43.4-4.5-3.8-14-4-20.3-4.1h-1.1c-.2,0-.3,0-.5,0Z"/>
          </g>
          <g>
            <path class="cls-2" d="M576,81.9c-1.1,12.4-5.4,24.3-7.3,36.7-1.9,12.3-1,25.7,7.1,36.5,7.1,9.5,19.7,16,32.7,16.9,13,.9,26-3.7,33.9-12.2,7.4-7.9,11.3-27,13.7-36.4,5.6,1.7,12.2.9,16.2-2.6,4-3.4,4.9-9.4,1.4-13.6-3.4-4.2-8.4-5.4-14.9-.9,1.5-7.9,1.3-15.8,1.2-19.4-.2-9.9,1.6-24.2-4.5-29.3-3.5-2.9-11.2-6.1-15.5-7.9-7.5-3.1-19,.2-27.1-1-8.1-1.2-17,1.5-24.1,4.6-8.5,3.7-11.9,19.4-12.8,28.7Z"/>
            <path d="M611.7,173.1c-1.1,0-2.2,0-3.4-.1-13.3-1-26.1-7.6-33.4-17.3-7.1-9.5-9.5-22-7.2-37.2.8-5.4,2.1-10.8,3.4-16,1.6-6.7,3.3-13.6,3.9-20.6h0c.4-4.1,2.8-24.9,13.3-29.4,9.4-4.1,17.7-5.7,24.6-4.6,3.2.5,7,.2,11,0,5.8-.4,11.7-.8,16.3,1.1l.5.2c4.4,1.9,11.8,5,15.3,7.8,5.2,4.3,5,14.5,4.8,23.4,0,2.3,0,4.5,0,6.6v.2c0,3.4.3,10.2-.9,17.3,5.5-3.1,10.6-2.3,14.3,2.2,3.7,4.5,3,11-1.6,14.9-3.9,3.3-10.3,4.5-16.1,3-.2.7-.4,1.5-.5,2.3-2.5,10.5-6.3,26.4-13.1,33.6-7.4,7.9-19.2,12.6-31.3,12.6ZM576.9,82h0c-.7,7.1-2.3,14.1-3.9,20.8-1.2,5.2-2.5,10.5-3.3,15.9-2.2,14.7,0,26.8,6.9,35.8,7,9.3,19.2,15.7,32,16.6,12.7.9,25.5-3.6,33.2-11.9,6.5-6.9,10.4-23.1,12.7-32.8.3-1.2.5-2.2.8-3.2,0-.2.2-.5.4-.6.2-.1.5-.2.7,0,5.5,1.7,11.7.7,15.3-2.4,3.8-3.2,4.4-8.6,1.3-12.3-3.6-4.3-8.2-4.6-13.7-.8-.3.2-.7.2-1,0-.3-.2-.5-.6-.4-1,1.5-7.6,1.3-15.3,1.2-19v-.2c0-2.1,0-4.3,0-6.7.2-8.5.3-18.2-4.2-22-3.2-2.7-10.5-5.7-14.8-7.6l-.5-.2c-4.2-1.8-9.9-1.4-15.5-1-3.9.3-8,.6-11.4,0-6.6-1-14.5.5-23.6,4.5-7.4,3.2-11.2,17-12.2,27.9Z"/>
          </g>
          <g>
            <path class="cls-1" d="M616.4,67.1c-1.7,5.4-10.9,12.4-16.3,12.4-5.4,0-7.2-2.6-8.9-7.9-5.1,3.8-9.1,7.8-14.1,9.2-7.7,2.2-16.4-3.3-18.2-11.3-1.8-8,3.8-17.1,11.6-18.8-5.2.8-9.8-4.8-9.4-10.3s4.6-10,9.5-12c4.9-2,10.3-1.8,15.6-2.1-1.5-5.4,1.6-11.6,6.2-14.5,4.7-3,10.5-3.3,15.8-2.1,3.5.7,7,2.1,9.5,4.7s4.1,6.4,3.6,10.4c5.2-5.5,13.2-8.8,20.2-6.5,7,2.3,11.6,11.6,11.6,17.7,3.9-4,8.7-7.1,14.1-6.3,10.6,1.5,12.2,10.8,6.4,22,5.9-2.3,14.1.9,16.1,9.4,1.5,6.3-1.7,15.9-6.3,20.3-4.7,4.4-20.1,7.2-30-1.3-5.5-4.7-7.7-10.7-9-16.2-3.6,5.1-6.2,8.6-14.2,10.4-5.9,1.4-12.4-1.5-13.9-7.1Z"/>
            <path d="M669.3,86.4c-5.6,0-11.7-1.6-16.5-5.7-5.3-4.6-7.6-10.2-8.8-14.7-3,4.1-6,7.4-13.6,9.1-5.8,1.3-11.7-1.2-14.1-5.6-3.1,5.3-11.1,10.9-16.2,11,0,0-.1,0-.2,0-5.3,0-7.5-2.6-9.2-7.3-.9.7-1.7,1.4-2.6,2-3.5,2.8-6.8,5.4-10.8,6.5-3.8,1.1-8.1.4-11.8-1.8-3.9-2.3-6.6-6.1-7.5-10.2-1.6-7.3,2.4-15.2,8.7-18.6-1-.4-2-1-2.9-1.9-2.4-2.3-3.8-5.7-3.6-8.9.4-6.2,5.4-10.9,10.1-12.8,4.1-1.7,8.6-1.8,13-2,.6,0,1.2,0,1.8,0-.9-5.3,1.9-11.3,6.9-14.5,4.4-2.8,10.3-3.6,16.5-2.3,4.2.9,7.6,2.6,10,4.9,2.4,2.4,3.8,5.5,4,8.8,5.8-5.2,13.3-7.2,19.5-5.1,6.5,2.2,11.2,10,12.1,16.5,4.5-4.1,9-5.8,13.4-5.2,4.4.6,7.6,2.6,9.3,5.8,2,3.9,1.6,9.4-1.3,15.7,2.7-.5,5.7,0,8.3,1.3,3.5,1.9,6,5.2,6.9,9.3,1.5,6.5-1.6,16.4-6.6,21.2-2.6,2.4-8.3,4.5-14.7,4.5ZM644.4,62.9c0,0,.1,0,.2,0,.4,0,.6.4.7.7,1,4.4,2.9,10.7,8.7,15.7,9.3,8,24.2,5.6,28.7,1.3,4.5-4.3,7.4-13.5,6.1-19.4-.8-3.6-3-6.4-6-8.1-2.8-1.5-6.1-1.7-8.9-.7-.4.1-.8,0-1-.2-.3-.3-.3-.7-.1-1.1,3.4-6.5,4.1-12.1,2.2-15.8-1.4-2.6-4-4.3-7.9-4.8-4.3-.6-8.8,1.4-13.3,6-.3.3-.7.4-1,.2-.4-.1-.6-.5-.6-.9,0-5.5-4.2-14.5-11-16.8-6.1-2.1-13.7.4-19.2,6.2-.3.3-.7.4-1.1.2-.4-.2-.6-.6-.5-1,.4-3.4-.9-7.1-3.4-9.6-2.1-2.1-5.2-3.6-9.1-4.4-5.8-1.2-11.2-.5-15.1,2-4.6,3-7.1,8.8-5.8,13.5,0,.3,0,.6-.1.8-.2.2-.4.4-.7.4-1,0-2,0-3,.1-4.4.2-8.5.3-12.3,1.9-4.2,1.7-8.5,5.8-8.9,11.2-.2,2.7,1,5.5,3,7.4,1.6,1.5,3.5,2.1,5.3,1.9.5,0,1,.3,1.1.8,0,.5-.2,1-.7,1.1-7.2,1.6-12.5,10.2-10.9,17.7.8,3.7,3.2,7,6.7,9,3.3,2,7,2.5,10.3,1.6,3.6-1,6.6-3.4,10.1-6.2,1.2-.9,2.4-1.9,3.7-2.8.2-.2.6-.2.8-.1.3,0,.5.3.6.6,1.6,5.1,3.2,7.3,8,7.3,5.1,0,13.9-6.8,15.4-11.8.1-.4.5-.7.9-.7.4,0,.8.3.9.7,1.4,5.3,7.7,7.6,12.7,6.4,7.9-1.8,10.3-5.3,13.7-10.1.2-.3.5-.4.8-.4Z"/>
          </g>
          <path d="M588,100.5c0-1.5,1.3-2.8,2.9-2.9s3,1.2,3,2.7c0,1.5-1.3,2.8-2.9,2.9-1.6,0-3-1.2-3-2.7Z"/>
          <path d="M630.9,106.9c0-1.5,1.3-2.8,2.9-2.9,1.6,0,3,1.2,3,2.7,0,1.5-1.3,2.8-2.9,2.9-1.6,0-3-1.2-3-2.7Z"/>
          <path d="M611.5,153.7c-1.7,0-3.4-.3-5.1-.9-.5-.2-.7-.7-.6-1.2.2-.5.7-.7,1.2-.6,4.7,1.7,10.3.5,13.9-3,.4-.4,1-.4,1.3,0,.4.4.4,1,0,1.3-2.9,2.8-6.8,4.3-10.8,4.3Z"/>
          <path d="M605.8,137.7c-2.3,0-4.7-.6-7.3-1.8-1.1-.5-2.3-1.2-3.2-2.3-1.1-1.5-1.3-3.5-.7-5.6.5-1.5,1.3-2.8,2-4.1l.4-.6c4.2-6.9,6.7-14.8,7.4-22.9,0-.5.5-.9,1-.9.5,0,.9.5.9,1-.7,8.3-3.4,16.5-7.7,23.7l-.4.6c-.7,1.2-1.5,2.4-1.8,3.7-.5,1.5-.3,3,.4,4,.6.8,1.6,1.3,2.4,1.7,2.6,1.2,5,1.7,7.2,1.6,2.5-.2,4.9-1.3,6.3-3,.3-.4.9-.5,1.3-.1.4.3.5.9.1,1.3-1.7,2.1-4.5,3.5-7.6,3.7-.3,0-.6,0-.8,0Z"/>
          <path d="M657.2,113.8c0,0-.2,0-.2,0-.5-.1-.8-.6-.7-1.1.7-2.7,1-4.1,1.6-6.7.1-.5.6-.8,1.1-.7.5.1.8.6.7,1.1-.6,2.6-.9,4.1-1.6,6.8-.1.4-.5.7-.9.7Z"/>
        </g>
        <g>
          <path class="cls-1" d="M452,211.6c-12.2,3.7-43.3,17.5-54.2,20.1-4.9,1.2-9.9,2.2-14.1,4.9-4.2,2.7-7.4,7.7-6.4,12.6.3,1.3.9,2.6,1.9,3.6,2.7,2.7,7.3,2.1,10.8.9,16.8-5.8,55.3-18.1,68.4-20.9-2.2-5.7-5-14.4-6.4-21.2Z"/>
          <path d="M384.5,255.7c-2.1,0-4.3-.5-6-2.2-1-1-1.8-2.4-2.1-4.1-1.2-5.6,2.6-10.9,6.8-13.6,4-2.6,8.6-3.7,13.1-4.8l1.3-.3c6-1.4,18.1-6.3,29.9-10.9,9.7-3.8,18.8-7.5,24.2-9.1.3,0,.5,0,.7,0,.2.1.4.4.4.6,1.4,6.9,4.3,15.6,6.4,21.1,0,.3,0,.5,0,.8-.1.2-.4.4-.6.5-13.3,2.9-52.3,15.4-68.3,20.9-1.5.5-3.6,1.1-5.8,1.1ZM451.3,212.8c-5.5,1.8-14.1,5.2-23.1,8.8-11.8,4.7-24,9.6-30.1,11l-1.3.3c-4.4,1-8.9,2.1-12.5,4.5-3.7,2.4-6.9,6.9-6,11.7.2.9.6,2.2,1.6,3.1,2.8,2.7,7.8,1.4,9.9.7,15.6-5.4,53.2-17.4,67.4-20.7-2-5.3-4.5-13-5.9-19.4Z"/>
        </g>
        <path d="M634.7,132.1c-3.6,0-7.2-.9-10.4-2.6-4.7-2.5-8-6.3-9.2-10.9-.6-2.2-.8-4.4-.9-6.6-.1-1.8-.3-3.8-.7-5.5-.8-3.6-3.5-7.2-7-7.2s0,0,0,0c-3.5,0-6,3.7-7.3,7-.3.9-.6,1.9-.9,2.8-.9,2.9-1.9,5.9-4,8.3-3.1,3.3-7.8,4.3-11.2,4.4-4.6.2-8.6-.7-11.5-2.8-6.1-4.3-7.4-12.4-8.1-19.7-.3-2.8-.6-6.6,1.1-9.7,1.5-2.8,5.1-3.8,10.7-3.3h0c25.8,2.5,51.8,6.5,77.1,11.8,2.8.6,5.6,1.5,6.8,4,.7,1.4.6,3,.4,4.5-1.4,11.3-8.7,21.1-18.1,24.4-2.1.7-4.3,1.1-6.6,1.1ZM606.4,97.4c4.7,0,7.8,4.5,8.8,8.7.5,1.9.6,3.9.8,5.8.2,2.2.3,4.2.9,6.2,1.1,4.1,4.1,7.5,8.3,9.8,4.8,2.5,10.6,3.1,15.5,1.4,8.8-3,15.6-12.2,16.9-22.8.2-1.2.2-2.5-.3-3.5-.8-1.8-3.1-2.5-5.5-3-25.3-5.3-51.2-9.3-76.9-11.8-4.8-.5-7.8.3-8.9,2.3-1.3,2.4-1.2,5.3-.9,8.6.7,6.9,1.8,14.5,7.3,18.3,2.6,1.8,6.2,2.6,10.4,2.4,3.1-.2,7.3-.9,9.9-3.8,1.9-2,2.7-4.7,3.6-7.5.3-1,.6-2,1-2.9.7-1.9,3.4-8.1,9-8.2,0,0,0,0,.1,0Z"/>
        <g>
          <path class="cls-2" d="M586.2,190.9s-55.9,14.1-71.8,41.2c-15.9,27.2-20.1,56.4-20.1,56.4,0,0,5.6,6.4,23.8,7.7,20.7,1.5,21.6-3.2,21.6-3.2,0,0,2.2,25.1,8.3,50.7,5.7,24.1-10.3,46.1,2.7,53.7,23.8,13.9,104.3,33.7,130.5,11.4,12.7-10.8,10-113,10-113,0,0,15.5-2,28.7-8.8,9.3-4.8,25.7-14.2,25.7-14.2,0,0-5.4-18.1-19.8-46.8-14.3-28.6-78.5-33.8-78.5-33.8,0,0-24.1,33.7-42.9,30.4-18.8-3.3-18.2-31.7-18.2-31.7Z"/>
          <path d="M642.1,419.8c-10.1,0-19.8-1.1-27.2-2.2-27.7-4.1-53.5-12.8-64.7-19.4-7.6-4.5-6.1-13.2-4.1-24.2,1.6-9,3.5-19.3.9-30.1-5-21.2-7.4-42.3-8.1-48.8-2.3,1.5-7.8,3-20.9,2-18.3-1.3-24.2-7.8-24.4-8-.2-.2-.3-.5-.2-.7,0-.3,4.3-29.7,20.2-56.8,15.9-27.2,70.1-41.1,72.4-41.7.3,0,.6,0,.8.2.2.2.4.5.4.8,0,.3-.4,27.6,17.4,30.7.8.1,1.7.2,2.5.2,17.6,0,39.2-29.9,39.5-30.2.2-.3.5-.4.8-.4.2,0,16.4,1.4,34.1,6.2,24,6.5,39.2,16,45.2,28.1,14.2,28.5,19.8,46.8,19.8,47,.1.4,0,.9-.4,1.1-.2,0-16.5,9.5-25.7,14.2-11.5,5.9-24.8,8.2-28.2,8.7.2,10.5,2,102.3-10.4,112.9-9.3,8-24.8,10.3-39.7,10.3ZM539.6,292.1c.5,0,.9.4.9.9,0,.3,2.3,25.3,8.3,50.6,2.6,11.2.7,22.1-.9,30.8-1.9,10.7-3.3,18.4,3.2,22.2,24.6,14.4,104.1,33,129.4,11.5,9.8-8.3,10.6-77.1,9.7-112.3,0-.5.3-.9.8-1,.2,0,15.5-2.1,28.4-8.7,8.1-4.2,21.9-12,25-13.8-1.2-3.6-6.9-20.7-19.5-46-13.2-26.5-71.1-32.6-77.3-33.2-2.9,3.9-23.1,30.5-40.7,30.6-1,0-1.9,0-2.8-.2-17-3-18.8-25.8-18.9-31.4-8,2.2-55.8,16.1-70.1,40.5-14.6,24.9-19.3,51.8-19.9,55.6,1.4,1.2,7.6,6,22.8,7.1,17.9,1.3,20.4-2.1,20.6-2.5,0-.5.4-.8.9-.8,0,0,0,0,0,0ZM538.7,292.8h0Z"/>
        </g>
        <g>
          <g>
            <path class="cls-2" d="M397.5,224.5c-2-.7-4.2,1-5,3s-.5,4.3-.1,6.5c.2,1.4,4.5,9.3,6,10.1,3.3,1.7,5.2,0,6.5-1.3.8-.8-3.8-5-3.8-8.6,0-3.7-.2-8.5-3.7-9.7Z"/>
            <path d="M401,245.8c-.9,0-1.9-.2-3-.8-2-1-6.3-9.4-6.5-10.8-.3-2-.7-4.6.2-6.9.9-2.5,3.6-4.5,6.2-3.6h0c4.5,1.6,4.4,7.7,4.3,10.6,0,1.8,1.4,3.9,2.5,5.5,1.1,1.7,1.9,2.9,1,3.7-.9.9-2.4,2.3-4.6,2.3ZM396.6,225.3c-1.3,0-2.6,1.2-3.1,2.6-.7,1.9-.4,4.1,0,6,.2,1.4,4.4,8.9,5.5,9.4,2.6,1.3,4,.2,5.2-.9-.2-.4-.6-1.1-1-1.6-1.2-1.8-2.8-4.3-2.8-6.6,0-3.8-.2-7.8-3.1-8.8h0c-.2,0-.4-.1-.6-.1Z"/>
          </g>
          <g>
            <path class="cls-2" d="M405.7,219.3c-2.2-1.1-4.7.5-5.6,2.6-.9,2.2-.7,4.7-.4,7.2.2,1.6,2.8,17.9,8.5,13.3.9-.7,1.4-3.7,1.6-4.9.5-2.4-.5-4.3-.4-6.8.2-4,.1-9.4-3.7-11.4Z"/>
            <path d="M406.3,244.1c-.5,0-.9-.1-1.2-.2-4.6-1.9-6.2-14.6-6.2-14.7-.3-2.3-.6-5.2.4-7.6.6-1.5,1.9-2.7,3.4-3.3,1.2-.4,2.5-.4,3.5.2h0c4.2,2.1,4.5,7.4,4.2,12.3,0,1,.1,1.9.3,2.9.2,1.3.4,2.6.1,4.1v.4c-.5,2.1-.9,4.3-1.9,5.1-.9.8-1.8,1-2.5,1ZM404.2,219.9c-.4,0-.7,0-1,.2-1,.4-1.8,1.2-2.3,2.2-.8,2-.6,4.5-.3,6.7.4,3.4,2.4,12.1,5.1,13.2.4.2,1,.3,1.9-.5.4-.3.8-1.6,1.2-4v-.4c.3-1.2.1-2.3,0-3.4-.2-1-.3-2.1-.3-3.3.2-4.3,0-8.9-3.2-10.5h0c-.4-.2-.7-.3-1.1-.3Z"/>
          </g>
          <g>
            <path class="cls-2" d="M416,215.5c-2.4-1.7-5.5-.4-6.8,1.9-1.3,2.4-2.3,6.7-2.2,9.6,0,2.1,2.2,9.6,3.6,12.1,1.2,2.3,3.3,3.9,5.1,2.7,1.1-.7,1.6-2.1,2-3.5.7-2.8,1.3-5.7,1.7-8.6.6-4.8,1-11.2-3.4-14.4Z"/>
            <path d="M414.5,243.2c-.3,0-.6,0-.9-.1-1.4-.4-2.8-1.6-3.8-3.5-1.5-2.7-3.6-10.3-3.7-12.5-.1-3.3,1.1-7.7,2.3-10.1.8-1.6,2.3-2.7,3.9-3.1,1.5-.4,3,0,4.2.8h0c4.5,3.3,4.4,9.5,3.8,15.2-.4,3-.9,5.9-1.7,8.7-.4,1.5-.9,3.2-2.4,4-.5.3-1.1.5-1.7.5ZM413.6,215.6c-.3,0-.6,0-.8,0-1.1.3-2.1,1.1-2.7,2.2-1.1,2.1-2.2,6.2-2.1,9.2,0,2,2.2,9.3,3.5,11.7.7,1.4,1.7,2.3,2.6,2.6.4.1.8,0,1.2-.2.8-.5,1.2-1.8,1.5-2.9.7-2.7,1.3-5.6,1.6-8.5.6-5.1.8-10.8-3-13.5h0c-.7-.5-1.3-.6-1.9-.6Z"/>
          </g>
          <path class="cls-2" d="M425.7,213.9c-2.6-1.5-5.7,0-7,2.2-1.3,2.3-2.7,6-2.7,8.8,0,1.8,1.3,9.2,2.6,11.5,1.1,2.1,3.8,3.5,5.6,2.4,1.1-.7,1.9-1.6,2.3-2.9.8-2.6-.5-6-.3-8.8.2-2.6,0-4.9.5-6.4.8-1.2,1.8-1.5,1.7-2.9s-1.5-3.1-2.7-3.8Z"/>
          <path d="M422.7,240c-.4,0-.8,0-1.2-.2-1.5-.4-3-1.6-3.8-3.1-1.3-2.5-2.7-10.1-2.7-11.9,0-2.9,1.4-6.7,2.9-9.2.8-1.4,2.6-2.6,4.6-3.2,1.9-.5,3.6-.3,4.9.5.4.3.6.8.3,1.3-.3.4-.8.6-1.3.3-.9-.5-2.1-.6-3.5-.3-1.5.4-2.9,1.3-3.5,2.3-1.3,2.2-2.6,5.7-2.6,8.3,0,1.8,1.3,9,2.4,11,.6,1.1,1.6,1.9,2.7,2.2.4.1,1.1.2,1.6-.2,1-.6,1.5-1.3,1.9-2.4.4-1.3.2-2.9,0-4.6-.2-1.3-.4-2.7-.3-4,.2-2.4.7-5.3,1.2-7.3.1-.5.6-.8,1.1-.7.5.1.8.6.7,1.1-.4,1.9-.9,4.8-1.1,7.1,0,1.1,0,2.3.3,3.5.3,1.8.5,3.7,0,5.4-.5,1.5-1.4,2.6-2.7,3.4-.6.3-1.2.5-1.9.5Z"/>
        </g>
        <path d="M660.1,119.9c-.2,0-.3-.1-.3-.3,0-.2,0-.3.3-.3,2.6-.3,4.8-1.4,6.3-3.1,1.6-1.9,2.1-4.5,1.2-6.5,0-.2,0-.3.2-.4.2,0,.3,0,.4.2,1,2.2.5,5.1-1.3,7.2-1.5,1.7-3.9,2.9-6.7,3.3,0,0,0,0,0,0Z"/>
        <path d="M572.2,76.1s0,0,0,0c-2.1-.4-3.7-2.1-5-3.6-1-1.2-2-2.4-2.3-4-.3-1.5,0-3.1.4-4.5,0-.2.2-.3.4-.2.2,0,.3.2.2.4-.3,1.3-.7,2.8-.4,4.2.3,1.4,1.2,2.6,2.2,3.7,1.3,1.5,2.8,3.1,4.7,3.4.2,0,.3.2.2.4,0,.1-.2.2-.3.2Z"/>
        <path d="M574.7,73.6s0,0,0,0c-2-.5-3.6-2.4-3.7-4.5,0-.2.1-.3.3-.3.2,0,.3.1.3.3.1,1.8,1.5,3.5,3.2,3.9.2,0,.3.2.2.4,0,.1-.2.2-.3.2Z"/>
        <path d="M676.1,77.6c0,0-.2,0-.3-.1-.1-.1,0-.3,0-.4,3.2-2.3,5.1-6.2,5-10.1,0-.2.1-.3.3-.3.2,0,.3.1.3.3.1,4.1-1.9,8.2-5.2,10.6,0,0-.1,0-.2,0Z"/>
        <g>
          <path class="cls-1" d="M694.2,404.6c-.4-11.1.5-22.2,2.6-33.1-20.2-13.7-31-36.2-33.8-58.6-2.8-22.4-3-31.2,1-53.4,2.3-13,4.4-28.1,14-61.9-1.6-2.7-13.9-4.7-16.5-3.4-9.5,24-15.7,49.7-19.1,63.9-22.6-1.9-52,.3-74.7,1.1-1.9-14.7-.8-48.2,3.3-63.5-3.1-.6-14.8,3.1-16.5,5.9-4,25.2-4,44.4-7.3,71.6-1.4,11.4-2.9,19.6-12.6,27.6,4.6,30.9,4.6,49.9,8.7,77.8,1.1,7.6-4.3,12.9,0,19.6,42.6,29.4,101.1,34.1,150.9,6.5Z"/>
          <path d="M623.7,423.9c-2.6,0-5.1,0-7.7-.2-26.5-1.4-51.8-10-73.2-24.8-.1,0-.2-.2-.3-.3-2.7-4.3-1.7-8.1-.9-11.8.6-2.6,1.3-5.2.8-8.2-2-13.6-3-24.9-4.1-36.9-1.1-12.3-2.2-25.1-4.6-40.9,0-.3,0-.6.3-.9,9.3-7.7,10.8-15.3,12.2-27,1.4-11.5,2.2-21.6,2.9-31.4,1-13.2,2-25.7,4.3-40.3,0-.1,0-.2.1-.3,2-3.2,14.1-6.9,17.4-6.3.3,0,.5.2.6.4.1.2.2.5.1.7-3.9,14.6-5.2,47-3.4,62.3,4.7-.2,9.6-.4,14.8-.6,19.1-.9,40.8-1.9,58.4-.5,3.1-13.1,9.4-39.3,18.9-63.2,0-.2.3-.4.5-.5,2.9-1.4,15.8.6,17.7,3.8.1.2.2.5,0,.7-8.4,29.4-11,44.5-13.1,56.6-.3,1.8-.6,3.6-.9,5.3-4,22.1-3.8,30.7-1,53.1,3.1,24.5,15.3,45.7,33.4,57.9.3.2.5.6.4,1-2.2,10.8-3.1,21.9-2.6,32.9,0,.4-.2.7-.5.9-21.9,12.2-46.3,18.5-70.9,18.5ZM544,397.4c43.6,30,102,32.6,149.2,6.6-.4-10.8.5-21.6,2.6-32.1-18.3-12.6-30.6-34.1-33.7-58.9-2.9-22.6-3-31.3,1-53.7.3-1.7.6-3.4.9-5.3,2.1-12.1,4.7-27.1,13-56.3-2-2-12-3.7-14.8-2.9-9.6,24.2-15.8,50.6-18.9,63.4-.1.4-.5.7-1,.7-17.7-1.5-39.6-.4-59,.5-5.5.3-10.7.5-15.7.7-.5,0-.9-.3-1-.8-1.9-14.7-.7-47.2,3-62.8-3.8.2-12.8,3.3-14.4,5.4-2.3,14.4-3.3,26.8-4.3,39.9-.8,9.8-1.6,19.9-3,31.4-1.4,11.6-3,19.8-12.5,27.9,2.3,15.6,3.4,28.3,4.5,40.5,1.1,11.9,2.1,23.2,4.1,36.8.5,3.4-.2,6.2-.8,8.9-.9,3.6-1.6,6.7.5,10.2Z"/>
        </g>
        <path d="M690.8,298.2c-.5,0-.9-.3-.9-.8-1.8-12.4-1.9-24.9-.3-37.3,0-.5.5-.9,1-.8.5,0,.9.5.8,1-1.6,12.2-1.5,24.6.3,36.8,0,.5-.3,1-.8,1.1,0,0,0,0-.1,0Z"/>
        <path d="M539.7,293.9c-.5,0-.9-.3-.9-.8-1.5-12.7-1.4-25.5.2-38.2,0-.5.5-.9,1-.8.5,0,.9.5.8,1-1.6,12.5-1.7,25.2-.2,37.7,0,.5-.3,1-.8,1,0,0,0,0-.1,0Z"/>
        <path d="M555.6,254.5c-2.9,0-5.6-.1-8.1-.3-.5,0-.9-.5-.8-1,0-.5.5-.9,1-.8,6.3.6,15.2.4,22-.5.5,0,1,.3,1,.8,0,.5-.3,1-.8,1-4.4.6-9.5.9-14.4.9Z"/>
        <path d="M668.3,254.8h0c-9.2,0-18.5-.8-27.7-2.4-.5,0-.9-.6-.8-1.1,0-.5.6-.9,1.1-.8,9,1.5,18.2,2.3,27.4,2.3.5,0,.9.4.9.9,0,.5-.4.9-.9.9Z"/>
        <path d="M670.5,244h0c-9.2,0-18.5-.8-27.7-2.4-.5,0-.9-.6-.8-1.1,0-.5.6-.9,1.1-.8,9,1.5,18.2,2.3,27.4,2.3.5,0,.9.4.9.9,0,.5-.4.9-.9.9Z"/>
        <path d="M553.2,244.7c-1.9,0-3.9-.1-5.3-.4-.5-.1-.8-.6-.7-1.1.1-.5.6-.8,1.1-.7,2.7.6,7.1.4,10.3.2.5,0,.9,0,1.3,0l10-.5c.5,0,1,.4,1,.9,0,.5-.4,1-.9,1l-10,.5c-.4,0-.9,0-1.3,0-1.6,0-3.5.2-5.4.2Z"/>
        <g>
          <path class="cls-2" d="M696.8,294.8c3.9,20.3,10.9,33.6,14.9,48-22.5,4.7-48.2-2.2-70.9-5.9-11.3-1.8-7.8,16.4-8.1,24.7,24.9,12,106.3,44.5,123.9,15.4,8.6-14.1-2.2-62.9-15.8-101.5-12.8,7.8-30.5,14.5-44,19.2Z"/>
          <path d="M727.7,389.8c-8.6,0-18.8-1.4-30.6-4.1-24.1-5.6-50-16-64.9-23.2-.3-.2-.5-.5-.5-.9,0-1.5,0-3.5-.1-5.5-.3-6.8-.7-15.2,3.2-18.6,1.5-1.4,3.6-1.9,6.1-1.5,4.4.7,8.9,1.5,13.6,2.4,18.8,3.5,38.3,7.1,56,3.7-1.4-5-3.2-9.9-5.1-15.1-3.3-9-7-19.2-9.5-31.9,0-.5.2-.9.6-1.1,12.5-4.4,30.6-11.1,43.8-19.2.2-.1.5-.2.8,0,.3,0,.5.3.6.6,13.8,39.1,24.6,87.8,15.7,102.3-5,8.2-14.9,12.2-29.7,12.2ZM633.6,361c14.8,7.1,40.2,17.3,63.9,22.8,21.5,5,49.1,7.8,58.2-7.3,8-13.2-1.7-59.9-15.5-99.6-13,7.7-30.2,14.2-42.4,18.5,2.4,12.2,5.9,21.7,9.2,30.9,2,5.6,3.9,10.8,5.4,16.2,0,.2,0,.5-.1.7-.1.2-.4.4-.6.4-18.3,3.8-38.3,0-57.7-3.5-4.7-.9-9.1-1.7-13.5-2.4-2-.3-3.5,0-4.6,1-3.2,2.9-2.9,10.8-2.6,17.2,0,1.8.2,3.6.2,5.1Z"/>
        </g>
        <g>
          <g>
            <path class="cls-2" d="M617,364.7c-20.9,3.2-37-1.5-44.2-7-2.6-2-.9-6.4,2.6-6.5-3.5-.7-5.7-4.2-5.7-6.2,0-2,1.1-3.1,3-4-1.9-1.5-4-3.3-3.9-5.5s2.3-4.4,4.6-5.2c-9.4-2.3-6.3-9.1-3.9-10.6,1.2-.7,6.9.5,8.3.5,3.5.2,11.5,1.5,14.9,2,.8.1,4.1.3,4.8,0,1.8-.6,2.1-3.1,2.1-5,0-2.7-4.6-10.3-4.4-16.6,0-3.9,3.1-9,5.3-9.9,1.5-.6,3.8,7.2,4.2,9,1.3,6.2,10.2,20,12.5,23.5,2.6,2.5,12.1,5.9,15.4,6.5,10.8,2.2,22.8,4.5,22.8,4.5l-7.6,40.4s-13.1-2.9-23.1-3.7c-2.9-.2-6.1-6.6-7.7-6.4Z"/>
            <path d="M647.9,375.7c0,0-.1,0-.2,0-.1,0-13.1-2.9-23-3.7-2-.2-3.8-2.3-5.4-4.2-.7-.8-1.7-2.1-2.2-2.2-21.8,3.4-37.8-1.8-44.8-7.2-1.5-1.1-2-2.9-1.4-4.8.3-1.1,1-2,1.9-2.6-2.5-1.5-4-4.2-4-6.1,0-2.1,1-3.3,2.3-4.2-1.6-1.3-3.3-3.1-3.2-5.4,0-2,1.4-3.8,3.1-5-3.5-1.4-4.6-3.5-4.8-5.1-.4-2.6,1.2-5.4,2.9-6.4.9-.6,3-.4,6.9.2.8.1,1.6.2,1.9.2,3.2.2,10.1,1.2,15,2,.9.1,3.9.3,4.4.1,1.2-.4,1.4-2.5,1.5-4.1,0-.9-.7-2.8-1.5-4.8-1.3-3.5-3-7.9-2.9-11.8.1-4.4,3.3-9.7,5.8-10.7.4-.2.8-.2,1.2,0,2.2,1.1,4.2,9.5,4.2,9.6,1.1,5.3,8.2,16.9,12.3,23.1,2.5,2.2,11.4,5.5,14.9,6.2,10.7,2.2,22.7,4.5,22.8,4.5.5,0,.8.6.7,1.1l-7.6,40.4c0,.2-.2.5-.4.6-.2.1-.3.2-.5.2ZM617.1,363.8c1.1,0,2.2,1.2,3.6,2.9,1.2,1.4,2.9,3.4,4.1,3.5,8.5.6,19.1,2.8,22.3,3.5l7.2-38.5c-3-.6-12.9-2.5-21.9-4.3-3.2-.6-13-4-15.9-6.8,0,0,0-.1-.1-.2-1.1-1.7-11.1-17-12.6-23.8-.5-2.3-2.2-7.3-3.1-8.2-1.7,1-4.4,5.5-4.5,9,0,3.6,1.5,7.7,2.8,11.1.9,2.4,1.6,4.2,1.6,5.5,0,1.4-.1,5-2.8,5.8-1,.3-4.6,0-5.3,0-2.8-.5-11.3-1.8-14.8-2-.4,0-1.2-.1-2.1-.3-1.5-.2-5-.7-5.7-.4-1,.6-2.3,2.6-2,4.6.3,2,2.3,3.5,5.6,4.3.4,0,.7.5.7.9,0,.4-.2.8-.6.9-1.9.7-4,2.5-4,4.4,0,1.8,1.7,3.3,3.6,4.8.2.2.4.5.4.8,0,.3-.2.6-.5.7-1.8.9-2.5,1.8-2.5,3.2,0,1.4,1.8,4.6,5,5.2.5,0,.8.5.7,1,0,.5-.4.8-.9.9-1.6,0-2.5,1.2-2.8,2.1-.3,1.1,0,2.1.8,2.7,7.3,5.6,23.6,9.9,43.4,6.8h0c0,0,.2,0,.2,0ZM617,364.7h0,0Z"/>
          </g>
          <path d="M579.3,332.3c0,0-.1,0-.2,0l-7.1-1.5c-.5-.1-.8-.6-.7-1.1.1-.5.6-.8,1.1-.7l7.1,1.5c.5.1.8.6.7,1.1,0,.4-.5.7-.9.7Z"/>
          <path d="M576.8,342.8s0,0,0,0c-1.5,0-3.9-.7-5.2-1.5-.4-.3-.6-.8-.3-1.3.3-.4.8-.6,1.3-.3,1,.7,3.1,1.2,4.3,1.3.5,0,.9.5.9,1,0,.5-.4.9-.9.9Z"/>
        </g>
        <path class="cls-2" d="M421.9,255.6c-.8-2.5-1.2-7.6-.1-10.1,1-2.4,3.9-5.3,4.7-7.8,2.2-7.3,1.1-13.9,3.3-21.2.7-2.4,1.7-4.7,3.3-6.6,1.3-1.6,2.5-4.3,4.5-3.8,1.4.4,2.3,1.9,2.5,3.4.2,1.5,0,3-.2,4.4-.6,6.7,1.8,13.3,2.7,19.9.8,5.7-1.3,6.6-3.1,12-.3,1-2,6.4-2.5,7.2-.7,1,1.4,2.2.4,2.8-2.1,1.3-4.7,2-7.1,1.6-2.5-.4-7.1,1.1-8.1-1.9Z"/>
        <path d="M421.1,252.7c-.4,0-.8-.3-.9-.7-.8-3.3,1-6.4,2.8-9.4,1-1.6,2-3.3,2.5-4.9,1.7-5.6,2.1-10.1,2.4-15.7.3-5.3,1.9-9.7,4.8-13.1l.2-.2c1.6-1.9,4.1-4.7,6.6-2.8,2,1.6,1.6,4.3,1.3,6.5v.3c-.7,4.3.3,8.7,1.3,13.4,1.1,5.2,2.3,10.6,1.2,16.1-.1.5-.6.8-1.1.7-.5-.1-.8-.6-.7-1.1,1-5,0-10.2-1.2-15.3-1-4.6-2.1-9.4-1.4-14.1v-.3c.3-1.8.6-3.9-.6-4.8-1-.8-2.4.7-4,2.5l-.2.2c-2.6,3-4.1,7-4.4,12-.3,5.8-.7,10.3-2.5,16.2-.6,1.9-1.6,3.6-2.7,5.4-1.7,2.8-3.2,5.4-2.6,8,.1.5-.2,1-.7,1.1,0,0-.1,0-.2,0Z"/>
        <path d="M728.4,344.8c0,0-.1,0-.2,0-5.4-1.3-10.9-1.6-16.4-1-.5,0-1-.3-1-.8,0-.5.3-1,.8-1,5.7-.6,11.4-.3,17,1,.5.1.8.6.7,1.1-.1.4-.5.7-.9.7Z"/>
        <path d="M492.3,341.1c-.3,0-.6-.2-.8-.4l-6.5-10.6c-.3-.4-.1-1,.3-1.3.4-.3,1-.1,1.3.3l6.5,10.6c.3.4.1,1-.3,1.3-.2,0-.3.1-.5.1Z"/>
        <path d="M641.7,368.4s0,0,0,0c-.2,0-.3-.2-.3-.3,1.3-10.4,2.9-20.8,4.7-31.1,0-.2.2-.3.4-.3.2,0,.3.2.3.4-1.8,10.2-3.4,20.7-4.7,31,0,.2-.2.3-.3.3Z"/>
        <path d="M638.1,346.6s0,0,0,0c-.2,0-.3-.2-.3-.3l.8-11.3c0-.2.2-.3.3-.3.2,0,.3.2.3.3l-.8,11.3c0,.2-.1.3-.3.3Z"/>
        <path d="M414.7,287.7c0,0-.2,0-.2-.1-.1-.1,0-.3,0-.4,6.5-4.9,13.5-9.1,20.8-12.7.2,0,.3,0,.4.1,0,.2,0,.3-.1.4-7.3,3.5-14.2,7.8-20.7,12.6,0,0-.1,0-.2,0Z"/>
        <path d="M412.4,281.6c-.1,0-.2,0-.3-.2,0-.2,0-.3.1-.4,3-1.6,5.9-3.5,8.5-5.6.1-.1.3,0,.4,0,.1.1,0,.3,0,.4-2.7,2.1-5.6,4-8.6,5.6,0,0,0,0-.1,0Z"/>
        <path d="M694.5,286.1c-.1,0-.2,0-.3-.2,0-.2,0-.3.2-.4,11.4-4,22.5-8.9,33.1-14.6.1,0,.3,0,.4.1,0,.2,0,.3-.1.4-10.6,5.7-21.8,10.7-33.2,14.7,0,0,0,0-.1,0Z"/>
        <path d="M733.6,267.3c0,0-.2,0-.2-.1-.1-.1,0-.3,0-.4l4.7-3.6c.1-.1.3,0,.4,0,.1.1,0,.3,0,.4l-4.7,3.6c0,0-.1,0-.2,0Z"/>
        <path d="M523.4,288.3c-4.3,0-8.5-.4-12.7-1.3-.2,0-.3-.2-.2-.4,0-.2.2-.3.4-.2,7.3,1.6,14.8,1.7,22.2.6.2,0,.3,0,.4.3,0,.2,0,.3-.3.4-3.2.5-6.5.8-9.7.8Z"/>
        <path d="M600.4,401.5s0,0,0,0c-17.6-2.3-34.4-7.6-50.1-15.9-.2,0-.2-.3-.1-.4,0-.2.3-.2.4-.1,15.6,8.3,32.4,13.6,49.9,15.8.2,0,.3.2.3.3,0,.2-.2.3-.3.3Z"/>
        <path d="M558.7,396.9s0,0,0,0c-3.9-.9-7.6-2.7-10.8-5.1-.1-.1-.2-.3,0-.4.1-.1.3-.2.4,0,3.1,2.4,6.8,4.1,10.6,5,.2,0,.3.2.2.4,0,.1-.2.2-.3.2Z"/>
      </g>
      <g>
        <g>
          <path class="cls-2" d="M57.4,289.4c42.1-40.5,54.1-53.2,96.5-93.6,3.8,4.3,6.3,6.5,10.4,12.1-39.4,34-98.2,92.6-98.3,92.5-4.4-4.8-3.4-5.8-8.6-10.9Z"/>
          <path d="M66,301.2c0,0-.2,0-.3,0-.1,0-.3-.1-.4-.2-2.1-2.3-3-3.7-3.9-5.1-1-1.6-2-3.1-4.7-5.8-.2-.2-.2-.4-.2-.6,0-.2,0-.4.3-.6,18.5-17.8,31-30.1,43.2-42,15.2-14.9,29.6-29,53.4-51.7.2-.2.4-.2.6-.2.2,0,.4.1.6.3,1.3,1.4,2.4,2.6,3.5,3.8,2.2,2.3,4.3,4.6,7,8.3.3.3.2.8-.1,1.1-32,27.6-77.6,72.3-92.6,86.9-1.8,1.8-3.2,3.2-4.2,4.1-1.4,1.4-1.8,1.7-2.1,1.7ZM58.6,289.4c2.4,2.5,3.4,4,4.3,5.5.8,1.2,1.6,2.5,3.2,4.3.9-.9,2.8-2.7,5.1-5,14.9-14.6,60.1-58.8,92.1-86.5-2.5-3.3-4.4-5.4-6.4-7.5-.9-1-1.9-2-2.9-3.2-23.4,22.3-37.7,36.3-52.7,51-12,11.8-24.4,23.9-42.6,41.4Z"/>
        </g>
        <g>
          <path class="cls-2" d="M164.3,207.8c9.4-9.9,18.6-12.1,23.2-11.3,7.6,1.2,10.3,14.5-6.2,34.1-6.8,8-15.2,17.7-23.6,26.1-15.2,15.2-33,27.8-45.6,45.5-9.3,13-18.1,27.5-20.4,43.6-1.1,7.4,1.2,16.3,4.1,23.2,2.9,6.9,9.6,12.4,16.7,11.6,3.7-.4,7.7-3.7,6.8-7.5-.6-2.3-3.1-7.7-4.8-9.2-12.1-10.7-2-34.4,6.9-46.4,15.6-20.9,37.2-36.1,53.8-56.1,7.1-8.6,25.6-29.5,30.1-39.9,7.1-16.6,3.3-30.9-8.3-39.4-12.3-9.1-33.2,7.4-42.8,13.7,4.2,4.5,5.7,8.1,10.4,12.1Z"/>
          <path d="M111,381.5c-7.2,0-13.4-5.9-16.1-12.2-1.7-4-5.5-14.4-4.2-23.6,2.5-16.9,11.8-31.7,20.6-44,8.4-11.7,19.2-21.4,29.7-30.7,5.4-4.8,10.9-9.7,16-14.9,9-9,17.7-19.2,23.6-26.1,11.3-13.3,13.3-23.5,11.4-28.6-.8-2.3-2.5-3.7-4.6-4.1-3.8-.6-12.9,1-22.4,11.1-.3.3-.8.3-1.1,0-2.9-2.4-4.6-4.7-6.4-7.1-1.2-1.6-2.4-3.3-4.1-5.1-.2-.2-.2-.4-.2-.7,0-.2.2-.5.4-.6,1-.7,2.3-1.5,3.5-2.4,10.8-7.4,28.8-19.7,40.2-11.3,12.3,9,15.5,24.1,8.5,40.4-3.8,8.8-17.7,25.3-26,35.2-1.6,1.9-3,3.6-4.1,4.9-7.6,9.2-16.4,17.4-24.8,25.4-10.1,9.5-20.5,19.3-28.9,30.6-9.6,12.9-18.1,35.5-7,45.3,1.9,1.7,4.5,7.4,5.1,9.6.4,1.6,0,3.3-1,4.8-1.4,2-4,3.5-6.5,3.8-.5,0-1,0-1.4,0ZM185.7,195.5c.7,0,1.4,0,2,.1,2.8.4,4.9,2.3,5.9,5.1,2.7,7.2-1.7,18.5-11.7,30.3-5.8,6.9-14.7,17.1-23.7,26.2-5.2,5.2-10.7,10.1-16.1,14.9-10.4,9.3-21.1,18.9-29.5,30.5-8.7,12.1-17.9,26.7-20.3,43.3-1.3,8.8,2.4,18.8,4.1,22.8,2.6,6.1,8.8,11.9,15.8,11.1,2.1-.2,4.2-1.5,5.4-3.1.5-.8,1.1-2,.7-3.4-.6-2.2-3.1-7.4-4.6-8.8-12.5-11.1-2.5-35,6.8-47.5,8.5-11.5,19-21.3,29.1-30.9,8.4-8,17.2-16.2,24.7-25.3,1.1-1.4,2.5-3,4.1-4.9,8.3-9.8,22.1-26.1,25.8-34.7,6.6-15.5,3.6-29.9-8-38.4-10.5-7.8-27.9,4.2-38.3,11.3-1,.7-1.9,1.3-2.8,1.9,1.4,1.6,2.5,3.1,3.6,4.5,1.6,2.2,3.1,4.2,5.5,6.3,8.1-8.3,16.1-11.2,21.4-11.2Z"/>
        </g>
        <g>
          <path class="cls-2" d="M127.1,390.4c-4.1-.1-8.6-.4-11.9-3.1-6.3-5.3-4.3-15.9-.7-23.5,18.5-39.6,63.7-63,104.6-54.3,8.4,1.8,17,5.1,22.6,11.9,4.7,5.7,6.7,13.3,8,20.7,2.3,13.6,2.5,27.7.4,41.3-.3,2.1-.8,4.4-2.2,5.9-1.9,2-4.8,2.2-7.5,2.2-14.3.2-89.2-.5-113.4-1.2Z"/>
          <path d="M232.7,392.5c-24.2,0-84.3-.6-105.6-1.3-3.7-.1-8.8-.3-12.4-3.3-6.6-5.5-4.8-16.2-.9-24.5,18.7-40,64.1-63.6,105.5-54.8,10.7,2.3,18.2,6.3,23.1,12.2,5.1,6.3,7,14.6,8.2,21.1,2.4,13.8,2.5,27.8.4,41.6-.3,2.3-.8,4.6-2.4,6.3-2,2.2-5.1,2.4-8.1,2.5-1.8,0-4.5,0-7.9,0ZM127.2,389.6c24.3.8,99.1,1.4,113.4,1.2,2.6,0,5.3-.2,6.9-2,1.3-1.4,1.7-3.4,2-5.5,2-13.7,1.9-27.5-.4-41.1-1.1-6.3-3-14.4-7.8-20.4-4.6-5.7-11.8-9.5-22.1-11.7-40.7-8.6-85.2,14.5-103.7,53.9-3.6,7.7-5.4,17.7.5,22.5,2.9,2.4,6.9,2.8,11.4,2.9h0Z"/>
        </g>
        <path d="M97.2,361.6c-.1,0-.2,0-.3-.2,0-.1,0-.3.2-.3l8.7-2.2c.1,0,.3,0,.3.2,0,.1,0,.3-.2.3l-8.7,2.2s0,0,0,0Z"/>
        <path d="M104.5,345.7s0,0-.1,0c-2.7-1.2-5.6-2.1-8.5-2.7-.1,0-.2-.2-.2-.3,0-.1.2-.2.3-.2,3,.6,5.9,1.5,8.7,2.7.1,0,.2.2.1.4,0,.1-.1.2-.2.2Z"/>
        <path d="M109.5,330.7s0,0-.1,0l-7.3-4.5c-.1,0-.2-.2,0-.4,0-.1.2-.2.4,0l7.3,4.5c.1,0,.2.2,0,.4,0,0-.1.1-.2.1Z"/>
        <path d="M117.8,315s0,0-.1,0l-7-4.2c-.1,0-.2-.2,0-.4,0-.1.2-.2.4,0l7,4.2c.1,0,.2.2,0,.4,0,0-.1.1-.2.1Z"/>
        <path d="M127.7,303.4c0,0-.1,0-.2,0l-6.8-5.6c-.1,0-.1-.3,0-.4,0-.1.3-.1.4,0l6.8,5.6c.1,0,.1.3,0,.4,0,0-.1,0-.2,0Z"/>
        <path d="M138.2,292.9c0,0-.1,0-.2,0l-6.6-6.4c-.1-.1-.1-.3,0-.4.1-.1.3-.1.4,0l6.6,6.4c.1.1.1.3,0,.4,0,0-.1,0-.2,0Z"/>
        <path d="M148.2,282.6c0,0-.1,0-.2,0l-5.8-6c-.1-.1-.1-.3,0-.4.1-.1.3-.1.4,0l5.8,6c.1.1.1.3,0,.4,0,0-.1,0-.2,0Z"/>
        <g>
          <path class="cls-2" d="M199.1,355.1c-17.4,3.4-20.9,22.9-16.6,35.2,3.5,9.9,13.8,19.6,29.4,15.5,18.4-4.9,18.6-24.2,16.6-32.7-4.4-18.7-21.2-19.6-29.4-18Z"/>
          <path d="M204.6,407.6c-11.6,0-19.7-7.9-22.9-17-2.9-8.3-2.1-18.3,2-25.5,3.3-5.8,8.6-9.5,15.2-10.8h0c2.5-.5,24.9-4.2,30.3,18.6,2.2,9.5,1.5,28.7-17.2,33.7-2.6.7-5.1,1-7.5,1ZM199.2,355.9c-6.2,1.2-11.1,4.7-14.1,10-3.9,6.8-4.6,16.3-1.9,24.1,3.6,10.2,13.8,18.8,28.4,14.9,17.5-4.7,18.1-22.8,16-31.7-5-21.3-26-17.8-28.4-17.4h0ZM199.1,355.1h0,0Z"/>
        </g>
        <path d="M204.8,396.4c-7.2,0-12.2-4.6-14.1-9.9-1.7-4.7-1.3-10.4,1-14.6,2-3.6,5.3-5.9,9.6-6.7h0c1.6-.3,15.4-2.5,18.7,10.9,1.4,5.6.9,16.8-10.6,19.7-1.6.4-3.2.6-4.6.6ZM204.9,365.4c-1.8,0-3.1.2-3.5.3h0c-4.1.8-7.3,3-9.2,6.4-2.3,4-2.7,9.6-1,14.2,2.3,6.2,8.8,11.4,18.1,9,11.1-2.8,11.5-13.7,10.2-19.1-2.3-9.3-10-10.8-14.6-10.8ZM201.3,365.5h0,0Z"/>
        <path d="M158.6,273.8c0,0-.2,0-.2-.1-1.7-2.1-3.5-4.1-5.6-5.9-.1,0-.1-.3,0-.4,0-.1.3-.1.4,0,2,1.8,3.9,3.8,5.6,5.9,0,.1,0,.3,0,.4,0,0-.1,0-.2,0Z"/>
        <path d="M168,263.6c0,0-.1,0-.2,0l-5.2-5.4c-.1-.1-.1-.3,0-.4.1-.1.3-.1.4,0l5.2,5.4c.1.1.1.3,0,.4,0,0-.1,0-.2,0Z"/>
        <path d="M177,252.3c0,0-.1,0-.2,0-1.9-1.4-3.5-3-5-4.9,0-.1,0-.3,0-.4.1,0,.3,0,.4,0,1.4,1.8,3.1,3.4,4.9,4.8.1,0,.1.3,0,.4,0,0-.1.1-.2.1Z"/>
        <g>
          <path class="cls-1" d="M23.2,273c4-4.5,11.1-4.9,17-2.5,5.9,2.4,7.8,3.5,12.4,8.2,7.5,7.6,15.3,16.6,21.8,25.3,8.4,11.3,13.4,21,4.3,33.2l-55.5-64.2Z"/>
          <path d="M78.7,338c-.2,0-.5-.1-.6-.3l-55.5-64.2c-.3-.3-.3-.8,0-1.1,4.5-5.1,12.2-5,17.9-2.7,5.9,2.4,7.9,3.6,12.7,8.4,7.6,7.6,15.3,16.6,21.8,25.3,7.8,10.5,14.1,21.1,4.3,34.2-.1.2-.4.3-.6.3,0,0,0,0,0,0ZM24.3,273l54.3,62.9c7.5-10.7,4.1-19.4-4.9-31.4-6.5-8.7-14.2-17.6-21.7-25.2-4.6-4.6-6.4-5.6-12.2-8-4.9-2-11.5-2.2-15.6,1.7Z"/>
        </g>
        <path d="M186.6,241.6c0,0-.1,0-.2,0-1.9-1.4-3.7-2.9-5.2-4.7-.1-.1,0-.3,0-.4.1-.1.3,0,.4,0,1.6,1.7,3.3,3.3,5.2,4.6.1,0,.2.3,0,.4,0,0-.1.1-.2.1Z"/>
        <path d="M195.1,230.1s0,0-.1,0c-1.9-1.2-3.6-2.5-5.2-4.1-.1-.1-.1-.3,0-.4.1-.1.3-.1.4,0,1.6,1.5,3.3,2.9,5.1,4,.1,0,.2.2,0,.4,0,0-.1.1-.2.1Z"/>
        <path d="M203.7,215s0,0,0,0c-2.7-.3-5.3-1.1-7.7-2.3-.1,0-.2-.2-.1-.4,0-.1.2-.2.4-.1,2.4,1.1,5,1.9,7.6,2.2.1,0,.3.2.2.3,0,.1-.1.2-.3.2Z"/>
        <path d="M195.7,199.6c-.1,0-.2,0-.3-.2,0-.1,0-.3.2-.3,2.6-1,5.1-2.2,7.5-3.8.1,0,.3,0,.4,0,0,.1,0,.3,0,.4-2.4,1.6-4.9,2.9-7.6,3.9,0,0,0,0,0,0Z"/>
        <path d="M188.2,192.9s0,0,0,0c-.1,0-.2-.2-.2-.3.9-2.9,1.6-5.9,2.1-9,0-.1.2-.2.3-.2.1,0,.2.2.2.3-.5,3-1.3,6.1-2.2,9,0,.1-.1.2-.3.2Z"/>
        <path d="M176.4,195.4c-.1,0-.2,0-.3-.2-1-2.5-2.2-4.8-3.7-7,0-.1,0-.3,0-.4.1,0,.3,0,.4,0,1.5,2.2,2.8,4.6,3.8,7.1,0,.1,0,.3-.2.4,0,0,0,0,0,0Z"/>
        <path d="M144.9,380.1s0,0,0,0c-8.9-.3-17.9-.3-26.7,0-.1,0-.3-.1-.3-.3,0-.2.1-.3.3-.3,8.9-.3,17.9-.3,26.8,0,.2,0,.3.1.3.3,0,.1-.1.3-.3.3Z"/>
        <path d="M120.9,371.6c-.1,0-.3-.1-.3-.3,0-.2.1-.3.3-.3l10.9-.2h0c.1,0,.3.1.3.3,0,.2-.1.3-.3.3l-10.9.2h0Z"/>
      </g>
      <g>
        <g>
          <path class="cls-2" d="M801.7,284.2c-33.3,6.3-39.9,42.1-31.6,64.7,6.6,18.2,26.3,36,56,28.4,35.2-9,35.4-44.4,31.6-60-8.4-34.4-40.4-36-56-33Z"/>
          <path d="M812.4,379.9c-8.5,0-16.4-2.2-23.4-6.4-8.8-5.4-16-14.3-19.7-24.3-5.4-14.7-4.1-32.5,3.3-45.5,6.2-10.8,16.2-17.8,28.9-20.3,5-.9,18.1-2.6,31.1,2.6,13.4,5.3,22,15.7,25.8,31.1,4.2,17.2,2.9,52-32.2,61-4.8,1.2-9.4,1.8-13.9,1.8ZM801.9,285h0c-12.3,2.3-21.9,9-27.8,19.5-7.1,12.6-8.4,29.9-3.2,44.1,5.8,15.9,20.4,29.7,41.5,29.7,4.3,0,8.8-.6,13.6-1.8,33.8-8.7,35.1-42.4,31-59-9.7-39.8-50.4-33.3-55-32.4Z"/>
        </g>
        <path d="M812.6,366.1c-6,0-11.6-1.6-16.5-4.7-6.2-3.9-11.3-10.4-13.9-17.7-3.9-10.9-2.9-24,2.6-33.5,4.4-7.6,11.3-12.6,20.2-14.3h0c3.5-.7,12.8-1.9,22,1.9,9.4,3.8,15.5,11.4,18.2,22.6,3,12.5,2,37.8-22.7,44.4-3.4.9-6.7,1.3-9.8,1.3ZM805,296.4h0c-8.7,1.7-15.6,6.5-19.8,14-5.3,9.4-6.3,22.3-2.5,33.1,4.2,11.8,14.7,22,29.9,22,3.1,0,6.3-.4,9.8-1.3,24.4-6.4,25.3-31.4,22.3-43.7-7-29.5-36.3-24.7-39.6-24Z"/>
        <g>
          <g>
            <path class="cls-2" d="M851.7,378.1s-85.8-1.1-85.7-.4c.6,3.7,3.7,8.6,8.2,10.2,4.5,1.5,9.5,1.5,14.4,1.5,11.8,0,46.4,1,52.1-.5,11.3-2.8,11-10.9,11-10.9Z"/>
            <path d="M822.3,390.6c-6.5,0-13.8,0-20.4-.2-5.5,0-10.2-.1-13.3-.1-4.7,0-10,0-14.7-1.6-4.8-1.6-8.1-6.8-8.7-10.8,0-.2,0-.5.2-.7.3-.4.5-.5,14.3-.5,7.1,0,17,0,29.4.2,21.1.2,42.4.4,42.6.4.4,0,.8.4.8.8,0,0,.2,8.8-11.6,11.7-2.5.6-9.9.8-18.6.8ZM789.3,388.6c3.1,0,7.6,0,12.6.1,14.6.2,34.5.5,38.6-.6,8.6-2.1,10.1-7.3,10.3-9.3-31.4-.4-77.3-.8-83.9-.5.9,3.4,3.7,7.4,7.5,8.7,4.4,1.5,9.6,1.5,14.1,1.5.2,0,.5,0,.7,0Z"/>
          </g>
          <g>
            <path class="cls-2" d="M852.2,389.2s-85.8-1.1-85.7-.4c.6,3.7,3.7,8.6,8.2,10.2s9.5,1.5,14.4,1.5c11.8,0,46.4,1,52.1-.5,11.3-2.8,11-10.9,11-10.9Z"/>
            <path d="M822.8,401.7c-6.5,0-13.8,0-20.4-.2-5.5,0-10.2-.1-13.3-.1-4.7,0-10,0-14.7-1.6-4.8-1.6-8.1-6.8-8.7-10.8,0-.2,0-.5.2-.7.3-.4.5-.5,14.3-.5,7.1,0,17,0,29.4.2,21.1.2,42.4.4,42.6.4.4,0,.8.4.8.8,0,0,.2,8.8-11.6,11.7-2.5.6-9.9.8-18.6.8ZM789.8,399.7c3.1,0,7.6,0,12.6.1,14.6.2,34.5.5,38.6-.6,8.6-2.1,10.1-7.3,10.3-9.3-31.4-.4-77.3-.8-83.9-.5.9,3.4,3.7,7.4,7.5,8.7,4.4,1.5,9.6,1.5,14.1,1.5.2,0,.5,0,.7,0Z"/>
          </g>
          <g>
            <path class="cls-2" d="M852.2,399.1s-85.8-1.1-85.7-.4c.6,3.7,3.7,8.6,8.2,10.2,4.5,1.5,9.5,1.5,14.4,1.5,11.8,0,46.4,1,52.1-.5,11.3-2.8,11-10.9,11-10.9Z"/>
            <path d="M822.8,411.5c-6.5,0-13.8,0-20.4-.2-5.5,0-10.2-.1-13.3-.1-4.7,0-10,0-14.7-1.6-4.8-1.6-8.1-6.8-8.7-10.8,0-.2,0-.5.2-.7.3-.4.5-.5,14.3-.5,7.1,0,17,0,29.4.2,21.1.2,42.4.4,42.6.4.4,0,.8.4.8.8,0,0,.2,8.8-11.6,11.7-2.5.6-9.9.8-18.6.8ZM789.8,409.6c3.1,0,7.6,0,12.6.1,14.6.2,34.5.5,38.6-.6,8.5-2.1,10-7.3,10.3-9.3-31.4-.4-77.2-.8-83.9-.5.9,3.4,3.7,7.4,7.5,8.7,4.4,1.5,9.6,1.5,14.1,1.5.2,0,.5,0,.7,0Z"/>
          </g>
        </g>
        <g>
          <g>
            <path class="cls-1" d="M842.5,321.9c-.3-2.2-.5-4.5,0-6.6.5-2.2,1.8-4.3,3.8-5.1,1.1-.5,5.5-.5,9.8-.5s4.8,2.1,5.5,5.3c.6,2.6-.3,7.5-.3,7.5,0,0-13.2,3.4-18.9-.7Z"/>
            <path d="M851,324.7c-3.3,0-6.7-.5-9-2.1-.2-.1-.3-.3-.3-.6-.2-2.1-.5-4.6,0-6.9.6-2.7,2.2-4.8,4.3-5.7,1.2-.5,4.8-.5,10.1-.5s5.6,2.5,6.3,6c.6,2.8-.2,7.6-.3,7.8,0,.3-.3.6-.6.7-.3,0-5.4,1.4-10.6,1.4ZM843.3,321.4c4.8,3.1,15,1,17.4.5.2-1.3.6-4.7.2-6.7-.6-2.7-2.6-4.7-4.7-4.7-3.8,0-8.5,0-9.5.4-1.9.8-3,2.8-3.3,4.5-.4,1.9-.2,4,0,6Z"/>
          </g>
          <g>
            <path class="cls-2" d="M865.2,411.2c-7.4.6-15.2.7-22.8.3-5.1-.3-9.4-3.1-11.6-6.9-2.2-3.8-3.4-8.1-4.1-12.4-1.8-11.9-.1-24.4,7.1-34.8,2.2-3.1,4.9-6.7,3.1-10-.7-1.3-2-2.3-3-3.3-3.5-3.6-4.5-8.9-2.4-13.2,2.2-4.6,11.3-8.7,11.3-8.7l19-.2s2.9,1,4.2,1.6c6.3,3.4,9.3,8.3,7.8,14.4-.8,3.4-2.6,5.3-4.1,6.8-3.8,3.8-1.8,6.6-.2,9,2.2,3.4,5.5,6.7,7,15.3,2.2,12.7,3.8,26.9-3.3,38-1.4,2.2-3.5,3.6-7.8,4Z"/>
            <path d="M851.7,412.5c-3.1,0-6.3,0-9.5-.2-5.1-.3-9.8-3-12.3-7.3-2-3.4-3.4-7.6-4.2-12.6-1.4-9.3-1.4-23.1,7.2-35.4l.3-.4c2-2.8,4.2-6,2.8-8.7-.4-.8-1.2-1.5-2-2.3-.3-.3-.6-.6-.9-.9-3.8-3.9-4.8-9.4-2.6-14.1,2.3-4.9,11.3-8.9,11.7-9.1.1,0,.2,0,.3,0l19-.2c0,0,.2,0,.3,0,.1,0,3,1,4.3,1.7,6.8,3.7,9.7,9.1,8.2,15.3-.9,3.5-2.6,5.5-4.3,7.2-3.2,3.2-1.8,5.4-.2,7.8v.2c.5.6.9,1.1,1.3,1.7,2.1,2.9,4.6,6.5,5.9,13.9,2.4,13.6,3.6,27.6-3.4,38.6-1.8,2.7-4.3,4-8.4,4.4h0c-4.3.4-8.8.5-13.5.5ZM842.9,323c-1.2.5-8.9,4.2-10.8,8.2-1.9,4-1,8.9,2.3,12.3.3.3.6.6.9.9.8.8,1.7,1.6,2.3,2.7,1.9,3.6-.7,7.3-2.9,10.4l-.3.4c-8.3,11.9-8.3,25.2-6.9,34.2.8,4.9,2.1,8.8,4,12.1,2.2,3.8,6.4,6.3,10.9,6.5,7.9.4,15.6.3,22.7-.3h0c4.5-.4,6.1-2,7.2-3.6,6.8-10.5,5.5-24.1,3.2-37.4-1.2-7-3.6-10.3-5.6-13.2-.4-.6-.8-1.2-1.2-1.8v-.2c-1.7-2.4-3.9-5.7.3-9.8,1.6-1.6,3.2-3.3,3.9-6.5,1.7-6.9-3.1-11.2-7.4-13.5-1-.5-3.3-1.4-3.9-1.5h-18.6Z"/>
          </g>
          <path d="M833.8,368.1c-.1,0-.3-.1-.3-.3,0-.1.1-.3.3-.3l37.8-.6h0c.1,0,.3.1.3.3,0,.1-.1.3-.3.3l-37.8.6h0Z"/>
          <path d="M833,399.5c-.1,0-.3-.1-.3-.3,0-.2.1-.3.3-.3,13.6-.7,27.4-.9,41.1-.5.2,0,.3.1.3.3,0,.2-.1.3-.3.3-13.6-.4-27.4-.3-41,.5,0,0,0,0,0,0Z"/>
          <path d="M832.7,372.2c-.1,0-.3-.1-.3-.3,0-.2.1-.3.3-.3,2.9,0,5.8,0,8.7,0,.2,0,.3.1.3.3,0,.1-.1.3-.3.3h0c-2.9,0-5.8,0-8.7,0h0Z"/>
        </g>
        <path d="M786.7,318s0,0,0,0c-.1,0-.2-.2-.2-.3,1-4.2,3.3-8,6.4-10.9.1-.1.3,0,.4,0,.1.1,0,.3,0,.4-3.1,2.8-5.3,6.5-6.3,10.6,0,.1-.1.2-.3.2Z"/>
      </g>
      <g>
        <g>
          <g>
            <path class="cls-2" d="M367.3,349.4c0-25.9,0-51.7-.1-77.6,0-2.8,0-5.8-1.2-8.3-1.1-2.5-3.7-2.7-5.9-1.5-2.4,1.3-2.8,3.6-2.8,6.8-.4,26.9-.7,53.8-.9,80.7,3.6-.2,7.3-.3,10.9-.1Z"/>
            <path d="M356.4,350.4c-.2,0-.4,0-.6-.2-.2-.2-.3-.4-.3-.6.2-27.9.5-55,.9-80.7,0-2.9.3-5.9,3.3-7.5,1.5-.8,3-1,4.4-.6,1.2.4,2.1,1.2,2.6,2.5,1.2,2.7,1.2,6,1.2,8.6,0,14.4,0,28.9,0,43.3v34.2c0,.2,0,.4-.2.6-.2.2-.4.2-.6.2-3.4-.1-7,0-10.8.1,0,0,0,0,0,0ZM362.6,262.2c-.7,0-1.4.2-2.1.6-2,1.1-2.4,3-2.4,6.1-.4,25.4-.7,52.2-.9,79.8,3.3-.2,6.3-.2,9.3-.1v-33.4c0-14.4,0-28.9-.1-43.3,0-2.6,0-5.6-1.1-8-.4-.8-.9-1.3-1.7-1.6-.3,0-.6-.1-1-.1Z"/>
          </g>
          <g>
            <path class="cls-2" d="M322.4,392.1c-.7-14-.7-28.1.3-42.1,1.5-22.2,16.1-33.4,37.8-34.1,6.9-.2,13.9.8,20.3,3.1,6.5,2.3,12.4,6.5,16.1,12.3,2.1,3.3,3.4,7,4.2,10.7,1.3,5.7,1.6,11.7,1.8,17.5.5,10.8.9,21.6.4,32.4l-81,.2Z"/>
            <path d="M322.4,392.9c-.4,0-.8-.3-.8-.8-.7-15.2-.6-29,.3-42.2,1.5-21.7,15.2-34.1,38.6-34.9,7.1-.2,14.2.8,20.6,3.2,7.1,2.6,13,7.1,16.5,12.7,1.9,3.1,3.4,6.7,4.4,11,1.3,5.8,1.6,11.8,1.8,17.7.5,10.6.9,21.6.4,32.5,0,.4-.4.8-.8.8l-81,.2h0ZM362.5,316.6c-.6,0-1.3,0-1.9,0-22.5.8-35.7,12.6-37.1,33.4-.9,12.9-1,26.4-.3,41.3l79.4-.2c.5-10.5,0-21.2-.5-31.5-.3-5.8-.5-11.7-1.8-17.4-.9-4.1-2.3-7.6-4.1-10.5-3.3-5.3-8.9-9.5-15.7-12-5.6-2-11.8-3.1-18.1-3.1Z"/>
          </g>
          <path d="M397.4,379.4s0,0,0,0c-.2,0-.3-.1-.3-.3.4-9.1-.7-18.1-3.4-26.8-3.3-10.9-8.9-18.2-16.4-21.7-2.5-1.2-5.5-2-9.2-2.6-10.1-1.6-21.5,1.8-28.2,8.3-7.3,7.1-12.4,27.9-12.5,42.9,0,.1-.1.3-.3.3h0c-.2,0-.3-.1-.3-.3.2-15.1,5.3-36.1,12.7-43.2,6.9-6.7,18.4-10.1,28.7-8.5,3.7.6,6.8,1.4,9.3,2.6,7.7,3.6,13.3,11,16.7,22.1,2.7,8.8,3.8,17.9,3.4,27,0,.1-.1.3-.3.3Z"/>
        </g>
        <g>
          <g>
            <path d="M271.4,376.8c-.7,0-1.5,0-2.2-.1-2.4-.3-4.1-1-5.1-2.4-1.8-2.3-1-5.7.7-7.7,1.1-1.3,4.8-2.5,9.6-3.8,1.6-.5,3-.9,3.7-1.1.4-.2.9,0,1.1.4.2.4,0,.9-.4,1.1-.7.3-2.1.7-3.9,1.2-2.9.8-7.9,2.2-8.8,3.3-1.3,1.5-1.9,4.1-.6,5.7.7,1,2.1,1.5,4,1.7,4.3.4,8.6-.6,12.8-1.7.8-.2,1.6-.4,2.5-.6,5-1.2,10.9-2.1,16,.3.4.2.6.7.4,1.1-.2.4-.7.6-1.1.4-4.7-2.1-10.2-1.3-15-.2-.8.2-1.6.4-2.4.6-3.6.9-7.4,1.8-11.2,1.8Z"/>
            <path d="M263.7,371c0,0-.1,0-.2,0-.9-.2-1.6-.3-2.2-.5-3.5-.7-3.6-.8-9.1-7.9-.9-1.2-2-2.6-3.3-4.2-3-3.8-6.6-4.6-8.3-3.9-.8.3-1.1.9-1,1.7,0,.4-.3.9-.7.9-.4,0-.9-.3-.9-.7-.2-1.6.5-2.9,2-3.5,2.5-1,6.9.2,10.2,4.4,1.3,1.6,2.3,3,3.3,4.2q5.2,6.7,8.1,7.3c.6.1,1.4.3,2.3.5.4.1.7.5.6,1,0,.4-.4.6-.8.6Z"/>
            <path d="M269.4,365.9c-.1,0-.3,0-.4-.1-1.4-.9-3.2-1.5-5-2.1-3.3-1.1-7-2.4-9.8-5.6-.8-.9-1.4-1.7-2-2.5-1.1-1.6-2.1-2.9-4.8-4.7-.4-.3-.5-.8-.2-1.1.3-.4.8-.5,1.1-.2,2.9,1.9,4,3.5,5.2,5.1.5.7,1.1,1.5,1.9,2.4,2.6,2.9,5.9,4,9.1,5.1,1.9.7,3.8,1.3,5.4,2.3.4.2.5.7.3,1.1-.2.2-.4.4-.7.4Z"/>
          </g>
          <g>
            <path class="cls-2" d="M340.7,349.3s-21.2,4.9-25.3,4.1c-5.8-1.2-10.5-2.5-16.3-.6-3,1-6.8,3.4-9.5,5-5.4,3.3-5.1,2.8-8.7,4-4.5-1.2-9.7-2.8-13.8-5.2-5.3-3.1-10.7-6.8-12.2-7.8-4.2-2.5-5.3-.2-7,1.3-2.2-1.5-7.6-1.5-7.2,2.8.1,1.3-1.7.7-1.8,3.4-.3,4.5,9.8,15,18,21.4,7.8,3.9,20.7,10.9,31.8,13.3,5.1,1.1,25.9-8.1,38.9-12.7,7.6-2.7,5.7-.7,11.4-1.8,2.7-2.6,1.7-27.3,1.7-27.3Z"/>
            <path d="M289.7,392.1c-.4,0-.8,0-1.2-.1-10-2.2-21.5-8.1-29.2-12-1-.5-1.9-1-2.8-1.4,0,0,0,0-.1,0-7.8-6.2-18.6-17.1-18.3-22.1.1-1.9,1-2.6,1.6-3,.1,0,.2-.2.3-.2,0,0,0,0,0,0-.2-1.7.4-3.1,1.7-3.9,1.7-1.1,4.4-.9,6.1,0,.1-.1.2-.2.3-.3,1.4-1.3,3.2-3,7.2-.6.6.3,1.6,1,2.9,1.9,2.5,1.6,5.9,3.9,9.3,5.9,3.8,2.3,8.7,3.8,13.4,5.1.7-.2,1.2-.4,1.7-.6,1.8-.6,2.5-.8,6.6-3.3l.5-.3c2.6-1.6,6.3-3.8,9.2-4.8,5.6-1.8,10.1-.9,15.4.3l1.3.3c3.2.7,19.1-2.7,24.9-4.1.2,0,.5,0,.7.1.2.1.3.4.3.6.2,4.2.9,25.1-1.9,27.9-.1.1-.3.2-.4.2-2.4.4-3.5.4-4.5.3-1.3,0-2.4-.1-6.8,1.4-3.6,1.3-7.8,2.9-12.1,4.6-10.9,4.3-21.3,8.3-26,8.3ZM257.3,377.1c.8.4,1.8.9,2.7,1.4,7.6,3.9,19.1,9.7,28.8,11.8,3.5.8,15.6-3.9,26.3-8.1,4.4-1.7,8.6-3.3,12.2-4.6,4.8-1.7,5.9-1.6,7.4-1.5.8,0,1.8,0,3.8-.2,1.5-2.2,1.7-15.8,1.4-25.5-4.5,1-20.9,4.7-24.6,3.9l-1.3-.3c-5.2-1.1-9.4-2-14.6-.3-2.7.9-6.3,3.1-8.9,4.6l-.5.3c-4.3,2.6-5.1,2.9-7,3.5-.5.2-1.1.3-1.9.6-.2,0-.3,0-.5,0-4.9-1.4-9.9-2.9-14-5.3-3.5-2-6.9-4.3-9.4-5.9-1.3-.9-2.3-1.5-2.9-1.8-3-1.8-3.9-.8-5.3.4-.3.3-.5.5-.9.8-.3.2-.7.2-1,0-1.2-.8-3.6-1.1-4.9-.3-.8.5-1.1,1.2-1,2.3.1,1-.5,1.5-.9,1.8-.4.3-.8.6-.9,1.7-.2,3.9,8.9,13.8,17.6,20.7Z"/>
          </g>
          <path d="M276.4,374.5c-2.8,0-5.1-.7-6.8-3-1.9-2.5-.6-4.6.9-6.4,1.1-1.3,4.8-2.5,9.6-3.8,1.6-.5,3-.9,3.7-1.1.4-.2.9,0,1.1.4.2.4,0,.9-.4,1.1-.7.3-2.1.7-3.9,1.2-2.9.8-7.9,2.2-8.8,3.3-1.7,2-1.9,3.1-.9,4.4,2.5,3.3,6.8,2.5,13.3,1.3,4.1-.7,9.1-1.7,14.9-1.7s.8.4.8.8-.4.8-.8.8c-5.6,0-10.4.9-14.6,1.6-3,.6-5.7,1-8,1Z"/>
          <path d="M271.7,373.3c-.1,0-.2,0-.4,0-7.6-3.7-14.6-8.2-20.1-13-.3-.3-.7-.6-1.1-1-2.3-2.1-6.5-5.9-9.3-4.8-.4.2-.9,0-1.1-.5-.2-.4,0-.9.5-1.1,3.8-1.5,8.3,2.6,11,5.1.4.4.7.7,1,.9,5.4,4.7,12.3,9.1,19.8,12.7.4.2.6.7.4,1.1-.1.3-.4.5-.7.5Z"/>
          <path d="M271.7,365.9c0,0-.1,0-.2,0-6.1-1.5-12.5-6.4-17.6-10.4-2.6-2-4.8-3.7-6.6-4.7-.4-.2-.5-.7-.3-1.1.2-.4.7-.5,1.1-.3,1.8,1,4.1,2.8,6.8,4.8,5,3.9,11.2,8.7,17,10.1.4.1.7.5.6,1,0,.4-.4.6-.8.6Z"/>
          <g>
            <path class="cls-1" d="M260.3,302.2c4.5-1,8.4-3.9,10.9-7.4,2.5-3.5,3.8-7.7,4.4-11.8.5,3.2,1.3,6.3,2.4,9.4,1.5,4.4,3.7,7.8,10.2,9.8-7.4,3.9-12.3,11.3-12.7,18.9-.5-4.1-1.1-8.4-3.7-11.9-2.4-3.3-6.6-5.5-11.5-7Z"/>
            <path d="M275.6,321.9c-.4,0-.8-.3-.8-.7-.5-3.8-1-8.1-3.5-11.5-2.1-2.8-5.8-5.1-11.1-6.7-.4-.1-.6-.4-.6-.8,0-.4.3-.7.6-.8,4-.9,7.8-3.5,10.4-7.1,2.2-3.1,3.6-6.8,4.3-11.4,0-.4.4-.7.8-.7.4,0,.7.3.8.7.5,3.1,1.3,6.2,2.4,9.2,1.6,4.5,3.6,7.4,9.7,9.2.3,0,.5.4.6.7,0,.3-.1.6-.4.8-7.1,3.7-11.9,10.9-12.3,18.3,0,.4-.4.8-.8.8,0,0,0,0,0,0ZM263,302.3c4.4,1.7,7.5,3.8,9.5,6.5,1.7,2.2,2.5,4.8,3.1,7.3,1.6-5.5,5.5-10.5,10.7-13.7-5.4-2.1-7.5-5.4-9-9.7-.6-1.8-1.2-3.7-1.7-5.6-.8,3.2-2.1,5.9-3.8,8.2-2.3,3.2-5.4,5.6-8.9,7Z"/>
          </g>
          <g>
            <path class="cls-1" d="M289.1,326.8c3.3-.7,6.1-2.5,7.9-4.8s2.8-4.9,3.2-7.6c.4,2,1,4.1,1.8,6.1,1.1,2.9,2.7,5,7.4,6.3-5.4,2.5-9,7.3-9.2,12.2-.4-2.7-.8-5.4-2.7-7.7-1.8-2.1-4.8-3.5-8.4-4.5Z"/>
            <path d="M300.2,339.8c-.4,0-.8-.3-.8-.7-.3-2.4-.7-5.2-2.5-7.2-1.5-1.8-4.2-3.2-8-4.3-.4,0-.6-.4-.6-.8,0-.4.3-.7.7-.8,2.9-.6,5.6-2.2,7.4-4.5,1.5-1.9,2.6-4.3,3.1-7.2,0-.4.4-.7.8-.7h0c.4,0,.7.3.8.7.4,2,1,4,1.7,5.9,1.1,2.8,2.6,4.6,6.9,5.8.3,0,.6.4.6.7,0,.3-.2.7-.5.8-5.1,2.4-8.5,6.9-8.8,11.5,0,.4-.4.8-.8.8,0,0,0,0,0,0ZM291.9,326.8c2.8,1,4.9,2.4,6.3,4,1.1,1.3,1.7,2.7,2.1,4.2,1.3-3.2,3.8-6.1,7.1-8.1-3.5-1.4-5-3.5-6.1-6.2-.4-1-.7-2-1-3-.6,1.8-1.5,3.4-2.6,4.7-1.5,1.9-3.5,3.4-5.8,4.3Z"/>
          </g>
          <path d="M335.3,372.5s0,0,0,0c-.1,0-.2-.2-.2-.3.8-4.1,1.1-8.2.8-12.3,0-.2.1-.3.3-.3.2,0,.3.1.3.3.2,4.2,0,8.4-.8,12.5,0,.1-.1.2-.3.2Z"/>
          <path d="M330.9,372.7s0,0,0,0c-.1,0-.2-.2-.2-.3.5-1.4.7-2.9.7-4.4,0-.2.1-.3.3-.3h0c.2,0,.3.1.3.3,0,1.6-.3,3.1-.8,4.6,0,.1-.1.2-.3.2Z"/>
        </g>
      </g>
    </g>
  </g>
</svg>