<?xml version="1.0" encoding="UTF-8"?>
<svg xmlns="http://www.w3.org/2000/svg" xmlns:xlink="http://www.w3.org/1999/xlink" version="1.1" viewBox="0 0 344 55.9">
  <defs>
    <style>
      .cls-1 {
        fill: none;
      }

      .cls-2 {
        fill: #fff;
      }

      .cls-3 {
        clip-path: url(#clippath);
      }
    </style>
    <clipPath id="clippath">
      <rect class="cls-1" x="13" y="12.3" width="35.3" height="42.5"/>
    </clipPath>
  </defs>
  <!-- Generator: Adobe Illustrator 28.7.3, SVG Export Plug-In . SVG Version: 1.2.0 Build 164)  -->
  <g>
    <g id="_圖層_1" data-name="圖層_1">
      <g>
        <g class="cls-3">
          <path class="cls-2" d="M36.3,53.4c-10.9,0-19.7-8.8-19.7-19.7s8.8-19.7,19.7-19.7,8.4,1.4,11.7,3.8c-3.7-3.3-8.6-5.2-13.9-5.2-11.7,0-21.1,9.5-21.1,21.1s9.5,21.1,21.1,21.1,10.2-2,13.9-5.2c-3.3,2.4-7.3,3.8-11.7,3.8"/>
        </g>
        <path class="cls-2" d="M54.4,35.5c-2.1,9.7-11.7,15.8-21.3,13.7-9.7-2.1-15.8-11.7-13.7-21.3.8-3.9,2.9-7.2,5.7-9.6-3.6,2.7-6.3,6.6-7.3,11.3-2.3,10.3,4.3,20.6,14.6,22.8,10.3,2.3,20.6-4.3,22.8-14.6,1-4.7.2-9.4-2-13.4,1.5,3.4,2,7.2,1.1,11.1"/>
        <path class="cls-2" d="M51.2,18.8h0c0-.3,0-.5,0-.7,0-.2,0-.4,0-.6,0,0,0-.2,0-.3,0,0,0-.2,0-.3,0-.2,0-.4,0-.6,0-.2,0-.4-.1-.6h0c0-.2,0-.2,0-.3v-.3c0,0-.1-.2-.1-.3h0c0,0,0-.1,0-.1h0c0-.3-.1-.5-.2-.7,0-.2-.1-.4-.2-.6h0c0-.2,0-.2,0-.3,0,0,0-.2-.1-.3,0,0,0-.2-.1-.3,0,0,0-.2-.1-.3,0,0,0-.2-.1-.3,0,0,0-.2-.1-.3,0-.2-.2-.4-.3-.6-.4-.7-.8-1.4-1.3-2.1-.5-.7-1.1-1.3-1.6-1.9l-.5-.4-.5-.4h-.1c0-.1-.1-.2-.1-.2l-.2-.2-.2-.2-.5-.4h-.1c0-.1,0-.1-.1-.2-.2-.1-.3-.2-.5-.3-.4-.2-.7-.4-1.1-.6-.2,0-.4-.2-.6-.3-.2,0-.4-.2-.6-.3-.2,0-.4-.2-.6-.2h-.1c0,0,0,0-.1-.1,0,0-.2,0-.3,0-.4-.1-.8-.2-1.1-.3-.2,0-.4,0-.6-.1,0,0-.2,0-.3,0,0,0-.2,0-.3,0-.2,0-.4,0-.6,0,0,0-.2,0-.3,0,0,0-.2,0-.3,0-.4,0-.8,0-1.1,0-.7,0-1.5,0-2.2,0-1.4.1-2.7.4-3.9.8-.6.2-1.1.4-1.6.7-.5.2-1,.5-1.4.8-.4.3-.8.5-1.2.8-.3.3-.7.5-.9.7-.5.5-.9.9-1.2,1.1-.1.1-.2.2-.3.3,0,0,0,.1,0,.1,0,0,0,0,.1-.1,0,0,.2-.2.3-.3.3-.3.7-.6,1.2-1.1.3-.2.6-.4.9-.7.4-.2.7-.5,1.2-.7.4-.2.9-.5,1.4-.7.5-.2,1-.4,1.6-.6,1.1-.3,2.4-.6,3.8-.6.7,0,1.4,0,2.1,0,.4,0,.7,0,1.1.1,0,0,.2,0,.3,0,0,0,.2,0,.3,0,.2,0,.4,0,.5.1,0,0,.2,0,.3,0,0,0,.2,0,.3,0,.2,0,.4.1.5.2.4.1.7.2,1.1.4,0,0,.2,0,.3.1,0,0,0,0,.1,0h.1c.2.1.3.2.5.3.2,0,.3.2.5.3.2,0,.3.2.5.3.3.2.7.4,1,.6.2.1.3.2.5.3,0,0,0,0,.1,0h.1c0,0,.2.3.2.3l.2.2.2.2.2.2h.1c0,0,.1.2.1.2l.4.4.4.4c.5.6,1,1.2,1.4,1.8.4.6.8,1.3,1.1,2,0,.2.2.3.2.5,0,0,0,.2.1.3,0,0,0,.2,0,.3,0,0,0,.2,0,.3,0,0,0,.2,0,.3,0,0,0,.2,0,.3,0,0,0,0,0,.1h0c0,.3,0,.5.1.7,0,.2,0,.4.1.5h0c0,.1,0,.2,0,.2h0c0,.2,0,.2,0,.3,0,0,0,.2,0,.3,0,0,0,0,0,.1h0c0,.3,0,.5,0,.7,0,.2,0,.4,0,.5,0,0,0,.2,0,.3,0,0,0,.2,0,.3,0,.2,0,.3,0,.5,0,.2,0,.3,0,.5h0c0,.2,0,.2,0,.3,0,0,0,.2,0,.2,0,0,0,.2,0,.2h0c0,.2,0,.2,0,.2,0,.2,0,.3,0,.5,0,0,0,.2,0,.2,0,0,0,.2,0,.2,0,.2,0,.3,0,.5,0,.2,0,.3-.1.5,0,0,0,.1,0,.2,0,0,0,.1,0,.2,0,.1,0,.3-.1.4,0,.1,0,.3-.1.4,0,.1,0,.3-.1.4,0,.1,0,.3-.2.4-.4,1-.9,1.9-1.4,2.7-.5.8-1,1.4-1.5,1.8,0,0-.1.1-.2.2,0,0-.1.1-.2.2,0,0,0,0-.1.1.3.2.5.4.6.5.5.5.9,1,1.2,1.5,0,0,.2-.2.3-.3,0,0,.1-.1.2-.2,0,0,.1-.1.2-.2.5-.6,1.1-1.3,1.6-2.2s1.1-2,1.5-3.2c0-.2.1-.3.2-.5,0-.2.1-.3.1-.5,0-.2,0-.3.1-.5,0-.2,0-.3.1-.5,0,0,0-.2,0-.3,0,0,0-.2,0-.3,0-.2,0-.3,0-.5,0-.2,0-.4,0-.5,0,0,0-.2,0-.3,0,0,0-.2,0-.3,0-.2,0-.4,0-.6,0,0,0,0,0-.1h0c0-.2,0-.3,0-.4,0,0,0-.2,0-.3s0,0,0-.1"/>
        <path class="cls-2" d="M29,33.7s4.7.6,8.7-2.6c0,0-2.5,3.7-8.7,2.6ZM40.1,28.4c-9,8-16.7,3-16.7,3,0,0,1,5.2,4.6,5.2,0,0-2.3.5-4.1-1.2,1,4.3,3.7,7.1,6.3,8.8,0,0,1.8,0,2.5-.6,0,0-.7.8-1.4,1.3,1.8,1.1,3.4,1.6,4.2,1.8.8-.4,1.5-1,1.5-1-.3.7-1,1.1-1,1.1,6.7-1.9,10.3-12.1,10.3-12.1l-6.1-6.3"/>
        <path class="cls-2" d="M46.2,32.9s0-1.3-.9-3.1c0,0,1.2,1.2.9,3.1ZM45.1,29.3s-2.2-2.1-4.7-1.1l5.9,6.1c.3-1,.7-3.4-1.2-5"/>
      </g>
      <g>
        <path class="cls-2" d="M84.4,6.1c.7,0,1.3.2,1.9.6.5.4.9,1,1.1,1.6l5.6,19.8,4.3-20.5c0-.4.3-.8.7-1.1.4-.3.8-.5,1.3-.5s1,.2,1.4.6c.4.4.6.9.6,1.4l-4.8,21.9c-.2.8-.6,1.5-1.2,2-.7.6-1.4.9-2.2.9s-1.6-.2-2.2-.7c-.6-.5-1.1-1.1-1.3-1.8l-5.1-18.5-5.1,18.5c-.2.8-.6,1.4-1.3,1.8-.6.5-1.4.7-2.2.7s-1.5-.3-2.2-.9c-.7-.5-1.1-1.2-1.3-2l-4.8-21.9c0-.5.2-1,.6-1.4.4-.4.8-.6,1.4-.6s.9.2,1.3.5c.4.3.6.7.7,1.1l4.3,20.5,5.6-19.8c.2-.6.5-1.2,1.1-1.6.5-.4,1.2-.6,1.9-.6Z"/>
        <path class="cls-2" d="M115.4,29.1c.5,0,.9.2,1.3.5.3.4.5.8.5,1.3s-.1.8-.4,1.1c-.3.3-.6.5-1.1.6-1.5.3-3.1.5-5,.5-3,0-5.3-.9-6.9-2.7-1.5-1.8-2.3-4-2.3-6.8s.7-5,2.2-6.8c1.5-1.8,3.5-2.6,6.3-2.6s4.8.8,6.3,2.3c1.4,1.5,2.1,3.6,2.1,6s-.3,1.4-.9,2c-.6.5-1.3.8-2,.8h-10.1c.3,1.5.9,2.6,1.8,3.2.9.6,2.5.9,4.8.9s1.7-.1,3.3-.3ZM114.5,21.9c-.3-1.5-.8-2.5-1.5-3.1-.7-.6-1.8-.9-3.1-.9s-2.3.3-3,.9c-.7.6-1.2,1.6-1.5,3h9.1Z"/>
        <path class="cls-2" d="M137.9,33.2c-1.1,0-2.2-.1-3.3-.4-1.1-.2-2.3-.6-3.5-1.3-1.2-.6-2.3-1.5-3.3-2.5-1-1-1.8-2.4-2.4-4.1-.6-1.7-1-3.7-1-5.9s.4-4.4,1.2-6.1c.8-1.8,1.9-3.1,3.2-4.1,1.3-1,2.8-1.7,4.3-2.2,1.5-.5,3-.7,4.6-.7,2.5,0,4.8.6,7,1.8.6.4.9.9.9,1.6s-.2.9-.5,1.2c-.3.4-.8.5-1.3.5s-.6,0-.8-.2c-1.7-.8-3.5-1.2-5.3-1.2-6.2,0-9.4,3.2-9.4,9.6s.2,3.2.6,4.5c.4,1.3,1,2.3,1.6,3,.6.7,1.4,1.3,2.3,1.7.9.5,1.7.7,2.5.9.7.1,1.5.2,2.4.2,1.8,0,3.5-.4,5.3-1.2.2-.1.5-.2.8-.2.5,0,.9.2,1.3.5.3.3.5.8.5,1.3s-.3,1.2-.9,1.5c-2.2,1.2-4.5,1.8-6.9,1.8Z"/>
        <path class="cls-2" d="M147.2,8.1c0-.5.2-1,.6-1.4.4-.4.8-.6,1.4-.6s1,.2,1.4.6.6.9.6,1.4v22.8c0,.5-.2,1-.6,1.4s-.9.6-1.4.6-1-.2-1.4-.6c-.4-.4-.6-.9-.6-1.4V8.1Z"/>
        <path class="cls-2" d="M166.7,29.1c.5,0,.9.2,1.3.5.3.4.5.8.5,1.3s-.1.8-.4,1.1c-.3.3-.6.5-1,.6-1.5.3-3.2.5-5,.5-3,0-5.3-.9-6.9-2.7-1.5-1.8-2.3-4-2.3-6.8s.7-5,2.2-6.8c1.5-1.8,3.6-2.6,6.3-2.6s4.8.8,6.3,2.3c1.4,1.5,2.1,3.6,2.1,6s-.3,1.4-.9,2c-.6.5-1.3.8-2,.8h-10c.3,1.5.9,2.6,1.8,3.2.9.6,2.5.9,4.8.9s1.7-.1,3.3-.3ZM165.8,21.9c-.3-1.5-.8-2.5-1.5-3.1-.7-.6-1.7-.9-3-.9s-2.4.3-3.1,1c-.7.6-1.2,1.6-1.4,3h9Z"/>
        <path class="cls-2" d="M183.4,30.9c-1.5,1.5-3.7,2.2-6.5,2.2h-.5c-.3,0-.6,0-1,0-.4,0-.9-.2-1.5-.5-.6-.2-1.2-.6-1.6-1-.5-.4-.9-1-1.3-1.8-.4-.8-.5-1.7-.5-2.8,0-1.6.5-2.9,1.6-4,1-1,2.5-1.5,4.5-1.5s4.9.6,6.9,1.9v-1.5c0-1.3-.5-2.3-1.4-3-1-.7-2.7-1-5.3-1s-1.7,0-2.7.3c-.5,0-.9-.2-1.2-.5-.3-.3-.5-.7-.5-1.2,0-.9.4-1.5,1.3-1.7,1.2-.4,2.9-.5,4.9-.5s5,.7,6.6,2c1.6,1.3,2.3,3.2,2.3,5.6v9.2c0,.5-.2,1-.6,1.4-.4.4-.9.6-1.4.6s-1-.2-1.4-.6c-.4-.4-.6-.8-.6-1.4ZM183.4,26.6c-1.1-1.1-2.8-1.6-4.9-1.6s-2.7.2-3.2.5c-.5.4-.8.9-.8,1.6,0,1.5,1.3,2.2,4.1,2.2s2.1-.2,2.9-.5c.8-.3,1.4-.5,1.6-.8l.4-.5v-1.1Z"/>
        <path class="cls-2" d="M189.4,16.5c0-.5.2-1,.6-1.4.4-.4.8-.6,1.4-.6,1.1,0,1.7.7,2,2.1,1.5-1.6,3.7-2.4,6.4-2.4s3.1.7,4.4,2c1.3,1.3,2,2.9,2,4.8v9.9c0,.5-.2,1-.6,1.4-.4.4-.9.6-1.4.6s-1-.2-1.4-.6c-.4-.4-.6-.9-.6-1.4v-9.4c0-1.2-.4-2.2-1.1-2.7-.8-.5-1.6-.8-2.6-.8s-1.3.1-1.9.3c-.6.2-1.1.5-1.4.9-.4.3-.7.7-1,1-.3.3-.5.6-.6.9l-.2.3v9.6c0,.5-.2,1-.6,1.4-.4.4-.9.6-1.4.6s-1-.2-1.4-.6c-.4-.4-.6-.9-.6-1.4v-14.4Z"/>
        <path class="cls-2" d="M62.4,44h-1.9c-.2,0-.3,0-.4-.2-.1-.1-.2-.2-.2-.4s0-.3.2-.4c.1-.1.2-.2.4-.2h4.9c.2,0,.3,0,.4.2.1.1.2.2.2.4s0,.3-.2.4c-.1.1-.2.2-.4.2h-1.9v6.3c0,.2,0,.3-.2.4-.1.1-.3.2-.4.2s-.3,0-.4-.2c-.1-.1-.2-.3-.2-.4v-6.3Z"/>
        <path class="cls-2" d="M72.3,50.3c0,.2,0,.3-.2.4s-.3.2-.4.2-.3,0-.4-.2c-.1-.1-.2-.3-.2-.4v-2.8c0-.4-.1-.7-.3-.8-.2-.2-.5-.2-.8-.2s-.4,0-.6,0c-.2,0-.3.2-.4.3-.1,0-.2.2-.3.3,0,.1-.2.2-.2.3h0v3c0,.2,0,.3-.2.4s-.3.2-.4.2-.3,0-.4-.2c-.1-.1-.2-.3-.2-.4v-6.8c0-.2,0-.3.2-.4.1-.1.2-.2.4-.2s.3,0,.4.2.2.3.2.4v2.5c.5-.5,1.1-.7,1.9-.7s.9.2,1.3.6c.4.4.6.9.6,1.4v3Z"/>
        <path class="cls-2" d="M77.8,49.8c.1,0,.3,0,.4.2,0,.1.2.2.2.4s0,.2-.1.3c0,.1-.2.2-.3.2-.4,0-.9.2-1.5.2-.9,0-1.6-.3-2-.8-.5-.5-.7-1.2-.7-2s.2-1.5.7-2c.4-.5,1.1-.8,1.9-.8s1.4.2,1.9.7c.4.5.6,1.1.6,1.8s0,.4-.3.6c-.2.2-.4.2-.6.2h-3c0,.5.3.8.5.9.3.2.7.3,1.4.3s.5,0,1,0ZM77.6,47.6c0-.4-.2-.7-.4-.9-.2-.2-.5-.3-.9-.3s-.7,0-.9.3c-.2.2-.4.5-.4.9h2.7Z"/>
        <path class="cls-2" d="M85.5,46.4c-.4,0-.8.1-1.1.4-.4.3-.5.7-.5,1.3s.2,1.1.5,1.4c.3.3.7.4,1.1.4s.7,0,1.1-.2c0,0,.2,0,.2,0,.1,0,.3,0,.4.2,0,.1.2.2.2.4,0,.2,0,.4-.3.5-.4.2-1,.3-1.8.3-.2,0-.4,0-.6-.1-.2,0-.5-.2-.7-.3-.3-.1-.5-.3-.7-.5-.2-.2-.3-.5-.5-.8-.1-.3-.2-.7-.2-1.2s0-.9.3-1.3c.2-.4.4-.7.7-.9.3-.2.6-.4.9-.5.3-.1.6-.2.9-.2.8,0,1.3.1,1.8.3.2.1.3.3.3.5s0,.3-.2.4-.2.2-.4.2-.2,0-.2,0c-.3-.1-.7-.2-1.1-.2Z"/>
        <path class="cls-2" d="M88.7,43.5c0-.2,0-.3.2-.4s.3-.2.4-.2.3,0,.4.2.2.3.2.4v6.8c0,.2,0,.3-.2.4s-.3.2-.4.2-.3,0-.4-.2-.2-.3-.2-.4v-6.8Z"/>
        <path class="cls-2" d="M95.5,49.8c.1,0,.3,0,.4.2,0,.1.2.2.2.4s0,.2-.1.3c0,.1-.2.2-.3.2-.4,0-.9.2-1.5.2-.9,0-1.6-.3-2-.8-.5-.5-.7-1.2-.7-2s.2-1.5.7-2c.4-.5,1.1-.8,1.9-.8s1.4.2,1.9.7c.4.5.6,1.1.6,1.8s0,.4-.3.6c-.2.2-.4.2-.6.2h-3c0,.5.3.8.5.9.3.2.7.3,1.4.3s.5,0,1,0ZM95.3,47.6c0-.4-.2-.7-.4-.9-.2-.2-.5-.3-.9-.3s-.7,0-.9.3c-.2.2-.4.5-.4.9h2.7Z"/>
        <path class="cls-2" d="M101.5,50.3c-.5.4-1.1.7-1.9.7h-.2c0,0-.2,0-.3,0-.1,0-.3,0-.5-.1-.2,0-.3-.2-.5-.3-.1-.1-.3-.3-.4-.5-.1-.2-.2-.5-.2-.8,0-.5.2-.9.5-1.2.3-.3.8-.5,1.3-.5s1.5.2,2,.6v-.5c0-.4-.1-.7-.4-.9-.3-.2-.8-.3-1.6-.3s-.5,0-.8,0c-.1,0-.3,0-.4-.2-.1,0-.2-.2-.2-.4,0-.3.1-.5.4-.5.4-.1.9-.2,1.4-.2s1.5.2,2,.6c.5.4.7,1,.7,1.7v2.7c0,.2,0,.3-.2.4-.1.1-.3.2-.4.2s-.3,0-.4-.2c-.1-.1-.2-.2-.2-.4ZM101.5,49c-.3-.3-.8-.5-1.5-.5s-.8,0-1,.2c-.2.1-.2.3-.2.5,0,.4.4.7,1.2.7s.6,0,.9-.1c.2,0,.4-.2.5-.2h.1v-.5Z"/>
        <path class="cls-2" d="M104.3,46c0-.2,0-.3.2-.4.1-.1.2-.2.4-.2.3,0,.5.2.6.6.5-.5,1.1-.7,1.9-.7s.9.2,1.3.6c.4.4.6.9.6,1.4v3c0,.2,0,.3-.2.4s-.3.2-.4.2-.3,0-.4-.2c-.1-.1-.2-.3-.2-.4v-2.8c0-.4-.1-.7-.3-.8-.2-.2-.5-.2-.8-.2s-.4,0-.6,0c-.2,0-.3.2-.4.3-.1,0-.2.2-.3.3,0,.1-.2.2-.2.3h0v3c0,.2,0,.3-.2.4s-.3.2-.4.2-.3,0-.4-.2c-.1-.1-.2-.3-.2-.4v-4.3Z"/>
        <path class="cls-2" d="M111,43.5c0-.2,0-.3.2-.4s.3-.2.4-.2.3,0,.4.2.2.3.2.4v6.8c0,.2,0,.3-.2.4s-.3.2-.4.2-.3,0-.4-.2-.2-.3-.2-.4v-6.8Z"/>
        <path class="cls-2" d="M113.9,43.9c0-.2,0-.3.2-.4.1-.1.2-.2.4-.2s.3,0,.4.2c.1.1.2.3.2.4s0,.3-.2.4c-.1.1-.3.2-.4.2s-.3,0-.4-.2c-.1-.1-.2-.2-.2-.4ZM113.9,46c0-.2,0-.3.2-.4s.3-.2.4-.2.3,0,.4.2.2.3.2.4v4.3c0,.2,0,.3-.2.4s-.3.2-.4.2-.3,0-.4-.2-.2-.3-.2-.4v-4.3Z"/>
        <path class="cls-2" d="M116.8,46c0-.2,0-.3.2-.4.1-.1.2-.2.4-.2.3,0,.5.2.6.6.5-.5,1.1-.7,1.9-.7s.9.2,1.3.6c.4.4.6.9.6,1.4v3c0,.2,0,.3-.2.4s-.3.2-.4.2-.3,0-.4-.2c-.1-.1-.2-.3-.2-.4v-2.8c0-.4-.1-.7-.3-.8-.2-.2-.5-.2-.8-.2s-.4,0-.6,0c-.2,0-.3.2-.4.3-.1,0-.2.2-.3.3,0,.1-.2.2-.2.3h0v3c0,.2,0,.3-.2.4s-.3.2-.4.2-.3,0-.4-.2c-.1-.1-.2-.3-.2-.4v-4.3Z"/>
        <path class="cls-2" d="M127.3,49.8c.1,0,.3,0,.4.2,0,.1.2.2.2.4s0,.2-.1.3c0,.1-.2.2-.3.2-.4,0-.9.2-1.5.2-.9,0-1.6-.3-2-.8-.5-.5-.7-1.2-.7-2s.2-1.5.7-2c.4-.5,1.1-.8,1.9-.8s1.4.2,1.9.7c.4.5.6,1.1.6,1.8s0,.4-.3.6c-.2.2-.4.2-.6.2h-3c0,.5.3.8.5.9.3.2.7.3,1.4.3s.5,0,1,0ZM127,47.6c0-.4-.2-.7-.4-.9-.2-.2-.5-.3-.9-.3s-.7,0-.9.3c-.2.2-.4.5-.4.9h2.7Z"/>
        <path class="cls-2" d="M133.1,45.5c.2,0,.4.2.4.5s0,.3-.2.4c-.1.1-.2.2-.4.2-.5,0-.8,0-.9,0-.5,0-.9,0-1.1.1-.2,0-.3.2-.3.4s.2.3.5.4c.4.1.8.3,1.2.4.4.1.8.3,1.2.6.4.3.5.6.5.9,0,.5-.2.9-.6,1.2-.4.3-1,.4-1.7.4s-1.1-.1-1.6-.3c-.3-.1-.4-.3-.4-.5s0-.3.2-.4.2-.2.4-.2c.5.2,1,.3,1.4.3.8,0,1.3-.2,1.3-.5s-.2-.3-.5-.5c-.4-.1-.8-.3-1.2-.4-.4-.1-.8-.3-1.2-.6-.4-.3-.5-.6-.5-1s.2-.9.7-1.2c.5-.3,1-.4,1.6-.4s.9,0,1.4.2Z"/>
        <path class="cls-2" d="M138.8,45.5c.2,0,.4.2.4.5s0,.3-.2.4c-.1.1-.2.2-.4.2-.5,0-.8,0-.9,0-.5,0-.9,0-1.1.1-.2,0-.3.2-.3.4s.2.3.5.4c.4.1.8.3,1.2.4.4.1.8.3,1.2.6.4.3.5.6.5.9,0,.5-.2.9-.6,1.2-.4.3-1,.4-1.7.4s-1.1-.1-1.6-.3c-.3-.1-.4-.3-.4-.5s0-.3.2-.4.2-.2.4-.2c.5.2,1,.3,1.4.3.8,0,1.3-.2,1.3-.5s-.2-.3-.5-.5c-.4-.1-.8-.3-1.2-.4-.4-.1-.8-.3-1.2-.6-.4-.3-.5-.6-.5-1s.2-.9.7-1.2c.5-.3,1-.4,1.6-.4s.9,0,1.4.2Z"/>
        <path class="cls-2" d="M143.6,52.4c.5,0,.8-.3,1-.7l.3-.9c-.2-.5-.5-1.3-.9-2.4-.4-1.1-.7-1.8-.9-2.3,0-.1,0-.2,0-.3,0-.2,0-.3.2-.4.1-.1.2-.2.4-.2.3,0,.5.1.6.4l1.2,3.5,1.5-3.5c0-.3.3-.4.6-.4s.3,0,.4.2c.1.1.2.3.2.4s0,.1,0,.3l-2.6,6.1c-.2.5-.4.8-.7,1-.3.2-.6.2-1,.2h-.3c-.1,0-.3,0-.4-.2-.1-.1-.2-.2-.2-.4s0-.3.2-.4c.1-.1.2-.2.4-.2Z"/>
        <path class="cls-2" d="M151.8,51c-.2,0-.5,0-.7,0-.2,0-.5-.1-.7-.3-.3-.1-.5-.3-.7-.5-.2-.2-.3-.5-.5-.8-.1-.3-.2-.7-.2-1.2,0-.9.3-1.6.9-2.1.6-.5,1.2-.7,1.9-.7s1.3.2,1.9.7c.6.5.8,1.2.8,2.1s0,.8-.2,1.2c-.1.4-.3.6-.5.8-.2.2-.4.4-.6.5-.3.1-.5.2-.7.3-.2,0-.5,0-.7,0ZM151.8,49.8c1,0,1.5-.6,1.5-1.7s-.2-1-.5-1.3c-.3-.3-.7-.4-1.1-.4s-.8.1-1.1.4c-.3.3-.5.7-.5,1.3,0,1.2.5,1.7,1.6,1.7Z"/>
        <path class="cls-2" d="M160.9,50.3c0,.2,0,.3-.2.4-.1.1-.3.2-.4.2-.3,0-.5-.2-.6-.6-.5.5-1.1.7-1.9.7s-1.1-.2-1.4-.6c-.3-.4-.5-.9-.5-1.5v-3c0-.2,0-.3.2-.4s.3-.2.4-.2.3,0,.4.2.2.3.2.4v2.8c0,.4.1.6.3.8.2.2.5.3.8.3s.4,0,.6-.1c.2,0,.3-.1.4-.2.1,0,.2-.2.3-.3,0,0,.1-.2.2-.3h0v-3c0-.2,0-.3.2-.4.1-.1.3-.2.4-.2s.3,0,.4.2c.1.1.2.3.2.4v4.3Z"/>
        <path class="cls-2" d="M169.2,50.3c-.4.5-1,.7-1.8.7s-1.2-.2-1.7-.7c-.5-.5-.7-1.2-.7-2.2s.2-1.6.7-2c.5-.5,1.1-.7,1.8-.7s1.3.2,1.7.7v-2.5c0-.2,0-.3.2-.4.1-.1.2-.2.4-.2s.3,0,.4.2c.1.1.2.3.2.4v6.8c0,.2,0,.3-.2.4-.1.1-.3.2-.4.2s-.3,0-.4-.2c-.1-.1-.2-.3-.2-.5ZM169.2,47.5s0,0,0-.1c0,0,0-.1-.2-.3,0-.1-.2-.2-.3-.3-.1,0-.2-.2-.4-.3-.2,0-.4-.1-.6-.1s-.3,0-.4,0c-.1,0-.3,0-.5.2-.2.1-.3.3-.4.5-.1.2-.2.5-.2.9s0,.6.1.9c0,.2.2.4.3.5,0,.1.2.2.4.3.2,0,.3.1.4.1,0,0,.2,0,.3,0,.3,0,.6,0,.8-.3.2-.2.4-.4.5-.5v-.3c.1,0,.1-1.3.1-1.3Z"/>
        <path class="cls-2" d="M175.9,49.8c.1,0,.3,0,.4.2,0,.1.2.2.2.4s0,.2-.1.3c0,.1-.2.2-.3.2-.4,0-.9.2-1.5.2-.9,0-1.6-.3-2-.8-.5-.5-.7-1.2-.7-2s.2-1.5.7-2c.4-.5,1.1-.8,1.9-.8s1.4.2,1.9.7c.4.5.6,1.1.6,1.8s0,.4-.3.6c-.2.2-.4.2-.6.2h-3c0,.5.3.8.5.9.3.2.7.3,1.4.3s.5,0,1,0ZM175.7,47.6c0-.4-.2-.7-.4-.9-.2-.2-.5-.3-.9-.3s-.7,0-.9.3c-.2.2-.4.5-.4.9h2.7Z"/>
        <path class="cls-2" d="M181.7,45.5c.2,0,.4.2.4.5s0,.3-.2.4c-.1.1-.2.2-.4.2-.5,0-.8,0-.9,0-.5,0-.9,0-1.1.1-.2,0-.3.2-.3.4s.2.3.5.4c.4.1.8.3,1.2.4.4.1.8.3,1.2.6.4.3.5.6.5.9,0,.5-.2.9-.6,1.2-.4.3-1,.4-1.7.4s-1.1-.1-1.6-.3c-.3-.1-.4-.3-.4-.5s0-.3.2-.4.2-.2.4-.2c.5.2,1,.3,1.4.3.8,0,1.3-.2,1.3-.5s-.2-.3-.5-.5c-.4-.1-.8-.3-1.2-.4-.4-.1-.8-.3-1.2-.6-.4-.3-.5-.6-.5-1s.2-.9.7-1.2c.5-.3,1-.4,1.6-.4s.9,0,1.4.2Z"/>
        <path class="cls-2" d="M187.9,49.8c.1,0,.3,0,.4.2,0,.1.2.2.2.4s0,.2-.1.3c0,.1-.2.2-.3.2-.4,0-.9.2-1.5.2-.9,0-1.6-.3-2-.8-.5-.5-.7-1.2-.7-2s.2-1.5.7-2c.4-.5,1.1-.8,1.9-.8s1.4.2,1.9.7c.4.5.6,1.1.6,1.8s0,.4-.3.6c-.2.2-.4.2-.6.2h-3c0,.5.3.8.5.9.3.2.7.3,1.4.3s.5,0,1,0ZM187.6,47.6c0-.4-.2-.7-.4-.9-.2-.2-.5-.3-.9-.3s-.7,0-.9.3c-.2.2-.4.5-.4.9h2.7Z"/>
        <path class="cls-2" d="M193.2,46.4c-.3,0-.6,0-.8.1s-.4.2-.5.3c-.1.1-.2.3-.3.4,0,.1-.1.3-.1.3h0v2.7c0,.2,0,.3-.2.4s-.3.2-.4.2-.3,0-.4-.2c-.1-.1-.2-.3-.2-.4v-4.3c0-.2,0-.3.2-.4.1-.1.2-.2.4-.2s.3,0,.4.2c.1.1.2.3.2.5.3-.5.9-.7,1.8-.7h.2c.3,0,.5.2.5.6s0,.3-.1.4c0,.1-.2.2-.3.2h-.2Z"/>
        <path class="cls-2" d="M196.8,50.9c-.5,0-.8-.2-1-.6l-1.7-4c0,0,0-.1,0-.2,0-.2,0-.3.2-.4.1-.1.2-.2.4-.2.3,0,.5.1.6.4l1.5,4,1.5-4c0-.2.3-.4.6-.4s.3,0,.4.2c.1.1.2.2.2.4s0,.2,0,.2l-1.7,4c-.2.4-.5.6-1,.6Z"/>
        <path class="cls-2" d="M204.5,49.8c.1,0,.3,0,.4.2,0,.1.2.2.2.4s0,.2-.1.3c0,.1-.2.2-.3.2-.4,0-.9.2-1.5.2-.9,0-1.6-.3-2-.8-.5-.5-.7-1.2-.7-2s.2-1.5.7-2c.4-.5,1.1-.8,1.9-.8s1.4.2,1.9.7c.4.5.6,1.1.6,1.8s0,.4-.3.6c-.2.2-.4.2-.6.2h-3c0,.5.3.8.5.9.3.2.7.3,1.4.3s.5,0,1,0ZM204.3,47.6c0-.4-.2-.7-.4-.9-.2-.2-.5-.3-.9-.3s-.7,0-.9.3c-.2.2-.4.5-.4.9h2.7Z"/>
      </g>
    </g>
  </g>
</svg>