<?xml version="1.0" encoding="UTF-8"?>
<svg xmlns="http://www.w3.org/2000/svg" version="1.1" viewBox="0 0 38 28">
  <defs>
    <style>
      .cls-1 {
        fill: #fff;
        fill-rule: evenodd;
      }
    </style>
  </defs>
  <!-- Generator: Adobe Illustrator 28.7.3, SVG Export Plug-In . SVG Version: 1.2.0 Build 164)  -->
  <g>
    <g id="_圖層_1" data-name="圖層_1">
      <path class="cls-1" d="M34.4,19.9c-.7-.4-4.3-2.1-5-2.4-.7-.3-1.2-.4-1.7.4-.5.7-1.9,2.4-2.3,2.8-.4.5-.9.5-1.6.2-.7-.4-3.1-1.1-5.9-3.6-2.2-1.9-3.7-4.3-4.1-5-.4-.7,0-1.1.3-1.5.3-.3.7-.9,1.1-1.3,0-.1.2-.2.3-.4.2-.3.3-.5.5-.9.3-.5.1-.9,0-1.3-.2-.4-1.7-3.9-2.3-5.4-.6-1.5-1.2-1.2-1.7-1.2s-.9,0-1.4,0-1.3.2-2,.9c-.7.7-2.6,2.5-2.6,6.1s.2,1.7.4,2.5c.7,2.6,2.3,4.7,2.6,5,.4.5,5.1,8.1,12.5,11,7.5,2.9,7.5,1.9,8.8,1.8,1.3-.1,4.3-1.8,4.9-3.5.6-1.7.6-3.2.4-3.5-.2-.3-.7-.5-1.4-.8"/>
    </g>
  </g>
</svg>