<?xml version="1.0" encoding="UTF-8"?>
<svg xmlns="http://www.w3.org/2000/svg" xmlns:xlink="http://www.w3.org/1999/xlink" version="1.1" viewBox="0 0 137.2 84.4">
  <defs>
    <style>
      .cls-1 {
        fill: none;
      }

      .cls-2 {
        fill: #51ade5;
      }

      .cls-3 {
        fill: #3871c1;
      }

      .cls-4 {
        fill: #80cc28;
      }

      .cls-5 {
        fill: #2678d1;
      }

      .cls-6 {
        clip-path: url(#clippath);
      }
    </style>
    <clipPath id="clippath">
      <rect class="cls-1" x="40.9" y="12.4" width="39.8" height="47.9"/>
    </clipPath>
  </defs>
  <!-- Generator: Adobe Illustrator 28.7.3, SVG Export Plug-In . SVG Version: 1.2.0 Build 164)  -->
  <g>
    <g id="_圖層_1" data-name="圖層_1">
      <g>
        <path class="cls-4" d="M41.8,68c.4,0,.7.1,1,.3.3.2.5.5.6.8l2.9,10.1,2.2-10.4c0-.2.2-.4.4-.6.2-.2.4-.2.6-.2s.5.1.7.3c.2.2.3.4.3.7l-2.4,11.2c0,.4-.3.8-.6,1-.3.3-.7.4-1.1.4s-.8-.1-1.1-.4c-.3-.2-.5-.5-.6-.9l-2.6-9.4-2.6,9.4c-.1.4-.3.7-.6.9-.3.2-.7.4-1.1.4s-.8-.1-1.1-.4c-.3-.3-.6-.6-.6-1l-2.4-11.2c0-.3.1-.5.3-.7.2-.2.4-.3.7-.3s.5,0,.7.2c.2.2.3.3.3.6l2.2,10.4,2.9-10.1c0-.3.3-.6.6-.8.3-.2.6-.3,1-.3Z"/>
        <path class="cls-4" d="M57.7,79.8c.2,0,.5,0,.6.3.2.2.3.4.3.6s0,.4-.2.6c-.1.2-.3.3-.5.3-.8.2-1.6.3-2.5.3-1.5,0-2.7-.5-3.5-1.4-.8-.9-1.2-2.1-1.2-3.5s.4-2.6,1.1-3.5c.7-.9,1.8-1.3,3.2-1.3s2.5.4,3.2,1.2c.7.8,1.1,1.8,1.1,3.1s-.1.7-.4,1c-.3.3-.6.4-1,.4h-5.1c.2.8.5,1.3.9,1.6.4.3,1.3.5,2.4.5s.9,0,1.7-.2ZM57.2,76.1c-.1-.8-.4-1.3-.8-1.6-.4-.3-.9-.4-1.6-.4s-1.2.2-1.6.5c-.4.3-.6.8-.7,1.5h4.6Z"/>
        <path class="cls-5" d="M69.2,81.9c-.6,0-1.1,0-1.7-.2-.6-.1-1.2-.3-1.8-.7-.6-.3-1.2-.7-1.7-1.3-.5-.5-.9-1.2-1.2-2.1-.3-.9-.5-1.9-.5-3s.2-2.2.6-3.1c.4-.9,1-1.6,1.6-2.1.7-.5,1.4-.9,2.2-1.1.8-.2,1.5-.3,2.4-.3,1.3,0,2.4.3,3.5.9.3.2.4.5.4.8s0,.5-.3.6c-.2.2-.4.3-.6.3s-.3,0-.4,0c-.9-.4-1.8-.6-2.7-.6-3.2,0-4.8,1.6-4.8,4.9s.1,1.6.3,2.3c.2.7.5,1.2.8,1.5.3.4.7.7,1.2.9.4.2.9.4,1.3.4.4,0,.8,0,1.2,0,.9,0,1.8-.2,2.7-.6.1,0,.2,0,.4,0,.3,0,.5,0,.6.3.2.2.3.4.3.6s-.1.6-.4.8c-1.1.6-2.3.9-3.5.9Z"/>
        <path class="cls-5" d="M73.9,69.1c0-.3.1-.5.3-.7.2-.2.4-.3.7-.3s.5.1.7.3.3.4.3.7v11.6c0,.3-.1.5-.3.7s-.4.3-.7.3-.5-.1-.7-.3c-.2-.2-.3-.4-.3-.7v-11.6Z"/>
        <path class="cls-5" d="M83.8,79.8c.2,0,.5,0,.6.3.2.2.3.4.3.6s0,.4-.2.6c-.1.2-.3.3-.5.3-.8.2-1.6.3-2.6.3-1.5,0-2.7-.5-3.5-1.4-.8-.9-1.2-2.1-1.2-3.5s.4-2.6,1.1-3.5c.7-.9,1.8-1.3,3.2-1.3s2.5.4,3.2,1.2c.7.8,1.1,1.8,1.1,3.1s-.1.7-.4,1c-.3.3-.6.4-1,.4h-5.1c.2.8.5,1.3.9,1.6.4.3,1.3.5,2.4.5s.9,0,1.7-.2ZM83.4,76.1c-.1-.8-.4-1.3-.8-1.6-.4-.3-.9-.4-1.6-.4s-1.2.2-1.6.5c-.4.3-.6.8-.7,1.5h4.6Z"/>
        <path class="cls-5" d="M92.3,80.7c-.8.8-1.9,1.1-3.3,1.1h-.3c-.1,0-.3,0-.5,0-.2,0-.5-.1-.8-.2-.3-.1-.6-.3-.8-.5-.2-.2-.5-.5-.6-.9-.2-.4-.3-.9-.3-1.4,0-.8.3-1.5.8-2,.5-.5,1.3-.8,2.3-.8s2.5.3,3.5,1v-.8c0-.6-.2-1.2-.7-1.5-.5-.3-1.4-.5-2.7-.5s-.9,0-1.4.1c-.2,0-.5,0-.6-.3-.2-.2-.3-.4-.3-.6,0-.5.2-.8.6-.9.6-.2,1.5-.3,2.5-.3s2.6.3,3.4,1c.8.7,1.2,1.6,1.2,2.9v4.7c0,.3-.1.5-.3.7-.2.2-.4.3-.7.3s-.5-.1-.7-.3c-.2-.2-.3-.4-.3-.7ZM92.3,78.5c-.6-.5-1.4-.8-2.5-.8s-1.4,0-1.6.3c-.3.2-.4.5-.4.8,0,.8.7,1.1,2.1,1.1s1.1,0,1.5-.2c.4-.1.7-.3.8-.4l.2-.2v-.6Z"/>
        <path class="cls-5" d="M95.4,73.4c0-.3.1-.5.3-.7.2-.2.4-.3.7-.3.5,0,.9.4,1,1.1.8-.8,1.9-1.2,3.3-1.2s1.6.3,2.2,1c.7.7,1,1.5,1,2.4v5.1c0,.3-.1.5-.3.7-.2.2-.4.3-.7.3s-.5-.1-.7-.3c-.2-.2-.3-.4-.3-.7v-4.8c0-.6-.2-1.1-.6-1.4-.4-.3-.8-.4-1.3-.4s-.7,0-1,.2c-.3.1-.6.3-.7.4-.2.2-.4.3-.5.5-.2.2-.3.3-.3.4v.2c0,0,0,4.9,0,4.9,0,.3-.1.5-.3.7-.2.2-.4.3-.7.3s-.5-.1-.7-.3c-.2-.2-.3-.4-.3-.7v-7.3Z"/>
        <g class="cls-6">
          <path class="cls-4" d="M67.2,58.7c-12.3,0-22.2-9.9-22.2-22.2s10-22.2,22.2-22.2,9.5,1.6,13.2,4.3c-4.2-3.7-9.7-5.9-15.7-5.9-13.1,0-23.8,10.6-23.8,23.8s10.7,23.8,23.8,23.8,11.5-2.2,15.7-5.9c-3.7,2.7-8.3,4.3-13.2,4.3"/>
        </g>
        <path class="cls-3" d="M87.5,38.5c-2.4,10.9-13.1,17.8-24,15.4-10.9-2.4-17.8-13.1-15.4-24,1-4.4,3.3-8.1,6.4-10.8-4.1,3-7.1,7.4-8.3,12.8-2.5,11.6,4.8,23.1,16.5,25.7,11.7,2.5,23.2-4.8,25.7-16.5,1.2-5.3.3-10.6-2.2-15,1.7,3.8,2.2,8.2,1.3,12.5"/>
        <path class="cls-4" d="M83.9,19.7v-.2c0-.2,0-.4,0-.6,0-.2,0-.4,0-.7,0-.1,0-.2,0-.3,0-.1,0-.2,0-.3,0-.2,0-.4,0-.7,0-.2,0-.4-.1-.7v-.2c0,0,0-.1,0-.2v-.3c-.1-.1-.1-.2-.2-.3h0c0,0,0-.2,0-.2v-.2c-.1-.2-.2-.4-.2-.7,0-.2-.1-.4-.2-.7v-.2c0,0,0-.1-.1-.2,0-.1,0-.2-.1-.3,0-.1,0-.2-.1-.3,0-.1,0-.2-.1-.3,0-.1,0-.2-.1-.3,0-.1,0-.2-.1-.3-.1-.2-.2-.4-.3-.6-.4-.8-.9-1.6-1.5-2.4-.6-.8-1.2-1.5-1.9-2.1l-.5-.5-.5-.5h-.1c0-.1-.1-.2-.1-.2l-.3-.2-.3-.2-.6-.4h-.1c0-.1,0-.2-.1-.2-.2-.1-.4-.3-.6-.4-.4-.2-.8-.5-1.2-.7-.2-.1-.4-.2-.6-.3-.2,0-.4-.2-.6-.3-.2,0-.4-.2-.6-.3h-.2c0,0-.1-.1-.2-.1-.1,0-.2,0-.3-.1-.4-.2-.9-.3-1.3-.4-.2,0-.4-.1-.6-.2-.1,0-.2,0-.3,0-.1,0-.2,0-.3,0-.2,0-.4,0-.6-.1-.1,0-.2,0-.3,0-.1,0-.2,0-.3,0-.4,0-.8,0-1.3,0-.8,0-1.7,0-2.5,0-1.6.1-3.1.5-4.4,1-.7.2-1.3.5-1.8.8-.6.3-1.1.6-1.6.9-.5.3-.9.6-1.3.9-.4.3-.7.6-1,.8-.6.5-1,1-1.3,1.3-.1.2-.3.3-.3.4,0,0-.1.1-.1.1,0,0,0,0,.1-.1,0,0,.2-.2.3-.3.3-.3.8-.7,1.4-1.2.3-.2.7-.5,1.1-.8.4-.3.8-.5,1.3-.8.5-.3,1-.5,1.6-.8.6-.2,1.2-.5,1.8-.6,1.3-.4,2.7-.6,4.3-.7.8,0,1.6,0,2.3,0,.4,0,.8,0,1.2.2.1,0,.2,0,.3,0,.1,0,.2,0,.3,0,.2,0,.4,0,.6.1.1,0,.2,0,.3,0,.1,0,.2,0,.3,0,.2,0,.4.1.6.2.4.1.8.3,1.2.4,0,0,.2,0,.3.1,0,0,0,0,.1,0h.1c.2.2.4.2.6.3.2,0,.4.2.6.3.2,0,.4.2.6.3.4.2.7.5,1.1.7.2.1.4.3.5.4,0,0,0,0,.1,0h.1c0,.1.3.3.3.3l.3.2.2.2.2.2h.1c0,.1.1.2.1.2l.5.5.4.5c.6.6,1.1,1.3,1.6,2.1.5.7.9,1.5,1.2,2.2,0,.2.2.4.3.6,0,0,0,.2.1.3,0,0,0,.2.1.3,0,0,0,.2.1.3,0,.1,0,.2,0,.3,0,0,0,.2,0,.3,0,0,0,0,0,.1v.2c0,.2.2.4.2.6,0,.2,0,.4.1.6h0c0,.1,0,.2,0,.2h0c0,.2,0,.3,0,.4,0,0,0,.2,0,.3,0,0,0,0,0,.1h0c0,.3,0,.5,0,.7,0,.2,0,.4,0,.6,0,0,0,.2,0,.3,0,0,0,.2,0,.3,0,.2,0,.4,0,.6,0,.2,0,.4,0,.6h0c0,.2,0,.2,0,.3,0,0,0,.2,0,.3,0,0,0,.2,0,.3h0c0,.2,0,.2,0,.3,0,.2,0,.4,0,.5,0,0,0,.2,0,.3,0,0,0,.2,0,.3,0,.2,0,.4,0,.5,0,.2,0,.3-.1.5,0,0,0,.2,0,.3,0,0,0,.2,0,.2,0,.2,0,.3-.1.5,0,.2-.1.3-.2.5,0,.2-.1.3-.2.5,0,.2-.1.3-.2.4-.5,1.2-1,2.2-1.6,3-.6.8-1.2,1.5-1.7,2.1,0,0-.1.1-.2.2,0,0-.1.1-.2.2,0,0,0,0-.1.1.4.3.6.5.6.5.6.5,1,1.1,1.3,1.7,0,0,.2-.2.3-.3,0,0,.1-.1.2-.2,0,0,.1-.2.2-.2.6-.7,1.2-1.5,1.8-2.5s1.2-2.2,1.7-3.6c0-.2.1-.3.2-.5,0-.2.1-.4.2-.5,0-.2,0-.4.2-.6,0-.2,0-.4.1-.6,0,0,0-.2,0-.3,0,0,0-.2,0-.3,0-.2,0-.4.1-.6,0-.2,0-.4,0-.6,0-.1,0-.2,0-.3,0-.1,0-.2,0-.3,0-.2,0-.4,0-.6,0,0,0-.1,0-.2v-.2c0-.1,0-.2,0-.3,0-.1,0-.2,0-.3s0-.1,0-.2"/>
        <path class="cls-2" d="M58.9,36.5s5.3.7,9.8-2.9c0,0-2.8,4.2-9.8,2.9ZM71.5,30.5c-10.1,9-18.8,3.4-18.8,3.4,0,0,1.1,5.9,5.2,5.9,0,0-2.6.6-4.6-1.4,1.2,4.8,4.2,7.9,7,9.9,0,0,2,0,2.8-.7,0,0-.7,1-1.6,1.5,2,1.2,3.9,1.8,4.8,2.1.9-.5,1.7-1.1,1.7-1.1-.3.8-1.1,1.3-1.1,1.3,7.6-2.1,11.6-13.7,11.6-13.7l-6.9-7.1"/>
        <path class="cls-4" d="M78.3,35.7s0-1.4-1-3.5c0,0,1.3,1.4,1,3.5ZM77.1,31.5s-2.5-2.4-5.2-1.2l6.6,6.9c.3-1.1.8-3.9-1.4-5.7"/>
      </g>
    </g>
  </g>
</svg>